ISO-10303-21;
HEADER;
/* Generated by software containing ST-Developer
 * from STEP Tools, Inc. (www.steptools.com) 
 */

FILE_DESCRIPTION(
/* description */ ('KiCad electronic assembly'),
/* implementation_level */ '2;1');

FILE_NAME(
/* name */ 'glowbug v3 - for machining - floor.step',
/* time_stamp */ '2026-08-17T15:12:14-07:00',
/* author */ (''),
/* organization */ (''),
/* preprocessor_version */ 'ST-DEVELOPER v20.1',
/* originating_system */ 'Autodesk Translation Framework v15.8.0.0',
/* authorisation */ '');

FILE_SCHEMA (('AUTOMOTIVE_DESIGN { 1 0 10303 214 3 1 1 }'));
ENDSEC;

DATA;
#10=MECHANICAL_DESIGN_GEOMETRIC_PRESENTATION_REPRESENTATION('',(#13),#1798);
#11=SHAPE_REPRESENTATION_RELATIONSHIP('SRR','None',#1804,#12);
#12=ADVANCED_BREP_SHAPE_REPRESENTATION('',(#14),#1797);
#13=STYLED_ITEM('',(#1814),#14);
#14=MANIFOLD_SOLID_BREP('floor',#1026);
#15=ELLIPSE('',#1133,2.82842712474619,2.);
#16=ELLIPSE('',#1134,2.82842712474619,2.);
#17=ELLIPSE('',#1136,2.82842712474619,2.);
#18=ELLIPSE('',#1138,2.82842712474619,2.);
#19=TOROIDAL_SURFACE('',#1092,6.15,2.);
#20=TOROIDAL_SURFACE('',#1097,6.15,2.);
#21=TOROIDAL_SURFACE('',#1103,5.75000000000001,2.);
#22=TOROIDAL_SURFACE('',#1108,5.75000000000001,2.);
#23=TOROIDAL_SURFACE('',#1114,7.,2.);
#24=TOROIDAL_SURFACE('',#1120,4.25,2.);
#25=TOROIDAL_SURFACE('',#1126,4.25,2.);
#26=FACE_BOUND('',#190,.T.);
#27=FACE_BOUND('',#191,.T.);
#28=FACE_BOUND('',#192,.T.);
#29=FACE_BOUND('',#193,.T.);
#30=FACE_BOUND('',#194,.T.);
#31=FACE_BOUND('',#195,.T.);
#32=FACE_BOUND('',#196,.T.);
#33=FACE_BOUND('',#197,.T.);
#34=FACE_BOUND('',#225,.T.);
#35=FACE_BOUND('',#227,.T.);
#36=FACE_BOUND('',#229,.T.);
#37=FACE_BOUND('',#232,.T.);
#38=FACE_BOUND('',#234,.T.);
#39=FACE_BOUND('',#237,.T.);
#40=PLANE('',#1044);
#41=PLANE('',#1048);
#42=PLANE('',#1052);
#43=PLANE('',#1056);
#44=PLANE('',#1062);
#45=PLANE('',#1065);
#46=PLANE('',#1066);
#47=PLANE('',#1067);
#48=PLANE('',#1070);
#49=PLANE('',#1073);
#50=PLANE('',#1077);
#51=PLANE('',#1082);
#52=PLANE('',#1084);
#53=PLANE('',#1140);
#54=PLANE('',#1141);
#55=PLANE('',#1142);
#56=PLANE('',#1143);
#57=PLANE('',#1144);
#58=PLANE('',#1145);
#59=PLANE('',#1146);
#60=PLANE('',#1147);
#61=PLANE('',#1148);
#62=PLANE('',#1150);
#63=PLANE('',#1152);
#64=PLANE('',#1155);
#65=PLANE('',#1156);
#66=PLANE('',#1159);
#67=PLANE('',#1160);
#68=CYLINDRICAL_SURFACE('',#1030,1.2645);
#69=CYLINDRICAL_SURFACE('',#1034,1.2645);
#70=CYLINDRICAL_SURFACE('',#1038,1.2645);
#71=CYLINDRICAL_SURFACE('',#1042,1.2645);
#72=CYLINDRICAL_SURFACE('',#1060,4.00000042591002);
#73=CYLINDRICAL_SURFACE('',#1063,4.00000042591003);
#74=CYLINDRICAL_SURFACE('',#1081,4.00000042591001);
#75=CYLINDRICAL_SURFACE('',#1083,4.00000042591007);
#76=CYLINDRICAL_SURFACE('',#1095,4.15);
#77=CYLINDRICAL_SURFACE('',#1101,4.15);
#78=CYLINDRICAL_SURFACE('',#1106,3.75000000000001);
#79=CYLINDRICAL_SURFACE('',#1112,3.75000000000001);
#80=CYLINDRICAL_SURFACE('',#1118,5.);
#81=CYLINDRICAL_SURFACE('',#1124,2.25);
#82=CYLINDRICAL_SURFACE('',#1130,2.25);
#83=CYLINDRICAL_SURFACE('',#1132,2.);
#84=CYLINDRICAL_SURFACE('',#1135,2.);
#85=CYLINDRICAL_SURFACE('',#1137,2.);
#86=CYLINDRICAL_SURFACE('',#1139,2.);
#87=CYLINDRICAL_SURFACE('',#1153,2.25000000000001);
#88=CYLINDRICAL_SURFACE('',#1157,2.25000000000001);
#89=FACE_OUTER_BOUND('',#157,.T.);
#90=FACE_OUTER_BOUND('',#158,.T.);
#91=FACE_OUTER_BOUND('',#159,.T.);
#92=FACE_OUTER_BOUND('',#160,.T.);
#93=FACE_OUTER_BOUND('',#161,.T.);
#94=FACE_OUTER_BOUND('',#162,.T.);
#95=FACE_OUTER_BOUND('',#163,.T.);
#96=FACE_OUTER_BOUND('',#164,.T.);
#97=FACE_OUTER_BOUND('',#165,.T.);
#98=FACE_OUTER_BOUND('',#166,.T.);
#99=FACE_OUTER_BOUND('',#167,.T.);
#100=FACE_OUTER_BOUND('',#168,.T.);
#101=FACE_OUTER_BOUND('',#169,.T.);
#102=FACE_OUTER_BOUND('',#170,.T.);
#103=FACE_OUTER_BOUND('',#171,.T.);
#104=FACE_OUTER_BOUND('',#172,.T.);
#105=FACE_OUTER_BOUND('',#173,.T.);
#106=FACE_OUTER_BOUND('',#174,.T.);
#107=FACE_OUTER_BOUND('',#175,.T.);
#108=FACE_OUTER_BOUND('',#176,.T.);
#109=FACE_OUTER_BOUND('',#177,.T.);
#110=FACE_OUTER_BOUND('',#178,.T.);
#111=FACE_OUTER_BOUND('',#179,.T.);
#112=FACE_OUTER_BOUND('',#180,.T.);
#113=FACE_OUTER_BOUND('',#181,.T.);
#114=FACE_OUTER_BOUND('',#182,.T.);
#115=FACE_OUTER_BOUND('',#183,.T.);
#116=FACE_OUTER_BOUND('',#184,.T.);
#117=FACE_OUTER_BOUND('',#185,.T.);
#118=FACE_OUTER_BOUND('',#186,.T.);
#119=FACE_OUTER_BOUND('',#187,.T.);
#120=FACE_OUTER_BOUND('',#188,.T.);
#121=FACE_OUTER_BOUND('',#189,.T.);
#122=FACE_OUTER_BOUND('',#198,.T.);
#123=FACE_OUTER_BOUND('',#199,.T.);
#124=FACE_OUTER_BOUND('',#200,.T.);
#125=FACE_OUTER_BOUND('',#201,.T.);
#126=FACE_OUTER_BOUND('',#202,.T.);
#127=FACE_OUTER_BOUND('',#203,.T.);
#128=FACE_OUTER_BOUND('',#204,.T.);
#129=FACE_OUTER_BOUND('',#205,.T.);
#130=FACE_OUTER_BOUND('',#206,.T.);
#131=FACE_OUTER_BOUND('',#207,.T.);
#132=FACE_OUTER_BOUND('',#208,.T.);
#133=FACE_OUTER_BOUND('',#209,.T.);
#134=FACE_OUTER_BOUND('',#210,.T.);
#135=FACE_OUTER_BOUND('',#211,.T.);
#136=FACE_OUTER_BOUND('',#212,.T.);
#137=FACE_OUTER_BOUND('',#213,.T.);
#138=FACE_OUTER_BOUND('',#214,.T.);
#139=FACE_OUTER_BOUND('',#215,.T.);
#140=FACE_OUTER_BOUND('',#216,.T.);
#141=FACE_OUTER_BOUND('',#217,.T.);
#142=FACE_OUTER_BOUND('',#218,.T.);
#143=FACE_OUTER_BOUND('',#219,.T.);
#144=FACE_OUTER_BOUND('',#220,.T.);
#145=FACE_OUTER_BOUND('',#221,.T.);
#146=FACE_OUTER_BOUND('',#222,.T.);
#147=FACE_OUTER_BOUND('',#223,.T.);
#148=FACE_OUTER_BOUND('',#224,.T.);
#149=FACE_OUTER_BOUND('',#226,.T.);
#150=FACE_OUTER_BOUND('',#228,.T.);
#151=FACE_OUTER_BOUND('',#230,.T.);
#152=FACE_OUTER_BOUND('',#231,.T.);
#153=FACE_OUTER_BOUND('',#233,.T.);
#154=FACE_OUTER_BOUND('',#235,.T.);
#155=FACE_OUTER_BOUND('',#236,.T.);
#156=FACE_OUTER_BOUND('',#238,.T.);
#157=EDGE_LOOP('',(#670,#671,#672));
#158=EDGE_LOOP('',(#673,#674,#675,#676));
#159=EDGE_LOOP('',(#677,#678,#679));
#160=EDGE_LOOP('',(#680,#681,#682,#683));
#161=EDGE_LOOP('',(#684,#685,#686));
#162=EDGE_LOOP('',(#687,#688,#689,#690));
#163=EDGE_LOOP('',(#691,#692,#693));
#164=EDGE_LOOP('',(#694,#695,#696,#697));
#165=EDGE_LOOP('',(#698,#699,#700,#701));
#166=EDGE_LOOP('',(#702,#703,#704,#705));
#167=EDGE_LOOP('',(#706,#707,#708,#709));
#168=EDGE_LOOP('',(#710,#711,#712,#713));
#169=EDGE_LOOP('',(#714,#715,#716,#717));
#170=EDGE_LOOP('',(#718,#719,#720,#721));
#171=EDGE_LOOP('',(#722,#723,#724,#725));
#172=EDGE_LOOP('',(#726,#727,#728,#729));
#173=EDGE_LOOP('',(#730,#731,#732,#733));
#174=EDGE_LOOP('',(#734,#735,#736,#737));
#175=EDGE_LOOP('',(#738,#739,#740,#741));
#176=EDGE_LOOP('',(#742,#743,#744,#745));
#177=EDGE_LOOP('',(#746,#747,#748,#749,#750,#751,#752,#753));
#178=EDGE_LOOP('',(#754,#755,#756,#757));
#179=EDGE_LOOP('',(#758,#759,#760,#761));
#180=EDGE_LOOP('',(#762,#763,#764,#765));
#181=EDGE_LOOP('',(#766,#767,#768,#769));
#182=EDGE_LOOP('',(#770,#771,#772,#773));
#183=EDGE_LOOP('',(#774,#775,#776,#777));
#184=EDGE_LOOP('',(#778,#779,#780,#781));
#185=EDGE_LOOP('',(#782,#783,#784,#785));
#186=EDGE_LOOP('',(#786,#787,#788,#789));
#187=EDGE_LOOP('',(#790,#791,#792,#793));
#188=EDGE_LOOP('',(#794,#795,#796,#797));
#189=EDGE_LOOP('',(#798,#799,#800,#801,#802,#803,#804,#805));
#190=EDGE_LOOP('',(#806));
#191=EDGE_LOOP('',(#807));
#192=EDGE_LOOP('',(#808));
#193=EDGE_LOOP('',(#809));
#194=EDGE_LOOP('',(#810,#811,#812,#813));
#195=EDGE_LOOP('',(#814));
#196=EDGE_LOOP('',(#815));
#197=EDGE_LOOP('',(#816));
#198=EDGE_LOOP('',(#817,#818,#819,#820));
#199=EDGE_LOOP('',(#821,#822,#823,#824));
#200=EDGE_LOOP('',(#825,#826,#827,#828,#829));
#201=EDGE_LOOP('',(#830,#831,#832,#833,#834));
#202=EDGE_LOOP('',(#835,#836,#837,#838));
#203=EDGE_LOOP('',(#839,#840,#841,#842));
#204=EDGE_LOOP('',(#843,#844,#845,#846,#847));
#205=EDGE_LOOP('',(#848,#849,#850,#851,#852));
#206=EDGE_LOOP('',(#853,#854,#855,#856,#857));
#207=EDGE_LOOP('',(#858,#859,#860,#861,#862));
#208=EDGE_LOOP('',(#863,#864,#865,#866,#867));
#209=EDGE_LOOP('',(#868,#869,#870,#871,#872));
#210=EDGE_LOOP('',(#873,#874,#875,#876,#877));
#211=EDGE_LOOP('',(#878,#879,#880,#881,#882));
#212=EDGE_LOOP('',(#883,#884,#885,#886));
#213=EDGE_LOOP('',(#887,#888,#889,#890));
#214=EDGE_LOOP('',(#891,#892,#893,#894));
#215=EDGE_LOOP('',(#895,#896,#897,#898));
#216=EDGE_LOOP('',(#899,#900,#901,#902));
#217=EDGE_LOOP('',(#903,#904,#905,#906));
#218=EDGE_LOOP('',(#907));
#219=EDGE_LOOP('',(#908));
#220=EDGE_LOOP('',(#909));
#221=EDGE_LOOP('',(#910,#911,#912,#913));
#222=EDGE_LOOP('',(#914,#915,#916,#917));
#223=EDGE_LOOP('',(#918,#919,#920,#921));
#224=EDGE_LOOP('',(#922));
#225=EDGE_LOOP('',(#923));
#226=EDGE_LOOP('',(#924));
#227=EDGE_LOOP('',(#925));
#228=EDGE_LOOP('',(#926));
#229=EDGE_LOOP('',(#927));
#230=EDGE_LOOP('',(#928,#929,#930,#931));
#231=EDGE_LOOP('',(#932));
#232=EDGE_LOOP('',(#933));
#233=EDGE_LOOP('',(#934));
#234=EDGE_LOOP('',(#935));
#235=EDGE_LOOP('',(#936,#937,#938,#939));
#236=EDGE_LOOP('',(#940));
#237=EDGE_LOOP('',(#941));
#238=EDGE_LOOP('',(#942,#943,#944,#945));
#239=LINE('',#1507,#312);
#240=LINE('',#1511,#313);
#241=LINE('',#1516,#314);
#242=LINE('',#1520,#315);
#243=LINE('',#1525,#316);
#244=LINE('',#1529,#317);
#245=LINE('',#1534,#318);
#246=LINE('',#1538,#319);
#247=LINE('',#1542,#320);
#248=LINE('',#1544,#321);
#249=LINE('',#1546,#322);
#250=LINE('',#1547,#323);
#251=LINE('',#1551,#324);
#252=LINE('',#1557,#325);
#253=LINE('',#1558,#326);
#254=LINE('',#1559,#327);
#255=LINE('',#1563,#328);
#256=LINE('',#1569,#329);
#257=LINE('',#1570,#330);
#258=LINE('',#1571,#331);
#259=LINE('',#1575,#332);
#260=LINE('',#1581,#333);
#261=LINE('',#1582,#334);
#262=LINE('',#1583,#335);
#263=LINE('',#1589,#336);
#264=LINE('',#1592,#337);
#265=LINE('',#1595,#338);
#266=LINE('',#1596,#339);
#267=LINE('',#1599,#340);
#268=LINE('',#1603,#341);
#269=LINE('',#1604,#342);
#270=LINE('',#1608,#343);
#271=LINE('',#1610,#344);
#272=LINE('',#1611,#345);
#273=LINE('',#1614,#346);
#274=LINE('',#1618,#347);
#275=LINE('',#1619,#348);
#276=LINE('',#1622,#349);
#277=LINE('',#1627,#350);
#278=LINE('',#1628,#351);
#279=LINE('',#1629,#352);
#280=LINE('',#1633,#353);
#281=LINE('',#1639,#354);
#282=LINE('',#1640,#355);
#283=LINE('',#1641,#356);
#284=LINE('',#1646,#357);
#285=LINE('',#1647,#358);
#286=LINE('',#1649,#359);
#287=LINE('',#1662,#360);
#288=LINE('',#1664,#361);
#289=LINE('',#1666,#362);
#290=LINE('',#1667,#363);
#291=LINE('',#1681,#364);
#292=LINE('',#1691,#365);
#293=LINE('',#1699,#366);
#294=LINE('',#1709,#367);
#295=LINE('',#1718,#368);
#296=LINE('',#1728,#369);
#297=LINE('',#1738,#370);
#298=LINE('',#1744,#371);
#299=LINE('',#1749,#372);
#300=LINE('',#1752,#373);
#301=LINE('',#1755,#374);
#302=LINE('',#1758,#375);
#303=LINE('',#1760,#376);
#304=LINE('',#1761,#377);
#305=LINE('',#1764,#378);
#306=LINE('',#1765,#379);
#307=LINE('',#1771,#380);
#308=LINE('',#1772,#381);
#309=LINE('',#1774,#382);
#310=LINE('',#1786,#383);
#311=LINE('',#1792,#384);
#312=VECTOR('',#1167,0.63225);
#313=VECTOR('',#1172,1.2645);
#314=VECTOR('',#1177,0.63225);
#315=VECTOR('',#1182,1.2645);
#316=VECTOR('',#1187,0.63225);
#317=VECTOR('',#1192,1.2645);
#318=VECTOR('',#1197,0.63225);
#319=VECTOR('',#1202,1.2645);
#320=VECTOR('',#1205,10.);
#321=VECTOR('',#1206,10.);
#322=VECTOR('',#1207,10.);
#323=VECTOR('',#1208,10.);
#324=VECTOR('',#1211,10.);
#325=VECTOR('',#1218,10.);
#326=VECTOR('',#1219,10.);
#327=VECTOR('',#1220,10.);
#328=VECTOR('',#1223,10.);
#329=VECTOR('',#1230,10.);
#330=VECTOR('',#1231,10.);
#331=VECTOR('',#1232,10.);
#332=VECTOR('',#1235,10.);
#333=VECTOR('',#1242,10.);
#334=VECTOR('',#1243,10.);
#335=VECTOR('',#1244,10.);
#336=VECTOR('',#1253,10.);
#337=VECTOR('',#1256,10.);
#338=VECTOR('',#1259,10.);
#339=VECTOR('',#1260,10.);
#340=VECTOR('',#1263,10.);
#341=VECTOR('',#1268,10.);
#342=VECTOR('',#1269,10.);
#343=VECTOR('',#1274,10.);
#344=VECTOR('',#1275,10.);
#345=VECTOR('',#1276,10.);
#346=VECTOR('',#1279,10.);
#347=VECTOR('',#1284,10.);
#348=VECTOR('',#1285,10.);
#349=VECTOR('',#1288,10.);
#350=VECTOR('',#1293,10.);
#351=VECTOR('',#1294,10.);
#352=VECTOR('',#1295,10.);
#353=VECTOR('',#1298,10.);
#354=VECTOR('',#1305,10.);
#355=VECTOR('',#1306,10.);
#356=VECTOR('',#1307,10.);
#357=VECTOR('',#1316,10.);
#358=VECTOR('',#1317,10.);
#359=VECTOR('',#1320,10.);
#360=VECTOR('',#1333,10.);
#361=VECTOR('',#1334,10.);
#362=VECTOR('',#1335,10.);
#363=VECTOR('',#1336,10.);
#364=VECTOR('',#1353,4.25);
#365=VECTOR('',#1366,4.25);
#366=VECTOR('',#1377,4.25000000000001);
#367=VECTOR('',#1390,4.25000000000001);
#368=VECTOR('',#1401,5.);
#369=VECTOR('',#1414,2.25);
#370=VECTOR('',#1427,2.25);
#371=VECTOR('',#1434,10.);
#372=VECTOR('',#1441,10.);
#373=VECTOR('',#1444,10.);
#374=VECTOR('',#1449,10.);
#375=VECTOR('',#1452,10.);
#376=VECTOR('',#1453,10.);
#377=VECTOR('',#1454,10.);
#378=VECTOR('',#1457,10.);
#379=VECTOR('',#1458,10.);
#380=VECTOR('',#1467,10.);
#381=VECTOR('',#1468,10.);
#382=VECTOR('',#1471,10.);
#383=VECTOR('',#1488,2.25000000000001);
#384=VECTOR('',#1497,2.25000000000001);
#385=CIRCLE('',#1029,1.2645);
#386=CIRCLE('',#1031,1.2645);
#387=CIRCLE('',#1033,1.2645);
#388=CIRCLE('',#1035,1.2645);
#389=CIRCLE('',#1037,1.2645);
#390=CIRCLE('',#1039,1.2645);
#391=CIRCLE('',#1041,1.2645);
#392=CIRCLE('',#1043,1.2645);
#393=CIRCLE('',#1046,3.80000042591003);
#394=CIRCLE('',#1047,4.00000042591003);
#395=CIRCLE('',#1050,3.80000042591002);
#396=CIRCLE('',#1051,4.00000042591002);
#397=CIRCLE('',#1054,3.80000042591);
#398=CIRCLE('',#1055,4.00000042591001);
#399=CIRCLE('',#1058,3.80000042591005);
#400=CIRCLE('',#1059,4.00000042591007);
#401=CIRCLE('',#1061,4.00000042591002);
#402=CIRCLE('',#1064,4.00000042591003);
#403=CIRCLE('',#1069,3.80000042591003);
#404=CIRCLE('',#1072,3.80000042591002);
#405=CIRCLE('',#1075,4.00000042591001);
#406=CIRCLE('',#1076,3.80000042591);
#407=CIRCLE('',#1079,4.00000042591007);
#408=CIRCLE('',#1080,3.80000042591005);
#409=CIRCLE('',#1085,6.15);
#410=CIRCLE('',#1086,5.75000000000001);
#411=CIRCLE('',#1087,7.);
#412=CIRCLE('',#1088,4.25);
#413=CIRCLE('',#1089,4.25);
#414=CIRCLE('',#1090,5.75000000000001);
#415=CIRCLE('',#1091,6.15);
#416=CIRCLE('',#1093,4.15);
#417=CIRCLE('',#1094,2.);
#418=CIRCLE('',#1096,4.15);
#419=CIRCLE('',#1098,2.);
#420=CIRCLE('',#1099,4.15);
#421=CIRCLE('',#1100,4.15);
#422=CIRCLE('',#1102,4.15);
#423=CIRCLE('',#1104,3.75000000000001);
#424=CIRCLE('',#1105,2.);
#425=CIRCLE('',#1107,3.75000000000001);
#426=CIRCLE('',#1109,2.);
#427=CIRCLE('',#1110,3.75000000000001);
#428=CIRCLE('',#1111,3.75000000000001);
#429=CIRCLE('',#1113,3.75000000000001);
#430=CIRCLE('',#1115,5.);
#431=CIRCLE('',#1116,2.);
#432=CIRCLE('',#1117,5.);
#433=CIRCLE('',#1119,5.);
#434=CIRCLE('',#1121,2.25);
#435=CIRCLE('',#1122,2.);
#436=CIRCLE('',#1123,2.25);
#437=CIRCLE('',#1125,2.25);
#438=CIRCLE('',#1127,2.25);
#439=CIRCLE('',#1128,2.);
#440=CIRCLE('',#1129,2.25);
#441=CIRCLE('',#1131,2.25);
#442=CIRCLE('',#1149,2.25000000000001);
#443=CIRCLE('',#1151,2.25000000000001);
#444=CIRCLE('',#1154,2.25000000000001);
#445=CIRCLE('',#1158,2.25000000000001);
#446=VERTEX_POINT('',#1504);
#447=VERTEX_POINT('',#1506);
#448=VERTEX_POINT('',#1509);
#449=VERTEX_POINT('',#1513);
#450=VERTEX_POINT('',#1515);
#451=VERTEX_POINT('',#1518);
#452=VERTEX_POINT('',#1522);
#453=VERTEX_POINT('',#1524);
#454=VERTEX_POINT('',#1527);
#455=VERTEX_POINT('',#1531);
#456=VERTEX_POINT('',#1533);
#457=VERTEX_POINT('',#1536);
#458=VERTEX_POINT('',#1540);
#459=VERTEX_POINT('',#1541);
#460=VERTEX_POINT('',#1543);
#461=VERTEX_POINT('',#1545);
#462=VERTEX_POINT('',#1549);
#463=VERTEX_POINT('',#1550);
#464=VERTEX_POINT('',#1555);
#465=VERTEX_POINT('',#1556);
#466=VERTEX_POINT('',#1561);
#467=VERTEX_POINT('',#1562);
#468=VERTEX_POINT('',#1567);
#469=VERTEX_POINT('',#1568);
#470=VERTEX_POINT('',#1573);
#471=VERTEX_POINT('',#1574);
#472=VERTEX_POINT('',#1579);
#473=VERTEX_POINT('',#1580);
#474=VERTEX_POINT('',#1588);
#475=VERTEX_POINT('',#1590);
#476=VERTEX_POINT('',#1594);
#477=VERTEX_POINT('',#1598);
#478=VERTEX_POINT('',#1602);
#479=VERTEX_POINT('',#1607);
#480=VERTEX_POINT('',#1609);
#481=VERTEX_POINT('',#1613);
#482=VERTEX_POINT('',#1617);
#483=VERTEX_POINT('',#1621);
#484=VERTEX_POINT('',#1625);
#485=VERTEX_POINT('',#1626);
#486=VERTEX_POINT('',#1631);
#487=VERTEX_POINT('',#1632);
#488=VERTEX_POINT('',#1637);
#489=VERTEX_POINT('',#1638);
#490=VERTEX_POINT('',#1652);
#491=VERTEX_POINT('',#1654);
#492=VERTEX_POINT('',#1656);
#493=VERTEX_POINT('',#1658);
#494=VERTEX_POINT('',#1660);
#495=VERTEX_POINT('',#1661);
#496=VERTEX_POINT('',#1663);
#497=VERTEX_POINT('',#1665);
#498=VERTEX_POINT('',#1668);
#499=VERTEX_POINT('',#1670);
#500=VERTEX_POINT('',#1672);
#501=VERTEX_POINT('',#1675);
#502=VERTEX_POINT('',#1679);
#503=VERTEX_POINT('',#1683);
#504=VERTEX_POINT('',#1685);
#505=VERTEX_POINT('',#1689);
#506=VERTEX_POINT('',#1693);
#507=VERTEX_POINT('',#1697);
#508=VERTEX_POINT('',#1701);
#509=VERTEX_POINT('',#1703);
#510=VERTEX_POINT('',#1707);
#511=VERTEX_POINT('',#1711);
#512=VERTEX_POINT('',#1712);
#513=VERTEX_POINT('',#1717);
#514=VERTEX_POINT('',#1721);
#515=VERTEX_POINT('',#1722);
#516=VERTEX_POINT('',#1727);
#517=VERTEX_POINT('',#1731);
#518=VERTEX_POINT('',#1732);
#519=VERTEX_POINT('',#1737);
#520=VERTEX_POINT('',#1741);
#521=VERTEX_POINT('',#1743);
#522=VERTEX_POINT('',#1747);
#523=VERTEX_POINT('',#1751);
#524=VERTEX_POINT('',#1757);
#525=VERTEX_POINT('',#1759);
#526=VERTEX_POINT('',#1763);
#527=VERTEX_POINT('',#1770);
#528=VERTEX_POINT('',#1777);
#529=VERTEX_POINT('',#1780);
#530=VERTEX_POINT('',#1784);
#531=VERTEX_POINT('',#1790);
#532=EDGE_CURVE('',#446,#446,#385,.T.);
#533=EDGE_CURVE('',#446,#447,#239,.T.);
#534=EDGE_CURVE('',#448,#448,#386,.T.);
#535=EDGE_CURVE('',#448,#446,#240,.T.);
#536=EDGE_CURVE('',#449,#449,#387,.T.);
#537=EDGE_CURVE('',#449,#450,#241,.T.);
#538=EDGE_CURVE('',#451,#451,#388,.T.);
#539=EDGE_CURVE('',#451,#449,#242,.T.);
#540=EDGE_CURVE('',#452,#452,#389,.T.);
#541=EDGE_CURVE('',#452,#453,#243,.T.);
#542=EDGE_CURVE('',#454,#454,#390,.T.);
#543=EDGE_CURVE('',#454,#452,#244,.T.);
#544=EDGE_CURVE('',#455,#455,#391,.T.);
#545=EDGE_CURVE('',#455,#456,#245,.T.);
#546=EDGE_CURVE('',#457,#457,#392,.T.);
#547=EDGE_CURVE('',#457,#455,#246,.T.);
#548=EDGE_CURVE('',#458,#459,#247,.T.);
#549=EDGE_CURVE('',#459,#460,#248,.T.);
#550=EDGE_CURVE('',#460,#461,#249,.T.);
#551=EDGE_CURVE('',#461,#458,#250,.T.);
#552=EDGE_CURVE('',#462,#463,#251,.T.);
#553=EDGE_CURVE('',#463,#459,#393,.T.);
#554=EDGE_CURVE('',#458,#462,#394,.T.);
#555=EDGE_CURVE('',#464,#465,#252,.T.);
#556=EDGE_CURVE('',#465,#463,#253,.T.);
#557=EDGE_CURVE('',#462,#464,#254,.T.);
#558=EDGE_CURVE('',#466,#467,#255,.T.);
#559=EDGE_CURVE('',#467,#465,#395,.T.);
#560=EDGE_CURVE('',#464,#466,#396,.T.);
#561=EDGE_CURVE('',#468,#469,#256,.T.);
#562=EDGE_CURVE('',#469,#467,#257,.T.);
#563=EDGE_CURVE('',#466,#468,#258,.T.);
#564=EDGE_CURVE('',#470,#471,#259,.T.);
#565=EDGE_CURVE('',#471,#469,#397,.T.);
#566=EDGE_CURVE('',#468,#470,#398,.T.);
#567=EDGE_CURVE('',#472,#473,#260,.T.);
#568=EDGE_CURVE('',#473,#471,#261,.T.);
#569=EDGE_CURVE('',#470,#472,#262,.T.);
#570=EDGE_CURVE('',#460,#473,#399,.T.);
#571=EDGE_CURVE('',#472,#461,#400,.T.);
#572=EDGE_CURVE('',#474,#464,#263,.T.);
#573=EDGE_CURVE('',#475,#474,#401,.T.);
#574=EDGE_CURVE('',#475,#466,#264,.T.);
#575=EDGE_CURVE('',#476,#462,#265,.T.);
#576=EDGE_CURVE('',#474,#476,#266,.T.);
#577=EDGE_CURVE('',#477,#458,#267,.T.);
#578=EDGE_CURVE('',#476,#477,#402,.T.);
#579=EDGE_CURVE('',#478,#461,#268,.T.);
#580=EDGE_CURVE('',#477,#478,#269,.T.);
#581=EDGE_CURVE('',#479,#477,#270,.T.);
#582=EDGE_CURVE('',#478,#480,#271,.T.);
#583=EDGE_CURVE('',#480,#479,#272,.T.);
#584=EDGE_CURVE('',#481,#476,#273,.T.);
#585=EDGE_CURVE('',#479,#481,#403,.T.);
#586=EDGE_CURVE('',#482,#474,#274,.T.);
#587=EDGE_CURVE('',#481,#482,#275,.T.);
#588=EDGE_CURVE('',#483,#475,#276,.T.);
#589=EDGE_CURVE('',#482,#483,#404,.T.);
#590=EDGE_CURVE('',#484,#485,#277,.T.);
#591=EDGE_CURVE('',#485,#475,#278,.T.);
#592=EDGE_CURVE('',#483,#484,#279,.T.);
#593=EDGE_CURVE('',#486,#487,#280,.T.);
#594=EDGE_CURVE('',#487,#485,#405,.T.);
#595=EDGE_CURVE('',#484,#486,#406,.T.);
#596=EDGE_CURVE('',#488,#489,#281,.T.);
#597=EDGE_CURVE('',#489,#487,#282,.T.);
#598=EDGE_CURVE('',#486,#488,#283,.T.);
#599=EDGE_CURVE('',#478,#489,#407,.T.);
#600=EDGE_CURVE('',#488,#480,#408,.T.);
#601=EDGE_CURVE('',#485,#468,#284,.T.);
#602=EDGE_CURVE('',#487,#470,#285,.T.);
#603=EDGE_CURVE('',#489,#472,#286,.T.);
#604=EDGE_CURVE('',#490,#490,#409,.T.);
#605=EDGE_CURVE('',#491,#491,#410,.T.);
#606=EDGE_CURVE('',#492,#492,#411,.T.);
#607=EDGE_CURVE('',#493,#493,#412,.T.);
#608=EDGE_CURVE('',#494,#495,#287,.T.);
#609=EDGE_CURVE('',#496,#494,#288,.T.);
#610=EDGE_CURVE('',#497,#496,#289,.T.);
#611=EDGE_CURVE('',#495,#497,#290,.T.);
#612=EDGE_CURVE('',#498,#498,#413,.T.);
#613=EDGE_CURVE('',#499,#499,#414,.T.);
#614=EDGE_CURVE('',#500,#500,#415,.T.);
#615=EDGE_CURVE('',#501,#501,#416,.T.);
#616=EDGE_CURVE('',#501,#490,#417,.T.);
#617=EDGE_CURVE('',#502,#502,#418,.F.);
#618=EDGE_CURVE('',#502,#501,#291,.T.);
#619=EDGE_CURVE('',#500,#503,#419,.T.);
#620=EDGE_CURVE('',#503,#504,#420,.T.);
#621=EDGE_CURVE('',#504,#503,#421,.T.);
#622=EDGE_CURVE('',#505,#505,#422,.F.);
#623=EDGE_CURVE('',#505,#504,#292,.T.);
#624=EDGE_CURVE('',#506,#506,#423,.T.);
#625=EDGE_CURVE('',#506,#499,#424,.T.);
#626=EDGE_CURVE('',#507,#507,#425,.F.);
#627=EDGE_CURVE('',#507,#506,#293,.T.);
#628=EDGE_CURVE('',#491,#508,#426,.T.);
#629=EDGE_CURVE('',#508,#509,#427,.T.);
#630=EDGE_CURVE('',#509,#508,#428,.T.);
#631=EDGE_CURVE('',#510,#510,#429,.F.);
#632=EDGE_CURVE('',#510,#509,#294,.T.);
#633=EDGE_CURVE('',#511,#512,#430,.T.);
#634=EDGE_CURVE('',#512,#492,#431,.T.);
#635=EDGE_CURVE('',#512,#511,#432,.T.);
#636=EDGE_CURVE('',#511,#513,#295,.T.);
#637=EDGE_CURVE('',#513,#513,#433,.T.);
#638=EDGE_CURVE('',#514,#515,#434,.T.);
#639=EDGE_CURVE('',#515,#498,#435,.T.);
#640=EDGE_CURVE('',#515,#514,#436,.T.);
#641=EDGE_CURVE('',#514,#516,#296,.T.);
#642=EDGE_CURVE('',#516,#516,#437,.T.);
#643=EDGE_CURVE('',#517,#518,#438,.T.);
#644=EDGE_CURVE('',#518,#493,#439,.T.);
#645=EDGE_CURVE('',#518,#517,#440,.T.);
#646=EDGE_CURVE('',#517,#519,#297,.T.);
#647=EDGE_CURVE('',#519,#519,#441,.T.);
#648=EDGE_CURVE('',#495,#520,#15,.T.);
#649=EDGE_CURVE('',#520,#521,#298,.T.);
#650=EDGE_CURVE('',#494,#521,#16,.T.);
#651=EDGE_CURVE('',#497,#522,#17,.T.);
#652=EDGE_CURVE('',#522,#520,#299,.T.);
#653=EDGE_CURVE('',#521,#523,#300,.T.);
#654=EDGE_CURVE('',#523,#496,#18,.T.);
#655=EDGE_CURVE('',#523,#522,#301,.T.);
#656=EDGE_CURVE('',#524,#521,#302,.F.);
#657=EDGE_CURVE('',#525,#524,#303,.T.);
#658=EDGE_CURVE('',#525,#523,#304,.T.);
#659=EDGE_CURVE('',#526,#520,#305,.T.);
#660=EDGE_CURVE('',#524,#526,#306,.T.);
#661=EDGE_CURVE('',#527,#522,#307,.T.);
#662=EDGE_CURVE('',#526,#527,#308,.T.);
#663=EDGE_CURVE('',#527,#525,#309,.T.);
#664=EDGE_CURVE('',#528,#528,#442,.F.);
#665=EDGE_CURVE('',#529,#529,#443,.F.);
#666=EDGE_CURVE('',#530,#530,#444,.T.);
#667=EDGE_CURVE('',#530,#528,#310,.T.);
#668=EDGE_CURVE('',#531,#531,#445,.T.);
#669=EDGE_CURVE('',#531,#529,#311,.T.);
#670=ORIENTED_EDGE('',*,*,#532,.F.);
#671=ORIENTED_EDGE('',*,*,#533,.T.);
#672=ORIENTED_EDGE('',*,*,#533,.F.);
#673=ORIENTED_EDGE('',*,*,#534,.F.);
#674=ORIENTED_EDGE('',*,*,#535,.T.);
#675=ORIENTED_EDGE('',*,*,#532,.T.);
#676=ORIENTED_EDGE('',*,*,#535,.F.);
#677=ORIENTED_EDGE('',*,*,#536,.F.);
#678=ORIENTED_EDGE('',*,*,#537,.T.);
#679=ORIENTED_EDGE('',*,*,#537,.F.);
#680=ORIENTED_EDGE('',*,*,#538,.F.);
#681=ORIENTED_EDGE('',*,*,#539,.T.);
#682=ORIENTED_EDGE('',*,*,#536,.T.);
#683=ORIENTED_EDGE('',*,*,#539,.F.);
#684=ORIENTED_EDGE('',*,*,#540,.F.);
#685=ORIENTED_EDGE('',*,*,#541,.T.);
#686=ORIENTED_EDGE('',*,*,#541,.F.);
#687=ORIENTED_EDGE('',*,*,#542,.F.);
#688=ORIENTED_EDGE('',*,*,#543,.T.);
#689=ORIENTED_EDGE('',*,*,#540,.T.);
#690=ORIENTED_EDGE('',*,*,#543,.F.);
#691=ORIENTED_EDGE('',*,*,#544,.F.);
#692=ORIENTED_EDGE('',*,*,#545,.T.);
#693=ORIENTED_EDGE('',*,*,#545,.F.);
#694=ORIENTED_EDGE('',*,*,#546,.F.);
#695=ORIENTED_EDGE('',*,*,#547,.T.);
#696=ORIENTED_EDGE('',*,*,#544,.T.);
#697=ORIENTED_EDGE('',*,*,#547,.F.);
#698=ORIENTED_EDGE('',*,*,#548,.T.);
#699=ORIENTED_EDGE('',*,*,#549,.T.);
#700=ORIENTED_EDGE('',*,*,#550,.T.);
#701=ORIENTED_EDGE('',*,*,#551,.T.);
#702=ORIENTED_EDGE('',*,*,#552,.T.);
#703=ORIENTED_EDGE('',*,*,#553,.T.);
#704=ORIENTED_EDGE('',*,*,#548,.F.);
#705=ORIENTED_EDGE('',*,*,#554,.T.);
#706=ORIENTED_EDGE('',*,*,#555,.T.);
#707=ORIENTED_EDGE('',*,*,#556,.T.);
#708=ORIENTED_EDGE('',*,*,#552,.F.);
#709=ORIENTED_EDGE('',*,*,#557,.T.);
#710=ORIENTED_EDGE('',*,*,#558,.T.);
#711=ORIENTED_EDGE('',*,*,#559,.T.);
#712=ORIENTED_EDGE('',*,*,#555,.F.);
#713=ORIENTED_EDGE('',*,*,#560,.T.);
#714=ORIENTED_EDGE('',*,*,#561,.T.);
#715=ORIENTED_EDGE('',*,*,#562,.T.);
#716=ORIENTED_EDGE('',*,*,#558,.F.);
#717=ORIENTED_EDGE('',*,*,#563,.T.);
#718=ORIENTED_EDGE('',*,*,#564,.T.);
#719=ORIENTED_EDGE('',*,*,#565,.T.);
#720=ORIENTED_EDGE('',*,*,#561,.F.);
#721=ORIENTED_EDGE('',*,*,#566,.T.);
#722=ORIENTED_EDGE('',*,*,#567,.T.);
#723=ORIENTED_EDGE('',*,*,#568,.T.);
#724=ORIENTED_EDGE('',*,*,#564,.F.);
#725=ORIENTED_EDGE('',*,*,#569,.T.);
#726=ORIENTED_EDGE('',*,*,#550,.F.);
#727=ORIENTED_EDGE('',*,*,#570,.T.);
#728=ORIENTED_EDGE('',*,*,#567,.F.);
#729=ORIENTED_EDGE('',*,*,#571,.T.);
#730=ORIENTED_EDGE('',*,*,#560,.F.);
#731=ORIENTED_EDGE('',*,*,#572,.F.);
#732=ORIENTED_EDGE('',*,*,#573,.F.);
#733=ORIENTED_EDGE('',*,*,#574,.T.);
#734=ORIENTED_EDGE('',*,*,#557,.F.);
#735=ORIENTED_EDGE('',*,*,#575,.F.);
#736=ORIENTED_EDGE('',*,*,#576,.F.);
#737=ORIENTED_EDGE('',*,*,#572,.T.);
#738=ORIENTED_EDGE('',*,*,#554,.F.);
#739=ORIENTED_EDGE('',*,*,#577,.F.);
#740=ORIENTED_EDGE('',*,*,#578,.F.);
#741=ORIENTED_EDGE('',*,*,#575,.T.);
#742=ORIENTED_EDGE('',*,*,#551,.F.);
#743=ORIENTED_EDGE('',*,*,#579,.F.);
#744=ORIENTED_EDGE('',*,*,#580,.F.);
#745=ORIENTED_EDGE('',*,*,#577,.T.);
#746=ORIENTED_EDGE('',*,*,#549,.F.);
#747=ORIENTED_EDGE('',*,*,#553,.F.);
#748=ORIENTED_EDGE('',*,*,#556,.F.);
#749=ORIENTED_EDGE('',*,*,#559,.F.);
#750=ORIENTED_EDGE('',*,*,#562,.F.);
#751=ORIENTED_EDGE('',*,*,#565,.F.);
#752=ORIENTED_EDGE('',*,*,#568,.F.);
#753=ORIENTED_EDGE('',*,*,#570,.F.);
#754=ORIENTED_EDGE('',*,*,#581,.T.);
#755=ORIENTED_EDGE('',*,*,#580,.T.);
#756=ORIENTED_EDGE('',*,*,#582,.T.);
#757=ORIENTED_EDGE('',*,*,#583,.T.);
#758=ORIENTED_EDGE('',*,*,#584,.T.);
#759=ORIENTED_EDGE('',*,*,#578,.T.);
#760=ORIENTED_EDGE('',*,*,#581,.F.);
#761=ORIENTED_EDGE('',*,*,#585,.T.);
#762=ORIENTED_EDGE('',*,*,#586,.T.);
#763=ORIENTED_EDGE('',*,*,#576,.T.);
#764=ORIENTED_EDGE('',*,*,#584,.F.);
#765=ORIENTED_EDGE('',*,*,#587,.T.);
#766=ORIENTED_EDGE('',*,*,#588,.T.);
#767=ORIENTED_EDGE('',*,*,#573,.T.);
#768=ORIENTED_EDGE('',*,*,#586,.F.);
#769=ORIENTED_EDGE('',*,*,#589,.T.);
#770=ORIENTED_EDGE('',*,*,#590,.T.);
#771=ORIENTED_EDGE('',*,*,#591,.T.);
#772=ORIENTED_EDGE('',*,*,#588,.F.);
#773=ORIENTED_EDGE('',*,*,#592,.T.);
#774=ORIENTED_EDGE('',*,*,#593,.T.);
#775=ORIENTED_EDGE('',*,*,#594,.T.);
#776=ORIENTED_EDGE('',*,*,#590,.F.);
#777=ORIENTED_EDGE('',*,*,#595,.T.);
#778=ORIENTED_EDGE('',*,*,#596,.T.);
#779=ORIENTED_EDGE('',*,*,#597,.T.);
#780=ORIENTED_EDGE('',*,*,#593,.F.);
#781=ORIENTED_EDGE('',*,*,#598,.T.);
#782=ORIENTED_EDGE('',*,*,#582,.F.);
#783=ORIENTED_EDGE('',*,*,#599,.T.);
#784=ORIENTED_EDGE('',*,*,#596,.F.);
#785=ORIENTED_EDGE('',*,*,#600,.T.);
#786=ORIENTED_EDGE('',*,*,#566,.F.);
#787=ORIENTED_EDGE('',*,*,#601,.F.);
#788=ORIENTED_EDGE('',*,*,#594,.F.);
#789=ORIENTED_EDGE('',*,*,#602,.T.);
#790=ORIENTED_EDGE('',*,*,#569,.F.);
#791=ORIENTED_EDGE('',*,*,#602,.F.);
#792=ORIENTED_EDGE('',*,*,#597,.F.);
#793=ORIENTED_EDGE('',*,*,#603,.T.);
#794=ORIENTED_EDGE('',*,*,#571,.F.);
#795=ORIENTED_EDGE('',*,*,#603,.F.);
#796=ORIENTED_EDGE('',*,*,#599,.F.);
#797=ORIENTED_EDGE('',*,*,#579,.T.);
#798=ORIENTED_EDGE('',*,*,#583,.F.);
#799=ORIENTED_EDGE('',*,*,#600,.F.);
#800=ORIENTED_EDGE('',*,*,#598,.F.);
#801=ORIENTED_EDGE('',*,*,#595,.F.);
#802=ORIENTED_EDGE('',*,*,#592,.F.);
#803=ORIENTED_EDGE('',*,*,#589,.F.);
#804=ORIENTED_EDGE('',*,*,#587,.F.);
#805=ORIENTED_EDGE('',*,*,#585,.F.);
#806=ORIENTED_EDGE('',*,*,#604,.F.);
#807=ORIENTED_EDGE('',*,*,#605,.F.);
#808=ORIENTED_EDGE('',*,*,#606,.F.);
#809=ORIENTED_EDGE('',*,*,#607,.F.);
#810=ORIENTED_EDGE('',*,*,#608,.F.);
#811=ORIENTED_EDGE('',*,*,#609,.F.);
#812=ORIENTED_EDGE('',*,*,#610,.F.);
#813=ORIENTED_EDGE('',*,*,#611,.F.);
#814=ORIENTED_EDGE('',*,*,#612,.F.);
#815=ORIENTED_EDGE('',*,*,#613,.F.);
#816=ORIENTED_EDGE('',*,*,#614,.F.);
#817=ORIENTED_EDGE('',*,*,#615,.T.);
#818=ORIENTED_EDGE('',*,*,#616,.T.);
#819=ORIENTED_EDGE('',*,*,#604,.T.);
#820=ORIENTED_EDGE('',*,*,#616,.F.);
#821=ORIENTED_EDGE('',*,*,#617,.F.);
#822=ORIENTED_EDGE('',*,*,#618,.T.);
#823=ORIENTED_EDGE('',*,*,#615,.F.);
#824=ORIENTED_EDGE('',*,*,#618,.F.);
#825=ORIENTED_EDGE('',*,*,#614,.T.);
#826=ORIENTED_EDGE('',*,*,#619,.T.);
#827=ORIENTED_EDGE('',*,*,#620,.T.);
#828=ORIENTED_EDGE('',*,*,#621,.T.);
#829=ORIENTED_EDGE('',*,*,#619,.F.);
#830=ORIENTED_EDGE('',*,*,#622,.F.);
#831=ORIENTED_EDGE('',*,*,#623,.T.);
#832=ORIENTED_EDGE('',*,*,#620,.F.);
#833=ORIENTED_EDGE('',*,*,#621,.F.);
#834=ORIENTED_EDGE('',*,*,#623,.F.);
#835=ORIENTED_EDGE('',*,*,#624,.T.);
#836=ORIENTED_EDGE('',*,*,#625,.T.);
#837=ORIENTED_EDGE('',*,*,#613,.T.);
#838=ORIENTED_EDGE('',*,*,#625,.F.);
#839=ORIENTED_EDGE('',*,*,#626,.F.);
#840=ORIENTED_EDGE('',*,*,#627,.T.);
#841=ORIENTED_EDGE('',*,*,#624,.F.);
#842=ORIENTED_EDGE('',*,*,#627,.F.);
#843=ORIENTED_EDGE('',*,*,#605,.T.);
#844=ORIENTED_EDGE('',*,*,#628,.T.);
#845=ORIENTED_EDGE('',*,*,#629,.T.);
#846=ORIENTED_EDGE('',*,*,#630,.T.);
#847=ORIENTED_EDGE('',*,*,#628,.F.);
#848=ORIENTED_EDGE('',*,*,#631,.F.);
#849=ORIENTED_EDGE('',*,*,#632,.T.);
#850=ORIENTED_EDGE('',*,*,#629,.F.);
#851=ORIENTED_EDGE('',*,*,#630,.F.);
#852=ORIENTED_EDGE('',*,*,#632,.F.);
#853=ORIENTED_EDGE('',*,*,#633,.T.);
#854=ORIENTED_EDGE('',*,*,#634,.T.);
#855=ORIENTED_EDGE('',*,*,#606,.T.);
#856=ORIENTED_EDGE('',*,*,#634,.F.);
#857=ORIENTED_EDGE('',*,*,#635,.T.);
#858=ORIENTED_EDGE('',*,*,#633,.F.);
#859=ORIENTED_EDGE('',*,*,#636,.T.);
#860=ORIENTED_EDGE('',*,*,#637,.T.);
#861=ORIENTED_EDGE('',*,*,#636,.F.);
#862=ORIENTED_EDGE('',*,*,#635,.F.);
#863=ORIENTED_EDGE('',*,*,#638,.T.);
#864=ORIENTED_EDGE('',*,*,#639,.T.);
#865=ORIENTED_EDGE('',*,*,#612,.T.);
#866=ORIENTED_EDGE('',*,*,#639,.F.);
#867=ORIENTED_EDGE('',*,*,#640,.T.);
#868=ORIENTED_EDGE('',*,*,#638,.F.);
#869=ORIENTED_EDGE('',*,*,#641,.T.);
#870=ORIENTED_EDGE('',*,*,#642,.T.);
#871=ORIENTED_EDGE('',*,*,#641,.F.);
#872=ORIENTED_EDGE('',*,*,#640,.F.);
#873=ORIENTED_EDGE('',*,*,#643,.T.);
#874=ORIENTED_EDGE('',*,*,#644,.T.);
#875=ORIENTED_EDGE('',*,*,#607,.T.);
#876=ORIENTED_EDGE('',*,*,#644,.F.);
#877=ORIENTED_EDGE('',*,*,#645,.T.);
#878=ORIENTED_EDGE('',*,*,#643,.F.);
#879=ORIENTED_EDGE('',*,*,#646,.T.);
#880=ORIENTED_EDGE('',*,*,#647,.T.);
#881=ORIENTED_EDGE('',*,*,#646,.F.);
#882=ORIENTED_EDGE('',*,*,#645,.F.);
#883=ORIENTED_EDGE('',*,*,#608,.T.);
#884=ORIENTED_EDGE('',*,*,#648,.T.);
#885=ORIENTED_EDGE('',*,*,#649,.T.);
#886=ORIENTED_EDGE('',*,*,#650,.F.);
#887=ORIENTED_EDGE('',*,*,#611,.T.);
#888=ORIENTED_EDGE('',*,*,#651,.T.);
#889=ORIENTED_EDGE('',*,*,#652,.T.);
#890=ORIENTED_EDGE('',*,*,#648,.F.);
#891=ORIENTED_EDGE('',*,*,#653,.T.);
#892=ORIENTED_EDGE('',*,*,#654,.T.);
#893=ORIENTED_EDGE('',*,*,#609,.T.);
#894=ORIENTED_EDGE('',*,*,#650,.T.);
#895=ORIENTED_EDGE('',*,*,#610,.T.);
#896=ORIENTED_EDGE('',*,*,#654,.F.);
#897=ORIENTED_EDGE('',*,*,#655,.T.);
#898=ORIENTED_EDGE('',*,*,#651,.F.);
#899=ORIENTED_EDGE('',*,*,#653,.F.);
#900=ORIENTED_EDGE('',*,*,#656,.F.);
#901=ORIENTED_EDGE('',*,*,#657,.F.);
#902=ORIENTED_EDGE('',*,*,#658,.T.);
#903=ORIENTED_EDGE('',*,*,#649,.F.);
#904=ORIENTED_EDGE('',*,*,#659,.F.);
#905=ORIENTED_EDGE('',*,*,#660,.F.);
#906=ORIENTED_EDGE('',*,*,#656,.T.);
#907=ORIENTED_EDGE('',*,*,#647,.F.);
#908=ORIENTED_EDGE('',*,*,#642,.F.);
#909=ORIENTED_EDGE('',*,*,#637,.F.);
#910=ORIENTED_EDGE('',*,*,#652,.F.);
#911=ORIENTED_EDGE('',*,*,#661,.F.);
#912=ORIENTED_EDGE('',*,*,#662,.F.);
#913=ORIENTED_EDGE('',*,*,#659,.T.);
#914=ORIENTED_EDGE('',*,*,#655,.F.);
#915=ORIENTED_EDGE('',*,*,#658,.F.);
#916=ORIENTED_EDGE('',*,*,#663,.F.);
#917=ORIENTED_EDGE('',*,*,#661,.T.);
#918=ORIENTED_EDGE('',*,*,#663,.T.);
#919=ORIENTED_EDGE('',*,*,#657,.T.);
#920=ORIENTED_EDGE('',*,*,#660,.T.);
#921=ORIENTED_EDGE('',*,*,#662,.T.);
#922=ORIENTED_EDGE('',*,*,#664,.F.);
#923=ORIENTED_EDGE('',*,*,#546,.T.);
#924=ORIENTED_EDGE('',*,*,#665,.F.);
#925=ORIENTED_EDGE('',*,*,#534,.T.);
#926=ORIENTED_EDGE('',*,*,#622,.T.);
#927=ORIENTED_EDGE('',*,*,#542,.T.);
#928=ORIENTED_EDGE('',*,*,#666,.F.);
#929=ORIENTED_EDGE('',*,*,#667,.T.);
#930=ORIENTED_EDGE('',*,*,#664,.T.);
#931=ORIENTED_EDGE('',*,*,#667,.F.);
#932=ORIENTED_EDGE('',*,*,#631,.T.);
#933=ORIENTED_EDGE('',*,*,#666,.T.);
#934=ORIENTED_EDGE('',*,*,#617,.T.);
#935=ORIENTED_EDGE('',*,*,#538,.T.);
#936=ORIENTED_EDGE('',*,*,#668,.F.);
#937=ORIENTED_EDGE('',*,*,#669,.T.);
#938=ORIENTED_EDGE('',*,*,#665,.T.);
#939=ORIENTED_EDGE('',*,*,#669,.F.);
#940=ORIENTED_EDGE('',*,*,#626,.T.);
#941=ORIENTED_EDGE('',*,*,#668,.T.);
#942=ORIENTED_EDGE('',*,*,#563,.F.);
#943=ORIENTED_EDGE('',*,*,#574,.F.);
#944=ORIENTED_EDGE('',*,*,#591,.F.);
#945=ORIENTED_EDGE('',*,*,#601,.T.);
#946=CONICAL_SURFACE('',#1028,0.63225,1.02974425867665);
#947=CONICAL_SURFACE('',#1032,0.63225,1.02974425867665);
#948=CONICAL_SURFACE('',#1036,0.63225,1.02974425867665);
#949=CONICAL_SURFACE('',#1040,0.63225,1.02974425867665);
#950=CONICAL_SURFACE('',#1045,3.90000042591003,0.785398163397453);
#951=CONICAL_SURFACE('',#1049,3.90000042591002,0.785398163397448);
#952=CONICAL_SURFACE('',#1053,3.90000042591001,0.785398163397484);
#953=CONICAL_SURFACE('',#1057,3.90000042591006,0.785398163397493);
#954=CONICAL_SURFACE('',#1068,3.90000042591003,0.785398163397447);
#955=CONICAL_SURFACE('',#1071,3.90000042591002,0.785398163397451);
#956=CONICAL_SURFACE('',#1074,3.90000042591001,0.785398163397485);
#957=CONICAL_SURFACE('',#1078,3.90000042591006,0.785398163397484);
#958=ADVANCED_FACE('',(#89),#946,.F.);
#959=ADVANCED_FACE('',(#90),#68,.F.);
#960=ADVANCED_FACE('',(#91),#947,.F.);
#961=ADVANCED_FACE('',(#92),#69,.F.);
#962=ADVANCED_FACE('',(#93),#948,.F.);
#963=ADVANCED_FACE('',(#94),#70,.F.);
#964=ADVANCED_FACE('',(#95),#949,.F.);
#965=ADVANCED_FACE('',(#96),#71,.F.);
#966=ADVANCED_FACE('',(#97),#40,.T.);
#967=ADVANCED_FACE('',(#98),#950,.T.);
#968=ADVANCED_FACE('',(#99),#41,.T.);
#969=ADVANCED_FACE('',(#100),#951,.T.);
#970=ADVANCED_FACE('',(#101),#42,.T.);
#971=ADVANCED_FACE('',(#102),#952,.T.);
#972=ADVANCED_FACE('',(#103),#43,.T.);
#973=ADVANCED_FACE('',(#104),#953,.T.);
#974=ADVANCED_FACE('',(#105),#72,.T.);
#975=ADVANCED_FACE('',(#106),#44,.T.);
#976=ADVANCED_FACE('',(#107),#73,.T.);
#977=ADVANCED_FACE('',(#108),#45,.T.);
#978=ADVANCED_FACE('',(#109),#46,.T.);
#979=ADVANCED_FACE('',(#110),#47,.T.);
#980=ADVANCED_FACE('',(#111),#954,.T.);
#981=ADVANCED_FACE('',(#112),#48,.T.);
#982=ADVANCED_FACE('',(#113),#955,.T.);
#983=ADVANCED_FACE('',(#114),#49,.T.);
#984=ADVANCED_FACE('',(#115),#956,.T.);
#985=ADVANCED_FACE('',(#116),#50,.T.);
#986=ADVANCED_FACE('',(#117),#957,.T.);
#987=ADVANCED_FACE('',(#118),#74,.T.);
#988=ADVANCED_FACE('',(#119),#51,.T.);
#989=ADVANCED_FACE('',(#120),#75,.T.);
#990=ADVANCED_FACE('',(#121,#26,#27,#28,#29,#30,#31,#32,#33),#52,.F.);
#991=ADVANCED_FACE('',(#122),#19,.F.);
#992=ADVANCED_FACE('',(#123),#76,.T.);
#993=ADVANCED_FACE('',(#124),#20,.F.);
#994=ADVANCED_FACE('',(#125),#77,.T.);
#995=ADVANCED_FACE('',(#126),#21,.F.);
#996=ADVANCED_FACE('',(#127),#78,.T.);
#997=ADVANCED_FACE('',(#128),#22,.F.);
#998=ADVANCED_FACE('',(#129),#79,.T.);
#999=ADVANCED_FACE('',(#130),#23,.F.);
#1000=ADVANCED_FACE('',(#131),#80,.T.);
#1001=ADVANCED_FACE('',(#132),#24,.F.);
#1002=ADVANCED_FACE('',(#133),#81,.T.);
#1003=ADVANCED_FACE('',(#134),#25,.F.);
#1004=ADVANCED_FACE('',(#135),#82,.T.);
#1005=ADVANCED_FACE('',(#136),#83,.F.);
#1006=ADVANCED_FACE('',(#137),#84,.F.);
#1007=ADVANCED_FACE('',(#138),#85,.F.);
#1008=ADVANCED_FACE('',(#139),#86,.F.);
#1009=ADVANCED_FACE('',(#140),#53,.T.);
#1010=ADVANCED_FACE('',(#141),#54,.T.);
#1011=ADVANCED_FACE('',(#142),#55,.F.);
#1012=ADVANCED_FACE('',(#143),#56,.F.);
#1013=ADVANCED_FACE('',(#144),#57,.F.);
#1014=ADVANCED_FACE('',(#145),#58,.T.);
#1015=ADVANCED_FACE('',(#146),#59,.T.);
#1016=ADVANCED_FACE('',(#147),#60,.F.);
#1017=ADVANCED_FACE('',(#148,#34),#61,.F.);
#1018=ADVANCED_FACE('',(#149,#35),#62,.F.);
#1019=ADVANCED_FACE('',(#150,#36),#63,.T.);
#1020=ADVANCED_FACE('',(#151),#87,.F.);
#1021=ADVANCED_FACE('',(#152,#37),#64,.T.);
#1022=ADVANCED_FACE('',(#153,#38),#65,.T.);
#1023=ADVANCED_FACE('',(#154),#88,.F.);
#1024=ADVANCED_FACE('',(#155,#39),#66,.T.);
#1025=ADVANCED_FACE('',(#156),#67,.T.);
#1026=CLOSED_SHELL('',(#958,#959,#960,#961,#962,#963,#964,#965,#966,#967,
#968,#969,#970,#971,#972,#973,#974,#975,#976,#977,#978,#979,#980,#981,#982,
#983,#984,#985,#986,#987,#988,#989,#990,#991,#992,#993,#994,#995,#996,#997,
#998,#999,#1000,#1001,#1002,#1003,#1004,#1005,#1006,#1007,#1008,#1009,#1010,
#1011,#1012,#1013,#1014,#1015,#1016,#1017,#1018,#1019,#1020,#1021,#1022,
#1023,#1024,#1025));
#1027=AXIS2_PLACEMENT_3D('',#1502,#1161,#1162);
#1028=AXIS2_PLACEMENT_3D('',#1503,#1163,#1164);
#1029=AXIS2_PLACEMENT_3D('',#1505,#1165,#1166);
#1030=AXIS2_PLACEMENT_3D('',#1508,#1168,#1169);
#1031=AXIS2_PLACEMENT_3D('',#1510,#1170,#1171);
#1032=AXIS2_PLACEMENT_3D('',#1512,#1173,#1174);
#1033=AXIS2_PLACEMENT_3D('',#1514,#1175,#1176);
#1034=AXIS2_PLACEMENT_3D('',#1517,#1178,#1179);
#1035=AXIS2_PLACEMENT_3D('',#1519,#1180,#1181);
#1036=AXIS2_PLACEMENT_3D('',#1521,#1183,#1184);
#1037=AXIS2_PLACEMENT_3D('',#1523,#1185,#1186);
#1038=AXIS2_PLACEMENT_3D('',#1526,#1188,#1189);
#1039=AXIS2_PLACEMENT_3D('',#1528,#1190,#1191);
#1040=AXIS2_PLACEMENT_3D('',#1530,#1193,#1194);
#1041=AXIS2_PLACEMENT_3D('',#1532,#1195,#1196);
#1042=AXIS2_PLACEMENT_3D('',#1535,#1198,#1199);
#1043=AXIS2_PLACEMENT_3D('',#1537,#1200,#1201);
#1044=AXIS2_PLACEMENT_3D('',#1539,#1203,#1204);
#1045=AXIS2_PLACEMENT_3D('',#1548,#1209,#1210);
#1046=AXIS2_PLACEMENT_3D('',#1552,#1212,#1213);
#1047=AXIS2_PLACEMENT_3D('',#1553,#1214,#1215);
#1048=AXIS2_PLACEMENT_3D('',#1554,#1216,#1217);
#1049=AXIS2_PLACEMENT_3D('',#1560,#1221,#1222);
#1050=AXIS2_PLACEMENT_3D('',#1564,#1224,#1225);
#1051=AXIS2_PLACEMENT_3D('',#1565,#1226,#1227);
#1052=AXIS2_PLACEMENT_3D('',#1566,#1228,#1229);
#1053=AXIS2_PLACEMENT_3D('',#1572,#1233,#1234);
#1054=AXIS2_PLACEMENT_3D('',#1576,#1236,#1237);
#1055=AXIS2_PLACEMENT_3D('',#1577,#1238,#1239);
#1056=AXIS2_PLACEMENT_3D('',#1578,#1240,#1241);
#1057=AXIS2_PLACEMENT_3D('',#1584,#1245,#1246);
#1058=AXIS2_PLACEMENT_3D('',#1585,#1247,#1248);
#1059=AXIS2_PLACEMENT_3D('',#1586,#1249,#1250);
#1060=AXIS2_PLACEMENT_3D('',#1587,#1251,#1252);
#1061=AXIS2_PLACEMENT_3D('',#1591,#1254,#1255);
#1062=AXIS2_PLACEMENT_3D('',#1593,#1257,#1258);
#1063=AXIS2_PLACEMENT_3D('',#1597,#1261,#1262);
#1064=AXIS2_PLACEMENT_3D('',#1600,#1264,#1265);
#1065=AXIS2_PLACEMENT_3D('',#1601,#1266,#1267);
#1066=AXIS2_PLACEMENT_3D('',#1605,#1270,#1271);
#1067=AXIS2_PLACEMENT_3D('',#1606,#1272,#1273);
#1068=AXIS2_PLACEMENT_3D('',#1612,#1277,#1278);
#1069=AXIS2_PLACEMENT_3D('',#1615,#1280,#1281);
#1070=AXIS2_PLACEMENT_3D('',#1616,#1282,#1283);
#1071=AXIS2_PLACEMENT_3D('',#1620,#1286,#1287);
#1072=AXIS2_PLACEMENT_3D('',#1623,#1289,#1290);
#1073=AXIS2_PLACEMENT_3D('',#1624,#1291,#1292);
#1074=AXIS2_PLACEMENT_3D('',#1630,#1296,#1297);
#1075=AXIS2_PLACEMENT_3D('',#1634,#1299,#1300);
#1076=AXIS2_PLACEMENT_3D('',#1635,#1301,#1302);
#1077=AXIS2_PLACEMENT_3D('',#1636,#1303,#1304);
#1078=AXIS2_PLACEMENT_3D('',#1642,#1308,#1309);
#1079=AXIS2_PLACEMENT_3D('',#1643,#1310,#1311);
#1080=AXIS2_PLACEMENT_3D('',#1644,#1312,#1313);
#1081=AXIS2_PLACEMENT_3D('',#1645,#1314,#1315);
#1082=AXIS2_PLACEMENT_3D('',#1648,#1318,#1319);
#1083=AXIS2_PLACEMENT_3D('',#1650,#1321,#1322);
#1084=AXIS2_PLACEMENT_3D('',#1651,#1323,#1324);
#1085=AXIS2_PLACEMENT_3D('',#1653,#1325,#1326);
#1086=AXIS2_PLACEMENT_3D('',#1655,#1327,#1328);
#1087=AXIS2_PLACEMENT_3D('',#1657,#1329,#1330);
#1088=AXIS2_PLACEMENT_3D('',#1659,#1331,#1332);
#1089=AXIS2_PLACEMENT_3D('',#1669,#1337,#1338);
#1090=AXIS2_PLACEMENT_3D('',#1671,#1339,#1340);
#1091=AXIS2_PLACEMENT_3D('',#1673,#1341,#1342);
#1092=AXIS2_PLACEMENT_3D('',#1674,#1343,#1344);
#1093=AXIS2_PLACEMENT_3D('',#1676,#1345,#1346);
#1094=AXIS2_PLACEMENT_3D('',#1677,#1347,#1348);
#1095=AXIS2_PLACEMENT_3D('',#1678,#1349,#1350);
#1096=AXIS2_PLACEMENT_3D('',#1680,#1351,#1352);
#1097=AXIS2_PLACEMENT_3D('',#1682,#1354,#1355);
#1098=AXIS2_PLACEMENT_3D('',#1684,#1356,#1357);
#1099=AXIS2_PLACEMENT_3D('',#1686,#1358,#1359);
#1100=AXIS2_PLACEMENT_3D('',#1687,#1360,#1361);
#1101=AXIS2_PLACEMENT_3D('',#1688,#1362,#1363);
#1102=AXIS2_PLACEMENT_3D('',#1690,#1364,#1365);
#1103=AXIS2_PLACEMENT_3D('',#1692,#1367,#1368);
#1104=AXIS2_PLACEMENT_3D('',#1694,#1369,#1370);
#1105=AXIS2_PLACEMENT_3D('',#1695,#1371,#1372);
#1106=AXIS2_PLACEMENT_3D('',#1696,#1373,#1374);
#1107=AXIS2_PLACEMENT_3D('',#1698,#1375,#1376);
#1108=AXIS2_PLACEMENT_3D('',#1700,#1378,#1379);
#1109=AXIS2_PLACEMENT_3D('',#1702,#1380,#1381);
#1110=AXIS2_PLACEMENT_3D('',#1704,#1382,#1383);
#1111=AXIS2_PLACEMENT_3D('',#1705,#1384,#1385);
#1112=AXIS2_PLACEMENT_3D('',#1706,#1386,#1387);
#1113=AXIS2_PLACEMENT_3D('',#1708,#1388,#1389);
#1114=AXIS2_PLACEMENT_3D('',#1710,#1391,#1392);
#1115=AXIS2_PLACEMENT_3D('',#1713,#1393,#1394);
#1116=AXIS2_PLACEMENT_3D('',#1714,#1395,#1396);
#1117=AXIS2_PLACEMENT_3D('',#1715,#1397,#1398);
#1118=AXIS2_PLACEMENT_3D('',#1716,#1399,#1400);
#1119=AXIS2_PLACEMENT_3D('',#1719,#1402,#1403);
#1120=AXIS2_PLACEMENT_3D('',#1720,#1404,#1405);
#1121=AXIS2_PLACEMENT_3D('',#1723,#1406,#1407);
#1122=AXIS2_PLACEMENT_3D('',#1724,#1408,#1409);
#1123=AXIS2_PLACEMENT_3D('',#1725,#1410,#1411);
#1124=AXIS2_PLACEMENT_3D('',#1726,#1412,#1413);
#1125=AXIS2_PLACEMENT_3D('',#1729,#1415,#1416);
#1126=AXIS2_PLACEMENT_3D('',#1730,#1417,#1418);
#1127=AXIS2_PLACEMENT_3D('',#1733,#1419,#1420);
#1128=AXIS2_PLACEMENT_3D('',#1734,#1421,#1422);
#1129=AXIS2_PLACEMENT_3D('',#1735,#1423,#1424);
#1130=AXIS2_PLACEMENT_3D('',#1736,#1425,#1426);
#1131=AXIS2_PLACEMENT_3D('',#1739,#1428,#1429);
#1132=AXIS2_PLACEMENT_3D('',#1740,#1430,#1431);
#1133=AXIS2_PLACEMENT_3D('',#1742,#1432,#1433);
#1134=AXIS2_PLACEMENT_3D('',#1745,#1435,#1436);
#1135=AXIS2_PLACEMENT_3D('',#1746,#1437,#1438);
#1136=AXIS2_PLACEMENT_3D('',#1748,#1439,#1440);
#1137=AXIS2_PLACEMENT_3D('',#1750,#1442,#1443);
#1138=AXIS2_PLACEMENT_3D('',#1753,#1445,#1446);
#1139=AXIS2_PLACEMENT_3D('',#1754,#1447,#1448);
#1140=AXIS2_PLACEMENT_3D('',#1756,#1450,#1451);
#1141=AXIS2_PLACEMENT_3D('',#1762,#1455,#1456);
#1142=AXIS2_PLACEMENT_3D('',#1766,#1459,#1460);
#1143=AXIS2_PLACEMENT_3D('',#1767,#1461,#1462);
#1144=AXIS2_PLACEMENT_3D('',#1768,#1463,#1464);
#1145=AXIS2_PLACEMENT_3D('',#1769,#1465,#1466);
#1146=AXIS2_PLACEMENT_3D('',#1773,#1469,#1470);
#1147=AXIS2_PLACEMENT_3D('',#1775,#1472,#1473);
#1148=AXIS2_PLACEMENT_3D('',#1776,#1474,#1475);
#1149=AXIS2_PLACEMENT_3D('',#1778,#1476,#1477);
#1150=AXIS2_PLACEMENT_3D('',#1779,#1478,#1479);
#1151=AXIS2_PLACEMENT_3D('',#1781,#1480,#1481);
#1152=AXIS2_PLACEMENT_3D('',#1782,#1482,#1483);
#1153=AXIS2_PLACEMENT_3D('',#1783,#1484,#1485);
#1154=AXIS2_PLACEMENT_3D('',#1785,#1486,#1487);
#1155=AXIS2_PLACEMENT_3D('',#1787,#1489,#1490);
#1156=AXIS2_PLACEMENT_3D('',#1788,#1491,#1492);
#1157=AXIS2_PLACEMENT_3D('',#1789,#1493,#1494);
#1158=AXIS2_PLACEMENT_3D('',#1791,#1495,#1496);
#1159=AXIS2_PLACEMENT_3D('',#1793,#1498,#1499);
#1160=AXIS2_PLACEMENT_3D('',#1794,#1500,#1501);
#1161=DIRECTION('axis',(0.,0.,1.));
#1162=DIRECTION('refdir',(1.,0.,0.));
#1163=DIRECTION('center_axis',(0.,0.,1.));
#1164=DIRECTION('ref_axis',(1.,0.,0.));
#1165=DIRECTION('center_axis',(0.,0.,-1.));
#1166=DIRECTION('ref_axis',(1.,0.,0.));
#1167=DIRECTION('',(0.857167300702112,-1.04972719113862E-16,-0.515038074910054));
#1168=DIRECTION('center_axis',(0.,0.,-1.));
#1169=DIRECTION('ref_axis',(1.,0.,0.));
#1170=DIRECTION('center_axis',(-1.67384950414425E-33,-1.224646799147E-16,
-1.));
#1171=DIRECTION('ref_axis',(1.,0.,0.));
#1172=DIRECTION('',(0.,0.,-1.));
#1173=DIRECTION('center_axis',(0.,0.,1.));
#1174=DIRECTION('ref_axis',(1.,0.,0.));
#1175=DIRECTION('center_axis',(0.,0.,-1.));
#1176=DIRECTION('ref_axis',(1.,0.,0.));
#1177=DIRECTION('',(0.857167300702112,-1.04972719113862E-16,-0.515038074910054));
#1178=DIRECTION('center_axis',(0.,0.,-1.));
#1179=DIRECTION('ref_axis',(1.,0.,0.));
#1180=DIRECTION('center_axis',(0.,0.,-1.));
#1181=DIRECTION('ref_axis',(1.,0.,0.));
#1182=DIRECTION('',(0.,0.,-1.));
#1183=DIRECTION('center_axis',(0.,0.,1.));
#1184=DIRECTION('ref_axis',(1.,0.,0.));
#1185=DIRECTION('center_axis',(0.,0.,-1.));
#1186=DIRECTION('ref_axis',(1.,0.,0.));
#1187=DIRECTION('',(0.857167300702112,-1.04972719113862E-16,-0.515038074910054));
#1188=DIRECTION('center_axis',(0.,0.,-1.));
#1189=DIRECTION('ref_axis',(1.,0.,0.));
#1190=DIRECTION('center_axis',(0.,0.,-1.));
#1191=DIRECTION('ref_axis',(1.,0.,0.));
#1192=DIRECTION('',(0.,0.,-1.));
#1193=DIRECTION('center_axis',(0.,0.,1.));
#1194=DIRECTION('ref_axis',(1.,0.,0.));
#1195=DIRECTION('center_axis',(0.,0.,-1.));
#1196=DIRECTION('ref_axis',(1.,0.,0.));
#1197=DIRECTION('',(0.857167300702112,-1.04972719113862E-16,-0.515038074910054));
#1198=DIRECTION('center_axis',(0.,0.,-1.));
#1199=DIRECTION('ref_axis',(1.,0.,0.));
#1200=DIRECTION('center_axis',(-1.67384950414425E-33,-1.224646799147E-16,
-1.));
#1201=DIRECTION('ref_axis',(1.,0.,0.));
#1202=DIRECTION('',(0.,0.,-1.));
#1203=DIRECTION('center_axis',(-1.26111844502409E-17,-0.70710678118654,
-0.707106781186555));
#1204=DIRECTION('ref_axis',(-1.,0.,1.78349080871191E-17));
#1205=DIRECTION('',(0.,0.707106781186555,-0.70710678118654));
#1206=DIRECTION('',(1.,-1.78349080871195E-17,5.10296806052941E-34));
#1207=DIRECTION('',(0.,-0.707106781186555,0.70710678118654));
#1208=DIRECTION('',(-1.,1.78349080871195E-17,-5.10296806052941E-34));
#1209=DIRECTION('center_axis',(0.,0.,1.));
#1210=DIRECTION('ref_axis',(3.85108570661451E-15,-1.,5.96622801299062E-17));
#1211=DIRECTION('',(0.707106781186547,0.,-0.707106781186547));
#1212=DIRECTION('center_axis',(1.67384950414425E-33,1.224646799147E-16,
1.));
#1213=DIRECTION('ref_axis',(3.85108570661451E-15,-1.,1.224646799147E-16));
#1214=DIRECTION('center_axis',(-1.67384950414425E-33,-1.224646799147E-16,
-1.));
#1215=DIRECTION('ref_axis',(3.85108570661451E-15,-1.,0.));
#1216=DIRECTION('center_axis',(-0.707106781186543,-6.45186210186737E-16,
-0.707106781186552));
#1217=DIRECTION('ref_axis',(-0.707106781186552,0.,0.707106781186543));
#1218=DIRECTION('',(0.707106781186552,3.92523114670945E-15,-0.707106781186543));
#1219=DIRECTION('',(7.89966408787486E-16,-1.,1.224646799147E-16));
#1220=DIRECTION('',(-7.89966408787486E-16,1.,-1.224646799147E-16));
#1221=DIRECTION('center_axis',(0.,0.,1.));
#1222=DIRECTION('ref_axis',(-1.,-8.32667179808544E-16,5.04942876821045E-32));
#1223=DIRECTION('',(0.,-0.707106781186551,-0.707106781186544));
#1224=DIRECTION('center_axis',(1.67384950414425E-33,1.224646799147E-16,
1.));
#1225=DIRECTION('ref_axis',(-1.,-8.32667179808544E-16,1.03646169154874E-31));
#1226=DIRECTION('center_axis',(-1.67384950414425E-33,-1.224646799147E-16,
-1.));
#1227=DIRECTION('ref_axis',(-1.,-8.32667179808544E-16,0.));
#1228=DIRECTION('center_axis',(-5.67503300260843E-17,0.707106781186545,
-0.70710678118655));
#1229=DIRECTION('ref_axis',(-1.,0.,8.02570863920371E-17));
#1230=DIRECTION('',(0.,-0.70710678118655,-0.707106781186545));
#1231=DIRECTION('',(-1.,-8.02570863920378E-17,1.15025079000316E-32));
#1232=DIRECTION('',(1.,8.02570863920378E-17,-1.15025079000316E-32));
#1233=DIRECTION('center_axis',(0.,0.,1.));
#1234=DIRECTION('ref_axis',(-8.88178325129114E-15,1.,-5.96622801299061E-17));
#1235=DIRECTION('',(-0.707106781186477,-1.47196168001618E-15,-0.707106781186618));
#1236=DIRECTION('center_axis',(1.67384950414425E-33,1.224646799147E-16,
1.));
#1237=DIRECTION('ref_axis',(-8.88178325129114E-15,1.,-1.224646799147E-16));
#1238=DIRECTION('center_axis',(-1.67384950414425E-33,-1.224646799147E-16,
-1.));
#1239=DIRECTION('ref_axis',(-8.88178325129114E-15,1.,0.));
#1240=DIRECTION('center_axis',(0.707106781186485,1.84582594529769E-15,-0.70710678118661));
#1241=DIRECTION('ref_axis',(-0.70710678118661,0.,-0.707106781186485));
#1242=DIRECTION('',(-0.707106781186548,0.,-0.707106781186548));
#1243=DIRECTION('',(-2.73285676553509E-15,1.,-1.224646799147E-16));
#1244=DIRECTION('',(2.73285676553509E-15,-1.,1.224646799147E-16));
#1245=DIRECTION('center_axis',(0.,0.,1.));
#1246=DIRECTION('ref_axis',(1.,-6.66133743846827E-15,3.96615115148337E-31));
#1247=DIRECTION('center_axis',(1.67384950414425E-33,1.224646799147E-16,
1.));
#1248=DIRECTION('ref_axis',(1.,-6.66133743846827E-15,8.1410470770168E-31));
#1249=DIRECTION('center_axis',(-1.67384950414425E-33,-1.224646799147E-16,
-1.));
#1250=DIRECTION('ref_axis',(1.,-6.66133743846827E-15,0.));
#1251=DIRECTION('center_axis',(0.,0.,-1.));
#1252=DIRECTION('ref_axis',(-1.,-8.32667179808544E-16,0.));
#1253=DIRECTION('',(0.,0.,-1.));
#1254=DIRECTION('center_axis',(1.67384950414425E-33,1.224646799147E-16,
1.));
#1255=DIRECTION('ref_axis',(-1.,-8.32667179808544E-16,0.));
#1256=DIRECTION('',(0.,0.,-1.));
#1257=DIRECTION('center_axis',(-1.,-7.89966408787486E-16,0.));
#1258=DIRECTION('ref_axis',(-7.89966408787486E-16,1.,-1.224646799147E-16));
#1259=DIRECTION('',(0.,0.,-1.));
#1260=DIRECTION('',(7.89966408787486E-16,-1.,1.224646799147E-16));
#1261=DIRECTION('center_axis',(0.,0.,-1.));
#1262=DIRECTION('ref_axis',(3.85108570661451E-15,-1.,0.));
#1263=DIRECTION('',(0.,0.,-1.));
#1264=DIRECTION('center_axis',(1.67384950414425E-33,1.224646799147E-16,
1.));
#1265=DIRECTION('ref_axis',(3.85108570661451E-15,-1.,0.));
#1266=DIRECTION('center_axis',(-1.78349080871195E-17,-1.,0.));
#1267=DIRECTION('ref_axis',(-1.,1.78349080871195E-17,4.45872702177988E-18));
#1268=DIRECTION('',(0.,0.,-1.));
#1269=DIRECTION('',(1.,-1.78349080871195E-17,5.10296806052941E-34));
#1270=DIRECTION('center_axis',(-1.67384950414425E-33,-1.224646799147E-16,
-1.));
#1271=DIRECTION('ref_axis',(-1.,2.04987623696079E-49,1.67384950414425E-33));
#1272=DIRECTION('center_axis',(-1.2611184450241E-17,-0.707106781186549,
0.707106781186546));
#1273=DIRECTION('ref_axis',(1.,0.,1.78349080871196E-17));
#1274=DIRECTION('',(0.,-0.707106781186546,-0.707106781186549));
#1275=DIRECTION('',(0.,0.707106781186546,0.707106781186549));
#1276=DIRECTION('',(-1.,1.78349080871195E-17,-5.10296806052941E-34));
#1277=DIRECTION('center_axis',(0.,0.,-1.));
#1278=DIRECTION('ref_axis',(3.85108570661451E-15,-1.,5.96622801299062E-17));
#1279=DIRECTION('',(-0.707106781186542,0.,-0.707106781186553));
#1280=DIRECTION('center_axis',(-1.67384950414425E-33,-1.224646799147E-16,
-1.));
#1281=DIRECTION('ref_axis',(3.85108570661451E-15,-1.,1.224646799147E-16));
#1282=DIRECTION('center_axis',(-0.707106781186547,-4.7199499893969E-16,
0.707106781186549));
#1283=DIRECTION('ref_axis',(0.707106781186548,0.,0.707106781186546));
#1284=DIRECTION('',(-0.707106781186548,-3.92523114670943E-15,-0.707106781186546));
#1285=DIRECTION('',(-7.89966408787486E-16,1.,-1.224646799147E-16));
#1286=DIRECTION('center_axis',(0.,0.,-1.));
#1287=DIRECTION('ref_axis',(-1.,-8.32667179808544E-16,5.04942876821045E-32));
#1288=DIRECTION('',(0.,0.707106781186553,-0.707106781186542));
#1289=DIRECTION('center_axis',(-1.67384950414425E-33,-1.224646799147E-16,
-1.));
#1290=DIRECTION('ref_axis',(-1.,-8.32667179808544E-16,1.03646169154874E-31));
#1291=DIRECTION('center_axis',(-5.67503300260844E-17,0.707106781186547,
0.707106781186549));
#1292=DIRECTION('ref_axis',(1.,0.,8.02570863920376E-17));
#1293=DIRECTION('',(0.,0.707106781186548,-0.707106781186546));
#1294=DIRECTION('',(-1.,-8.02570863920378E-17,1.15025079000316E-32));
#1295=DIRECTION('',(1.,8.02570863920378E-17,-1.15025079000316E-32));
#1296=DIRECTION('center_axis',(0.,0.,-1.));
#1297=DIRECTION('ref_axis',(-8.88178325129114E-15,1.,-5.96622801299061E-17));
#1298=DIRECTION('',(0.707106781186479,1.47196168001619E-15,-0.707106781186616));
#1299=DIRECTION('center_axis',(1.67384950414425E-33,1.224646799147E-16,
1.));
#1300=DIRECTION('ref_axis',(-8.88178325129114E-15,1.,0.));
#1301=DIRECTION('center_axis',(-1.67384950414425E-33,-1.224646799147E-16,
-1.));
#1302=DIRECTION('ref_axis',(-8.88178325129114E-15,1.,-1.224646799147E-16));
#1303=DIRECTION('center_axis',(0.707106781186495,2.01901715654478E-15,0.707106781186601));
#1304=DIRECTION('ref_axis',(0.707106781186601,0.,-0.707106781186495));
#1305=DIRECTION('',(0.707106781186538,0.,-0.707106781186557));
#1306=DIRECTION('',(-2.73285676553509E-15,1.,-1.224646799147E-16));
#1307=DIRECTION('',(2.73285676553509E-15,-1.,1.224646799147E-16));
#1308=DIRECTION('center_axis',(0.,0.,-1.));
#1309=DIRECTION('ref_axis',(1.,-6.66133743846827E-15,3.96615115148337E-31));
#1310=DIRECTION('center_axis',(1.67384950414425E-33,1.224646799147E-16,
1.));
#1311=DIRECTION('ref_axis',(1.,-6.66133743846827E-15,0.));
#1312=DIRECTION('center_axis',(-1.67384950414425E-33,-1.224646799147E-16,
-1.));
#1313=DIRECTION('ref_axis',(1.,-6.66133743846827E-15,8.14104707701681E-31));
#1314=DIRECTION('center_axis',(0.,0.,-1.));
#1315=DIRECTION('ref_axis',(-8.88178325129114E-15,1.,0.));
#1316=DIRECTION('',(0.,0.,-1.));
#1317=DIRECTION('',(0.,0.,-1.));
#1318=DIRECTION('center_axis',(1.,2.73285676553509E-15,0.));
#1319=DIRECTION('ref_axis',(2.73285676553509E-15,-1.,1.224646799147E-16));
#1320=DIRECTION('',(0.,0.,-1.));
#1321=DIRECTION('center_axis',(0.,0.,-1.));
#1322=DIRECTION('ref_axis',(1.,-6.66133743846827E-15,0.));
#1323=DIRECTION('center_axis',(-1.67384950414425E-33,-1.224646799147E-16,
-1.));
#1324=DIRECTION('ref_axis',(-1.,2.04987623696079E-49,1.67384950414425E-33));
#1325=DIRECTION('center_axis',(1.67384950414425E-33,1.224646799147E-16,
1.));
#1326=DIRECTION('ref_axis',(-1.,5.90191228504579E-17,-5.55390848458343E-33));
#1327=DIRECTION('center_axis',(1.67384950414425E-33,1.224646799147E-16,
1.));
#1328=DIRECTION('ref_axis',(-1.,6.53144959545067E-17,-6.32486933671439E-33));
#1329=DIRECTION('center_axis',(1.67384950414425E-33,1.224646799147E-16,
1.));
#1330=DIRECTION('ref_axis',(1.,4.898587196588E-17,-7.67288863478822E-33));
#1331=DIRECTION('center_axis',(1.67384950414425E-33,1.224646799147E-16,
1.));
#1332=DIRECTION('ref_axis',(1.,1.08857493257511E-16,-1.5005047572242E-32));
#1333=DIRECTION('',(-1.,0.,1.67384950414425E-33));
#1334=DIRECTION('',(0.,1.,-1.224646799147E-16));
#1335=DIRECTION('',(1.,0.,-1.67384950414425E-33));
#1336=DIRECTION('',(0.,-1.,1.224646799147E-16));
#1337=DIRECTION('center_axis',(1.67384950414425E-33,1.224646799147E-16,
1.));
#1338=DIRECTION('ref_axis',(1.,1.08857493257511E-16,-1.5005047572242E-32));
#1339=DIRECTION('center_axis',(1.67384950414425E-33,1.224646799147E-16,
1.));
#1340=DIRECTION('ref_axis',(-1.,6.53144959545067E-17,-6.32486933671439E-33));
#1341=DIRECTION('center_axis',(1.67384950414425E-33,1.224646799147E-16,
1.));
#1342=DIRECTION('ref_axis',(-1.,5.90191228504579E-17,-5.55390848458343E-33));
#1343=DIRECTION('center_axis',(-1.67384950414425E-33,-1.224646799147E-16,
-1.));
#1344=DIRECTION('ref_axis',(-1.,0.,0.));
#1345=DIRECTION('center_axis',(-1.67384950414425E-33,-1.224646799147E-16,
-1.));
#1346=DIRECTION('ref_axis',(-1.,5.90191228504579E-17,0.));
#1347=DIRECTION('center_axis',(-1.36223684003087E-16,-1.,1.224646799147E-16));
#1348=DIRECTION('ref_axis',(1.,-1.36223684003087E-16,0.));
#1349=DIRECTION('center_axis',(0.,0.,1.));
#1350=DIRECTION('ref_axis',(-1.,0.,0.));
#1351=DIRECTION('center_axis',(0.,0.,-1.));
#1352=DIRECTION('ref_axis',(-1.,0.,0.));
#1353=DIRECTION('',(0.,0.,-1.));
#1354=DIRECTION('center_axis',(1.67384950414425E-33,1.224646799147E-16,
1.));
#1355=DIRECTION('ref_axis',(1.,0.,0.));
#1356=DIRECTION('center_axis',(0.,-1.,1.224646799147E-16));
#1357=DIRECTION('ref_axis',(-1.,0.,0.));
#1358=DIRECTION('center_axis',(-1.67384950414425E-33,-1.224646799147E-16,
-1.));
#1359=DIRECTION('ref_axis',(-1.,5.90191228504579E-17,0.));
#1360=DIRECTION('center_axis',(-1.67384950414425E-33,-1.224646799147E-16,
-1.));
#1361=DIRECTION('ref_axis',(-1.,5.90191228504579E-17,0.));
#1362=DIRECTION('center_axis',(0.,0.,1.));
#1363=DIRECTION('ref_axis',(-1.,0.,0.));
#1364=DIRECTION('center_axis',(0.,0.,-1.));
#1365=DIRECTION('ref_axis',(-1.,0.,0.));
#1366=DIRECTION('',(0.,0.,-1.));
#1367=DIRECTION('center_axis',(-1.67384950414425E-33,-1.224646799147E-16,
-1.));
#1368=DIRECTION('ref_axis',(-1.,0.,0.));
#1369=DIRECTION('center_axis',(-1.67384950414425E-33,-1.224646799147E-16,
-1.));
#1370=DIRECTION('ref_axis',(-1.,6.53144959545067E-17,0.));
#1371=DIRECTION('center_axis',(-1.432545838226E-16,-1.,1.224646799147E-16));
#1372=DIRECTION('ref_axis',(1.,-1.432545838226E-16,0.));
#1373=DIRECTION('center_axis',(0.,0.,1.));
#1374=DIRECTION('ref_axis',(-1.,0.,0.));
#1375=DIRECTION('center_axis',(0.,0.,-1.));
#1376=DIRECTION('ref_axis',(-1.,0.,0.));
#1377=DIRECTION('',(0.,0.,-1.));
#1378=DIRECTION('center_axis',(1.67384950414425E-33,1.224646799147E-16,
1.));
#1379=DIRECTION('ref_axis',(1.,0.,0.));
#1380=DIRECTION('center_axis',(0.,-1.,1.224646799147E-16));
#1381=DIRECTION('ref_axis',(-1.,0.,0.));
#1382=DIRECTION('center_axis',(-1.67384950414425E-33,-1.224646799147E-16,
-1.));
#1383=DIRECTION('ref_axis',(-1.,6.53144959545067E-17,0.));
#1384=DIRECTION('center_axis',(-1.67384950414425E-33,-1.224646799147E-16,
-1.));
#1385=DIRECTION('ref_axis',(-1.,6.53144959545067E-17,0.));
#1386=DIRECTION('center_axis',(0.,0.,1.));
#1387=DIRECTION('ref_axis',(-1.,0.,0.));
#1388=DIRECTION('center_axis',(0.,0.,-1.));
#1389=DIRECTION('ref_axis',(-1.,0.,0.));
#1390=DIRECTION('',(0.,0.,-1.));
#1391=DIRECTION('center_axis',(-1.67384950414425E-33,-1.224646799147E-16,
-1.));
#1392=DIRECTION('ref_axis',(-1.,0.,0.));
#1393=DIRECTION('center_axis',(-1.67384950414425E-33,-1.224646799147E-16,
-1.));
#1394=DIRECTION('ref_axis',(1.,4.898587196588E-17,0.));
#1395=DIRECTION('center_axis',(0.,-1.,1.224646799147E-16));
#1396=DIRECTION('ref_axis',(1.,0.,0.));
#1397=DIRECTION('center_axis',(-1.67384950414425E-33,-1.224646799147E-16,
-1.));
#1398=DIRECTION('ref_axis',(1.,4.898587196588E-17,0.));
#1399=DIRECTION('center_axis',(0.,0.,-1.));
#1400=DIRECTION('ref_axis',(1.,0.,0.));
#1401=DIRECTION('',(0.,0.,1.));
#1402=DIRECTION('center_axis',(0.,0.,-1.));
#1403=DIRECTION('ref_axis',(1.,0.,0.));
#1404=DIRECTION('center_axis',(-1.67384950414425E-33,-1.224646799147E-16,
-1.));
#1405=DIRECTION('ref_axis',(-1.,0.,0.));
#1406=DIRECTION('center_axis',(-1.67384950414425E-33,-1.224646799147E-16,
-1.));
#1407=DIRECTION('ref_axis',(1.,1.08857493257511E-16,0.));
#1408=DIRECTION('center_axis',(0.,-1.,1.224646799147E-16));
#1409=DIRECTION('ref_axis',(1.,0.,0.));
#1410=DIRECTION('center_axis',(-1.67384950414425E-33,-1.224646799147E-16,
-1.));
#1411=DIRECTION('ref_axis',(1.,1.08857493257511E-16,0.));
#1412=DIRECTION('center_axis',(0.,0.,-1.));
#1413=DIRECTION('ref_axis',(1.,0.,0.));
#1414=DIRECTION('',(0.,0.,1.));
#1415=DIRECTION('center_axis',(0.,0.,-1.));
#1416=DIRECTION('ref_axis',(1.,0.,0.));
#1417=DIRECTION('center_axis',(-1.67384950414425E-33,-1.224646799147E-16,
-1.));
#1418=DIRECTION('ref_axis',(-1.,0.,0.));
#1419=DIRECTION('center_axis',(-1.67384950414425E-33,-1.224646799147E-16,
-1.));
#1420=DIRECTION('ref_axis',(1.,1.08857493257511E-16,0.));
#1421=DIRECTION('center_axis',(-1.77635683940025E-16,-1.,1.224646799147E-16));
#1422=DIRECTION('ref_axis',(1.,-1.77635683940025E-16,0.));
#1423=DIRECTION('center_axis',(-1.67384950414425E-33,-1.224646799147E-16,
-1.));
#1424=DIRECTION('ref_axis',(1.,1.08857493257511E-16,0.));
#1425=DIRECTION('center_axis',(0.,0.,-1.));
#1426=DIRECTION('ref_axis',(1.,0.,0.));
#1427=DIRECTION('',(0.,0.,1.));
#1428=DIRECTION('center_axis',(0.,0.,-1.));
#1429=DIRECTION('ref_axis',(1.,0.,0.));
#1430=DIRECTION('center_axis',(1.,0.,-1.67384950414425E-33));
#1431=DIRECTION('ref_axis',(0.,-0.707106781186547,-0.707106781186548));
#1432=DIRECTION('center_axis',(-0.707106781186547,-0.707106781186548,0.));
#1433=DIRECTION('ref_axis',(-0.707106781186548,0.707106781186547,2.36718067013227E-33));
#1434=DIRECTION('',(1.,0.,-1.67384950414425E-33));
#1435=DIRECTION('center_axis',(-0.707106781186547,0.707106781186548,0.));
#1436=DIRECTION('ref_axis',(0.707106781186548,0.707106781186547,-1.73191211247049E-16));
#1437=DIRECTION('center_axis',(0.,1.,-1.224646799147E-16));
#1438=DIRECTION('ref_axis',(0.707106781186548,0.,-0.707106781186548));
#1439=DIRECTION('center_axis',(0.707106781186547,-0.707106781186548,0.));
#1440=DIRECTION('ref_axis',(-0.707106781186548,-0.707106781186547,1.73191211247049E-16));
#1441=DIRECTION('',(0.,1.,-1.224646799147E-16));
#1442=DIRECTION('center_axis',(0.,-1.,1.224646799147E-16));
#1443=DIRECTION('ref_axis',(-0.707106781186548,0.,-0.707106781186548));
#1444=DIRECTION('',(0.,-1.,1.224646799147E-16));
#1445=DIRECTION('center_axis',(-0.707106781186547,-0.707106781186548,0.));
#1446=DIRECTION('ref_axis',(-0.707106781186548,0.707106781186547,-1.73191211247049E-16));
#1447=DIRECTION('center_axis',(-1.,0.,1.67384950414425E-33));
#1448=DIRECTION('ref_axis',(0.,0.707106781186547,-0.707106781186548));
#1449=DIRECTION('',(-1.,0.,1.67384950414425E-33));
#1450=DIRECTION('center_axis',(1.,0.,0.));
#1451=DIRECTION('ref_axis',(0.,-1.,0.));
#1452=DIRECTION('',(0.,0.,1.));
#1453=DIRECTION('',(0.,1.,0.));
#1454=DIRECTION('',(0.,0.,-1.));
#1455=DIRECTION('center_axis',(0.,1.,0.));
#1456=DIRECTION('ref_axis',(1.,0.,0.));
#1457=DIRECTION('',(0.,0.,-1.));
#1458=DIRECTION('',(-1.,0.,0.));
#1459=DIRECTION('center_axis',(0.,0.,-1.));
#1460=DIRECTION('ref_axis',(1.,0.,0.));
#1461=DIRECTION('center_axis',(0.,0.,-1.));
#1462=DIRECTION('ref_axis',(1.,0.,0.));
#1463=DIRECTION('center_axis',(0.,0.,-1.));
#1464=DIRECTION('ref_axis',(1.,0.,0.));
#1465=DIRECTION('center_axis',(-1.,0.,0.));
#1466=DIRECTION('ref_axis',(0.,1.,0.));
#1467=DIRECTION('',(0.,0.,-1.));
#1468=DIRECTION('',(0.,-1.,0.));
#1469=DIRECTION('center_axis',(0.,-1.,0.));
#1470=DIRECTION('ref_axis',(-1.,0.,0.));
#1471=DIRECTION('',(1.,0.,0.));
#1472=DIRECTION('center_axis',(0.,0.,-1.));
#1473=DIRECTION('ref_axis',(1.,0.,0.));
#1474=DIRECTION('center_axis',(-1.67384950414425E-33,-1.224646799147E-16,
-1.));
#1475=DIRECTION('ref_axis',(-1.,2.04987623696079E-49,1.67384950414425E-33));
#1476=DIRECTION('center_axis',(1.67384950414425E-33,1.224646799147E-16,
1.));
#1477=DIRECTION('ref_axis',(-1.,0.,0.));
#1478=DIRECTION('center_axis',(-1.67384950414425E-33,-1.224646799147E-16,
-1.));
#1479=DIRECTION('ref_axis',(-1.,2.04987623696079E-49,1.67384950414425E-33));
#1480=DIRECTION('center_axis',(1.67384950414425E-33,1.224646799147E-16,
1.));
#1481=DIRECTION('ref_axis',(-1.,0.,0.));
#1482=DIRECTION('center_axis',(0.,0.,1.));
#1483=DIRECTION('ref_axis',(-1.,0.,0.));
#1484=DIRECTION('center_axis',(0.,0.,1.));
#1485=DIRECTION('ref_axis',(-1.,0.,0.));
#1486=DIRECTION('center_axis',(0.,0.,-1.));
#1487=DIRECTION('ref_axis',(-1.,0.,0.));
#1488=DIRECTION('',(0.,0.,-1.));
#1489=DIRECTION('center_axis',(0.,0.,1.));
#1490=DIRECTION('ref_axis',(-1.,0.,0.));
#1491=DIRECTION('center_axis',(0.,0.,1.));
#1492=DIRECTION('ref_axis',(-1.,0.,0.));
#1493=DIRECTION('center_axis',(0.,0.,1.));
#1494=DIRECTION('ref_axis',(-1.,0.,0.));
#1495=DIRECTION('center_axis',(0.,0.,-1.));
#1496=DIRECTION('ref_axis',(-1.,0.,0.));
#1497=DIRECTION('',(0.,0.,-1.));
#1498=DIRECTION('center_axis',(0.,0.,1.));
#1499=DIRECTION('ref_axis',(-1.,0.,0.));
#1500=DIRECTION('center_axis',(-8.02570863920378E-17,1.,0.));
#1501=DIRECTION('ref_axis',(1.,8.02570863920378E-17,-1.02246714806939E-32));
#1502=CARTESIAN_POINT('',(0.,0.,0.));
#1503=CARTESIAN_POINT('Origin',(248.,-4.,-7.37989412638018));
#1504=CARTESIAN_POINT('',(246.7355,-4.,-7.));
#1505=CARTESIAN_POINT('Origin',(248.,-4.,-7.));
#1506=CARTESIAN_POINT('',(248.,-4.,-7.75978825276035));
#1507=CARTESIAN_POINT('',(247.36775,-4.,-7.37989412638018));
#1508=CARTESIAN_POINT('Origin',(248.,-4.,-3.5));
#1509=CARTESIAN_POINT('',(246.7355,-4.,-5.7));
#1510=CARTESIAN_POINT('Origin',(248.,-4.,-5.7));
#1511=CARTESIAN_POINT('',(246.7355,-4.,-3.5));
#1512=CARTESIAN_POINT('Origin',(4.,-4.,-7.37989412638018));
#1513=CARTESIAN_POINT('',(2.7355,-4.,-7.));
#1514=CARTESIAN_POINT('Origin',(4.,-4.,-7.));
#1515=CARTESIAN_POINT('',(4.,-4.,-7.75978825276035));
#1516=CARTESIAN_POINT('',(3.36775,-4.,-7.37989412638018));
#1517=CARTESIAN_POINT('Origin',(4.,-4.,-3.5));
#1518=CARTESIAN_POINT('',(2.7355,-4.,-1.66533453693773E-15));
#1519=CARTESIAN_POINT('Origin',(4.,-4.,-1.66533453693773E-15));
#1520=CARTESIAN_POINT('',(2.7355,-4.,-3.5));
#1521=CARTESIAN_POINT('Origin',(4.,-24.,-7.37989412638018));
#1522=CARTESIAN_POINT('',(2.7355,-24.,-7.));
#1523=CARTESIAN_POINT('Origin',(4.,-24.,-7.));
#1524=CARTESIAN_POINT('',(4.,-24.,-7.75978825276035));
#1525=CARTESIAN_POINT('',(3.36775,-24.,-7.37989412638018));
#1526=CARTESIAN_POINT('Origin',(4.,-24.,-3.5));
#1527=CARTESIAN_POINT('',(2.7355,-24.,-1.66533453693773E-15));
#1528=CARTESIAN_POINT('Origin',(4.,-24.,-1.66533453693773E-15));
#1529=CARTESIAN_POINT('',(2.7355,-24.,-3.5));
#1530=CARTESIAN_POINT('Origin',(248.,-24.,-7.37989412638018));
#1531=CARTESIAN_POINT('',(246.7355,-24.,-7.));
#1532=CARTESIAN_POINT('Origin',(248.,-24.,-7.));
#1533=CARTESIAN_POINT('',(248.,-24.,-7.75978825276035));
#1534=CARTESIAN_POINT('',(247.36775,-24.,-7.37989412638018));
#1535=CARTESIAN_POINT('Origin',(248.,-24.,-3.5));
#1536=CARTESIAN_POINT('',(246.7355,-24.,-5.7));
#1537=CARTESIAN_POINT('Origin',(248.,-24.,-5.7));
#1538=CARTESIAN_POINT('',(246.7355,-24.,-3.5));
#1539=CARTESIAN_POINT('Origin',(187.749999787045,-30.9,-10.385));
#1540=CARTESIAN_POINT('',(1.00000042591006,-31.,-10.285));
#1541=CARTESIAN_POINT('',(1.00000042591006,-30.8,-10.485));
#1542=CARTESIAN_POINT('',(1.00000042591006,-31.,-10.285));
#1543=CARTESIAN_POINT('',(249.99999957409,-30.8,-10.485));
#1544=CARTESIAN_POINT('',(187.749999787045,-30.8,-10.485));
#1545=CARTESIAN_POINT('',(249.99999957409,-31.,-10.285));
#1546=CARTESIAN_POINT('',(249.99999957409,-30.8,-10.485));
#1547=CARTESIAN_POINT('',(187.749999787045,-31.,-10.285));
#1548=CARTESIAN_POINT('Origin',(1.00000042591004,-26.99999957409,-10.385));
#1549=CARTESIAN_POINT('',(-2.99999999999998,-26.99999957409,-10.285));
#1550=CARTESIAN_POINT('',(-2.79999999999998,-26.99999957409,-10.485));
#1551=CARTESIAN_POINT('',(-2.99999999999998,-26.99999957409,-10.285));
#1552=CARTESIAN_POINT('Origin',(1.00000042591004,-26.99999957409,-10.485));
#1553=CARTESIAN_POINT('Origin',(1.00000042591004,-26.99999957409,-10.285));
#1554=CARTESIAN_POINT('Origin',(-2.89999999999998,-20.499999787045,-10.385));
#1555=CARTESIAN_POINT('',(-3.,-1.00000042591005,-10.285));
#1556=CARTESIAN_POINT('',(-2.8,-1.00000042591005,-10.485));
#1557=CARTESIAN_POINT('',(-3.,-1.00000042591005,-10.285));
#1558=CARTESIAN_POINT('',(-2.79999999999998,-20.499999787045,-10.485));
#1559=CARTESIAN_POINT('',(-2.99999999999999,-20.499999787045,-10.285));
#1560=CARTESIAN_POINT('Origin',(1.00000042591002,-1.00000042591004,-10.385));
#1561=CARTESIAN_POINT('',(1.00000042591002,2.99999999999998,-10.285));
#1562=CARTESIAN_POINT('',(1.00000042591002,2.79999999999997,-10.485));
#1563=CARTESIAN_POINT('',(1.00000042591002,2.99999999999998,-10.285));
#1564=CARTESIAN_POINT('Origin',(1.00000042591002,-1.00000042591004,-10.485));
#1565=CARTESIAN_POINT('Origin',(1.00000042591002,-1.00000042591004,-10.285));
#1566=CARTESIAN_POINT('Origin',(63.250000212955,2.89999999999998,-10.385));
#1567=CARTESIAN_POINT('',(249.99999957409,3.,-10.285));
#1568=CARTESIAN_POINT('',(249.99999957409,2.8,-10.485));
#1569=CARTESIAN_POINT('',(249.99999957409,3.,-10.285));
#1570=CARTESIAN_POINT('',(63.250000212955,2.79999999999998,-10.485));
#1571=CARTESIAN_POINT('',(63.250000212955,2.99999999999998,-10.285));
#1572=CARTESIAN_POINT('Origin',(249.99999957409,-1.00000042591002,-10.385));
#1573=CARTESIAN_POINT('',(254.,-1.00000042591002,-10.285));
#1574=CARTESIAN_POINT('',(253.8,-1.00000042591002,-10.485));
#1575=CARTESIAN_POINT('',(254.,-1.00000042591002,-10.285));
#1576=CARTESIAN_POINT('Origin',(249.99999957409,-1.00000042591002,-10.485));
#1577=CARTESIAN_POINT('Origin',(249.99999957409,-1.00000042591002,-10.285));
#1578=CARTESIAN_POINT('Origin',(253.9,-7.50000021295484,-10.385));
#1579=CARTESIAN_POINT('',(254.,-26.9999995740899,-10.285));
#1580=CARTESIAN_POINT('',(253.8,-26.9999995740899,-10.485));
#1581=CARTESIAN_POINT('',(254.,-26.9999995740899,-10.285));
#1582=CARTESIAN_POINT('',(253.8,-7.50000021295484,-10.485));
#1583=CARTESIAN_POINT('',(254.,-7.50000021295484,-10.285));
#1584=CARTESIAN_POINT('Origin',(249.99999957409,-26.9999995740899,-10.385));
#1585=CARTESIAN_POINT('Origin',(249.99999957409,-26.9999995740899,-10.485));
#1586=CARTESIAN_POINT('Origin',(249.99999957409,-26.9999995740899,-10.285));
#1587=CARTESIAN_POINT('Origin',(1.00000042591002,-1.00000042591004,-8.485));
#1588=CARTESIAN_POINT('',(-3.,-1.00000042591005,-8.685));
#1589=CARTESIAN_POINT('',(-3.,-1.00000042591005,-8.485));
#1590=CARTESIAN_POINT('',(1.00000042591002,2.99999999999998,-8.685));
#1591=CARTESIAN_POINT('Origin',(1.00000042591002,-1.00000042591004,-8.685));
#1592=CARTESIAN_POINT('',(1.00000042591002,2.99999999999998,-8.485));
#1593=CARTESIAN_POINT('Origin',(-2.99999999999998,-26.99999957409,-8.485));
#1594=CARTESIAN_POINT('',(-2.99999999999998,-26.99999957409,-8.685));
#1595=CARTESIAN_POINT('',(-2.99999999999998,-26.99999957409,-8.485));
#1596=CARTESIAN_POINT('',(-2.99999999999999,-20.499999787045,-8.685));
#1597=CARTESIAN_POINT('Origin',(1.00000042591004,-26.99999957409,-8.485));
#1598=CARTESIAN_POINT('',(1.00000042591006,-31.,-8.685));
#1599=CARTESIAN_POINT('',(1.00000042591006,-31.,-8.485));
#1600=CARTESIAN_POINT('Origin',(1.00000042591004,-26.99999957409,-8.685));
#1601=CARTESIAN_POINT('Origin',(249.99999957409,-31.,-8.485));
#1602=CARTESIAN_POINT('',(249.99999957409,-31.,-8.685));
#1603=CARTESIAN_POINT('',(249.99999957409,-31.,-8.485));
#1604=CARTESIAN_POINT('',(187.749999787045,-31.,-8.685));
#1605=CARTESIAN_POINT('Origin',(125.5,-14.,-10.485));
#1606=CARTESIAN_POINT('Origin',(187.749999787045,-30.9,-8.585));
#1607=CARTESIAN_POINT('',(1.00000042591006,-30.8,-8.485));
#1608=CARTESIAN_POINT('',(1.00000042591006,-30.8,-8.485));
#1609=CARTESIAN_POINT('',(249.99999957409,-30.8,-8.485));
#1610=CARTESIAN_POINT('',(249.99999957409,-31.,-8.685));
#1611=CARTESIAN_POINT('',(187.749999787045,-30.8,-8.485));
#1612=CARTESIAN_POINT('Origin',(1.00000042591004,-26.99999957409,-8.585));
#1613=CARTESIAN_POINT('',(-2.79999999999998,-26.99999957409,-8.485));
#1614=CARTESIAN_POINT('',(-2.79999999999998,-26.99999957409,-8.485));
#1615=CARTESIAN_POINT('Origin',(1.00000042591004,-26.99999957409,-8.485));
#1616=CARTESIAN_POINT('Origin',(-2.89999999999998,-20.499999787045,-8.585));
#1617=CARTESIAN_POINT('',(-2.8,-1.00000042591005,-8.485));
#1618=CARTESIAN_POINT('',(-2.8,-1.00000042591005,-8.485));
#1619=CARTESIAN_POINT('',(-2.79999999999998,-20.499999787045,-8.485));
#1620=CARTESIAN_POINT('Origin',(1.00000042591002,-1.00000042591004,-8.585));
#1621=CARTESIAN_POINT('',(1.00000042591002,2.79999999999997,-8.485));
#1622=CARTESIAN_POINT('',(1.00000042591002,2.79999999999997,-8.485));
#1623=CARTESIAN_POINT('Origin',(1.00000042591002,-1.00000042591004,-8.485));
#1624=CARTESIAN_POINT('Origin',(63.250000212955,2.89999999999998,-8.585));
#1625=CARTESIAN_POINT('',(249.99999957409,2.8,-8.485));
#1626=CARTESIAN_POINT('',(249.99999957409,3.,-8.685));
#1627=CARTESIAN_POINT('',(249.99999957409,2.8,-8.485));
#1628=CARTESIAN_POINT('',(63.250000212955,2.99999999999998,-8.685));
#1629=CARTESIAN_POINT('',(63.250000212955,2.79999999999998,-8.485));
#1630=CARTESIAN_POINT('Origin',(249.99999957409,-1.00000042591002,-8.585));
#1631=CARTESIAN_POINT('',(253.8,-1.00000042591002,-8.485));
#1632=CARTESIAN_POINT('',(254.,-1.00000042591002,-8.685));
#1633=CARTESIAN_POINT('',(253.8,-1.00000042591002,-8.485));
#1634=CARTESIAN_POINT('Origin',(249.99999957409,-1.00000042591002,-8.685));
#1635=CARTESIAN_POINT('Origin',(249.99999957409,-1.00000042591002,-8.485));
#1636=CARTESIAN_POINT('Origin',(253.9,-7.50000021295484,-8.585));
#1637=CARTESIAN_POINT('',(253.8,-26.9999995740899,-8.485));
#1638=CARTESIAN_POINT('',(254.,-26.9999995740899,-8.685));
#1639=CARTESIAN_POINT('',(253.8,-26.9999995740899,-8.485));
#1640=CARTESIAN_POINT('',(254.,-7.50000021295484,-8.685));
#1641=CARTESIAN_POINT('',(253.8,-7.50000021295484,-8.485));
#1642=CARTESIAN_POINT('Origin',(249.99999957409,-26.9999995740899,-8.585));
#1643=CARTESIAN_POINT('Origin',(249.99999957409,-26.9999995740899,-8.685));
#1644=CARTESIAN_POINT('Origin',(249.99999957409,-26.9999995740899,-8.485));
#1645=CARTESIAN_POINT('Origin',(249.99999957409,-1.00000042591002,-8.485));
#1646=CARTESIAN_POINT('',(249.99999957409,3.,-8.485));
#1647=CARTESIAN_POINT('',(254.,-1.00000042591002,-8.485));
#1648=CARTESIAN_POINT('Origin',(254.,-1.00000042591002,-8.485));
#1649=CARTESIAN_POINT('',(254.,-26.9999995740899,-8.485));
#1650=CARTESIAN_POINT('Origin',(249.99999957409,-26.9999995740899,-8.485));
#1651=CARTESIAN_POINT('Origin',(125.5,-14.,-8.485));
#1652=CARTESIAN_POINT('',(10.15,-4.,-8.485));
#1653=CARTESIAN_POINT('Origin',(4.,-4.,-8.485));
#1654=CARTESIAN_POINT('',(242.25,-24.,-8.485));
#1655=CARTESIAN_POINT('Origin',(248.,-24.,-8.485));
#1656=CARTESIAN_POINT('',(225.675328080141,-14.0000000000001,-8.485));
#1657=CARTESIAN_POINT('Origin',(218.675328080141,-14.0000000000001,-8.485));
#1658=CARTESIAN_POINT('',(130.25,-5.00000000000001,-8.485));
#1659=CARTESIAN_POINT('Origin',(126.,-5.,-8.485));
#1660=CARTESIAN_POINT('',(26.5,-5.75,-8.485));
#1661=CARTESIAN_POINT('',(12.5,-5.75,-8.485));
#1662=CARTESIAN_POINT('',(70.,-5.75,-8.485));
#1663=CARTESIAN_POINT('',(26.5,-17.75,-8.485));
#1664=CARTESIAN_POINT('',(26.5,-10.875,-8.485));
#1665=CARTESIAN_POINT('',(12.5,-17.75,-8.485));
#1666=CARTESIAN_POINT('',(74.,-17.75,-8.485));
#1667=CARTESIAN_POINT('',(12.5,-14.875,-8.485));
#1668=CARTESIAN_POINT('',(130.25,-23.,-8.485));
#1669=CARTESIAN_POINT('Origin',(126.,-23.,-8.485));
#1670=CARTESIAN_POINT('',(253.75,-4.,-8.485));
#1671=CARTESIAN_POINT('Origin',(248.,-4.,-8.485));
#1672=CARTESIAN_POINT('',(-2.15,-24.,-8.485));
#1673=CARTESIAN_POINT('Origin',(4.,-24.,-8.485));
#1674=CARTESIAN_POINT('Origin',(4.,-4.,-6.485));
#1675=CARTESIAN_POINT('',(8.15,-4.,-6.485));
#1676=CARTESIAN_POINT('Origin',(4.,-4.,-6.485));
#1677=CARTESIAN_POINT('Origin',(10.15,-4.,-6.485));
#1678=CARTESIAN_POINT('Origin',(4.,-4.,-8.485));
#1679=CARTESIAN_POINT('',(8.15,-4.,-1.11022302462516E-15));
#1680=CARTESIAN_POINT('Origin',(4.,-4.,-1.11022302462516E-15));
#1681=CARTESIAN_POINT('',(8.15,-4.,-8.485));
#1682=CARTESIAN_POINT('Origin',(4.,-24.,-6.485));
#1683=CARTESIAN_POINT('',(-0.149999999999999,-24.,-6.485));
#1684=CARTESIAN_POINT('Origin',(-2.15,-24.,-6.485));
#1685=CARTESIAN_POINT('',(8.15,-24.,-6.485));
#1686=CARTESIAN_POINT('Origin',(4.,-24.,-6.485));
#1687=CARTESIAN_POINT('Origin',(4.,-24.,-6.485));
#1688=CARTESIAN_POINT('Origin',(4.,-24.,-8.485));
#1689=CARTESIAN_POINT('',(8.15,-24.,0.));
#1690=CARTESIAN_POINT('Origin',(4.,-24.,0.));
#1691=CARTESIAN_POINT('',(8.15,-24.,-8.485));
#1692=CARTESIAN_POINT('Origin',(248.,-4.,-6.485));
#1693=CARTESIAN_POINT('',(251.75,-4.,-6.485));
#1694=CARTESIAN_POINT('Origin',(248.,-4.,-6.485));
#1695=CARTESIAN_POINT('Origin',(253.75,-4.,-6.485));
#1696=CARTESIAN_POINT('Origin',(248.,-4.,-8.485));
#1697=CARTESIAN_POINT('',(251.75,-4.,-1.11022302462516E-15));
#1698=CARTESIAN_POINT('Origin',(248.,-4.,-1.11022302462516E-15));
#1699=CARTESIAN_POINT('',(251.75,-4.,-8.485));
#1700=CARTESIAN_POINT('Origin',(248.,-24.,-6.485));
#1701=CARTESIAN_POINT('',(244.25,-24.,-6.485));
#1702=CARTESIAN_POINT('Origin',(242.25,-24.,-6.485));
#1703=CARTESIAN_POINT('',(251.75,-24.,-6.485));
#1704=CARTESIAN_POINT('Origin',(248.,-24.,-6.485));
#1705=CARTESIAN_POINT('Origin',(248.,-24.,-6.485));
#1706=CARTESIAN_POINT('Origin',(248.,-24.,-8.485));
#1707=CARTESIAN_POINT('',(251.75,-24.,0.));
#1708=CARTESIAN_POINT('Origin',(248.,-24.,0.));
#1709=CARTESIAN_POINT('',(251.75,-24.,-8.485));
#1710=CARTESIAN_POINT('Origin',(218.675328080141,-14.0000000000001,-6.485));
#1711=CARTESIAN_POINT('',(213.675328080141,-14.0000000000001,-6.485));
#1712=CARTESIAN_POINT('',(223.675328080141,-14.0000000000001,-6.485));
#1713=CARTESIAN_POINT('Origin',(218.675328080141,-14.0000000000001,-6.485));
#1714=CARTESIAN_POINT('Origin',(225.675328080141,-14.0000000000001,-6.485));
#1715=CARTESIAN_POINT('Origin',(218.675328080141,-14.0000000000001,-6.485));
#1716=CARTESIAN_POINT('Origin',(218.675328080141,-14.0000000000001,0.));
#1717=CARTESIAN_POINT('',(213.675328080141,-14.0000000000001,0.));
#1718=CARTESIAN_POINT('',(213.675328080141,-14.0000000000001,0.));
#1719=CARTESIAN_POINT('Origin',(218.675328080141,-14.0000000000001,0.));
#1720=CARTESIAN_POINT('Origin',(126.,-23.,-6.485));
#1721=CARTESIAN_POINT('',(123.75,-23.,-6.485));
#1722=CARTESIAN_POINT('',(128.25,-23.,-6.485));
#1723=CARTESIAN_POINT('Origin',(126.,-23.,-6.485));
#1724=CARTESIAN_POINT('Origin',(130.25,-23.,-6.485));
#1725=CARTESIAN_POINT('Origin',(126.,-23.,-6.485));
#1726=CARTESIAN_POINT('Origin',(126.,-23.,0.));
#1727=CARTESIAN_POINT('',(123.75,-23.,0.));
#1728=CARTESIAN_POINT('',(123.75,-23.,0.));
#1729=CARTESIAN_POINT('Origin',(126.,-23.,0.));
#1730=CARTESIAN_POINT('Origin',(126.,-5.,-6.485));
#1731=CARTESIAN_POINT('',(123.75,-5.,-6.485));
#1732=CARTESIAN_POINT('',(128.25,-5.00000000000001,-6.485));
#1733=CARTESIAN_POINT('Origin',(126.,-5.,-6.485));
#1734=CARTESIAN_POINT('Origin',(130.25,-5.00000000000001,-6.485));
#1735=CARTESIAN_POINT('Origin',(126.,-5.,-6.485));
#1736=CARTESIAN_POINT('Origin',(126.,-5.,0.));
#1737=CARTESIAN_POINT('',(123.75,-5.,0.));
#1738=CARTESIAN_POINT('',(123.75,-5.,0.));
#1739=CARTESIAN_POINT('Origin',(126.,-5.,0.));
#1740=CARTESIAN_POINT('Origin',(70.,-5.75,-6.485));
#1741=CARTESIAN_POINT('',(14.5,-7.75,-6.485));
#1742=CARTESIAN_POINT('Origin',(12.5,-5.75,-6.485));
#1743=CARTESIAN_POINT('',(24.5,-7.75,-6.485));
#1744=CARTESIAN_POINT('',(70.,-7.75,-6.485));
#1745=CARTESIAN_POINT('Origin',(26.5,-5.75,-6.485));
#1746=CARTESIAN_POINT('Origin',(12.5,-14.875,-6.485));
#1747=CARTESIAN_POINT('',(14.5,-15.75,-6.485));
#1748=CARTESIAN_POINT('Origin',(12.5,-17.75,-6.485));
#1749=CARTESIAN_POINT('',(14.5,-14.875,-6.485));
#1750=CARTESIAN_POINT('Origin',(26.5,-10.875,-6.485));
#1751=CARTESIAN_POINT('',(24.5,-15.75,-6.485));
#1752=CARTESIAN_POINT('',(24.5,-10.875,-6.485));
#1753=CARTESIAN_POINT('Origin',(26.5,-17.75,-6.485));
#1754=CARTESIAN_POINT('Origin',(74.,-17.75,-6.485));
#1755=CARTESIAN_POINT('',(74.,-15.75,-6.485));
#1756=CARTESIAN_POINT('Origin',(24.5,-7.75,0.));
#1757=CARTESIAN_POINT('',(24.5,-7.75,0.));
#1758=CARTESIAN_POINT('',(24.5,-7.75,0.));
#1759=CARTESIAN_POINT('',(24.5,-15.75,0.));
#1760=CARTESIAN_POINT('',(24.5,-9.75,0.));
#1761=CARTESIAN_POINT('',(24.5,-15.75,0.));
#1762=CARTESIAN_POINT('Origin',(14.5,-7.75,0.));
#1763=CARTESIAN_POINT('',(14.5,-7.75,0.));
#1764=CARTESIAN_POINT('',(14.5,-7.75,0.));
#1765=CARTESIAN_POINT('',(22.5,-7.75,0.));
#1766=CARTESIAN_POINT('Origin',(126.,-5.,0.));
#1767=CARTESIAN_POINT('Origin',(126.,-23.,0.));
#1768=CARTESIAN_POINT('Origin',(218.675328080141,-14.0000000000001,0.));
#1769=CARTESIAN_POINT('Origin',(14.5,-15.75,0.));
#1770=CARTESIAN_POINT('',(14.5,-15.75,0.));
#1771=CARTESIAN_POINT('',(14.5,-15.75,0.));
#1772=CARTESIAN_POINT('',(14.5,-7.75,0.));
#1773=CARTESIAN_POINT('Origin',(22.5,-15.75,0.));
#1774=CARTESIAN_POINT('',(14.5,-15.75,0.));
#1775=CARTESIAN_POINT('Origin',(18.5,-11.75,0.));
#1776=CARTESIAN_POINT('Origin',(125.5,-14.,-5.7));
#1777=CARTESIAN_POINT('',(250.25,-24.,-5.7));
#1778=CARTESIAN_POINT('Origin',(248.,-24.,-5.7));
#1779=CARTESIAN_POINT('Origin',(125.5,-14.,-5.7));
#1780=CARTESIAN_POINT('',(250.25,-4.,-5.7));
#1781=CARTESIAN_POINT('Origin',(248.,-4.,-5.7));
#1782=CARTESIAN_POINT('Origin',(4.,-4.,-1.38777878078145E-15));
#1783=CARTESIAN_POINT('Origin',(248.,-24.,-8.485));
#1784=CARTESIAN_POINT('',(250.25,-24.,0.));
#1785=CARTESIAN_POINT('Origin',(248.,-24.,0.));
#1786=CARTESIAN_POINT('',(250.25,-24.,-8.485));
#1787=CARTESIAN_POINT('Origin',(248.,-24.,-2.77555756156289E-16));
#1788=CARTESIAN_POINT('Origin',(4.,-4.,-1.38777878078145E-15));
#1789=CARTESIAN_POINT('Origin',(248.,-4.,-8.485));
#1790=CARTESIAN_POINT('',(250.25,-4.,-1.11022302462516E-15));
#1791=CARTESIAN_POINT('Origin',(248.,-4.,-1.11022302462516E-15));
#1792=CARTESIAN_POINT('',(250.25,-4.,-8.485));
#1793=CARTESIAN_POINT('Origin',(248.,-4.,-1.38777878078145E-15));
#1794=CARTESIAN_POINT('Origin',(1.00000042591002,2.99999999999998,-8.485));
#1795=UNCERTAINTY_MEASURE_WITH_UNIT(LENGTH_MEASURE(0.01),#1799,
'DISTANCE_ACCURACY_VALUE',
'Maximum model space distance between geometric entities at asserted c
onnectivities');
#1796=UNCERTAINTY_MEASURE_WITH_UNIT(LENGTH_MEASURE(0.01),#1799,
'DISTANCE_ACCURACY_VALUE',
'Maximum model space distance between geometric entities at asserted c
onnectivities');
#1797=(
GEOMETRIC_REPRESENTATION_CONTEXT(3)
GLOBAL_UNCERTAINTY_ASSIGNED_CONTEXT((#1795))
GLOBAL_UNIT_ASSIGNED_CONTEXT((#1799,#1800,#1801))
REPRESENTATION_CONTEXT('','3D')
);
#1798=(
GEOMETRIC_REPRESENTATION_CONTEXT(3)
GLOBAL_UNCERTAINTY_ASSIGNED_CONTEXT((#1796))
GLOBAL_UNIT_ASSIGNED_CONTEXT((#1799,#1800,#1801))
REPRESENTATION_CONTEXT('','3D')
);
#1799=(
LENGTH_UNIT()
NAMED_UNIT(*)
SI_UNIT(.MILLI.,.METRE.)
);
#1800=(
NAMED_UNIT(*)
PLANE_ANGLE_UNIT()
SI_UNIT($,.RADIAN.)
);
#1801=(
NAMED_UNIT(*)
SI_UNIT($,.STERADIAN.)
SOLID_ANGLE_UNIT()
);
#1802=SHAPE_DEFINITION_REPRESENTATION(#1803,#1804);
#1803=PRODUCT_DEFINITION_SHAPE('',$,#1806);
#1804=SHAPE_REPRESENTATION('',(#1027),#1797);
#1805=PRODUCT_DEFINITION_CONTEXT('part definition',#1810,'design');
#1806=PRODUCT_DEFINITION('board 1','glowbug v3 - for machining',#1807,#1805);
#1807=PRODUCT_DEFINITION_FORMATION('',$,#1812);
#1808=PRODUCT_RELATED_PRODUCT_CATEGORY('glowbug v3 - for machining',
'glowbug v3 - for machining',(#1812));
#1809=APPLICATION_PROTOCOL_DEFINITION('international standard',
'automotive_design',2009,#1810);
#1810=APPLICATION_CONTEXT(
'Core Data for Automotive Mechanical Design Process');
#1811=PRODUCT_CONTEXT('part definition',#1810,'mechanical');
#1812=PRODUCT('board 1','glowbug v3 - for machining',
'KiCad electronic assembly',(#1811));
#1813=PRESENTATION_STYLE_ASSIGNMENT((#1816));
#1814=PRESENTATION_STYLE_ASSIGNMENT((#1817));
#1815=PRESENTATION_STYLE_ASSIGNMENT((#1818));
#1816=SURFACE_STYLE_USAGE(.BOTH.,#1819);
#1817=SURFACE_STYLE_USAGE(.BOTH.,#1820);
#1818=SURFACE_STYLE_USAGE(.BOTH.,#1821);
#1819=SURFACE_SIDE_STYLE('',(#1822));
#1820=SURFACE_SIDE_STYLE('',(#1823));
#1821=SURFACE_SIDE_STYLE('',(#1824));
#1822=SURFACE_STYLE_FILL_AREA(#1825);
#1823=SURFACE_STYLE_FILL_AREA(#1826);
#1824=SURFACE_STYLE_FILL_AREA(#1827);
#1825=FILL_AREA_STYLE('Steel - Satin',(#1828));
#1826=FILL_AREA_STYLE('Aluminum - Bead Blasted',(#1829));
#1827=FILL_AREA_STYLE('Acrylic (Clear)',(#1830));
#1828=FILL_AREA_STYLE_COLOUR('Steel - Satin',#1831);
#1829=FILL_AREA_STYLE_COLOUR('Aluminum - Bead Blasted',#1832);
#1830=FILL_AREA_STYLE_COLOUR('Acrylic (Clear)',#1833);
#1831=COLOUR_RGB('Steel - Satin',0.627450980392157,0.627450980392157,0.627450980392157);
#1832=COLOUR_RGB('Aluminum - Bead Blasted',0.96078431372549,0.96078431372549,
0.964705882352941);
#1833=COLOUR_RGB('Acrylic (Clear)',0.964705882352941,0.964705882352941,
0.952941176470588);
ENDSEC;
END-ISO-10303-21;
