ISO-10303-21;
HEADER;
/* Generated by software containing ST-Developer
 * from STEP Tools, Inc. (www.steptools.com) 
 */

FILE_DESCRIPTION(
/* description */ ('KiCad electronic assembly'),
/* implementation_level */ '2;1');

FILE_NAME(
/* name */ 'glowbug v4 - for machining - smaller slit - floor.step',
/* time_stamp */ '2026-08-17T16:04:12-07:00',
/* author */ (''),
/* organization */ (''),
/* preprocessor_version */ 'ST-DEVELOPER v20.1',
/* originating_system */ 'Autodesk Translation Framework v15.8.0.0',
/* authorisation */ '');

FILE_SCHEMA (('AUTOMOTIVE_DESIGN { 1 0 10303 214 3 1 1 }'));
ENDSEC;

DATA;
#10=MECHANICAL_DESIGN_GEOMETRIC_PRESENTATION_REPRESENTATION('',(#13),#1547);
#11=SHAPE_REPRESENTATION_RELATIONSHIP('SRR','None',#1553,#12);
#12=ADVANCED_BREP_SHAPE_REPRESENTATION('',(#14),#1546);
#13=STYLED_ITEM('',(#1563),#14);
#14=MANIFOLD_SOLID_BREP('floor',#801);
#15=ELLIPSE('',#858,2.82842712474619,2.);
#16=ELLIPSE('',#859,2.82842712474619,2.);
#17=ELLIPSE('',#861,2.82842712474619,2.);
#18=ELLIPSE('',#863,2.82842712474619,2.);
#19=TOROIDAL_SURFACE('',#854,4.25,2.);
#20=TOROIDAL_SURFACE('',#865,4.25,2.);
#21=TOROIDAL_SURFACE('',#868,7.,2.);
#22=TOROIDAL_SURFACE('',#871,5.75000000000001,2.);
#23=TOROIDAL_SURFACE('',#876,5.75000000000001,2.);
#24=TOROIDAL_SURFACE('',#888,6.15,2.);
#25=TOROIDAL_SURFACE('',#897,6.15,2.);
#26=FACE_BOUND('',#150,.T.);
#27=FACE_BOUND('',#152,.T.);
#28=FACE_BOUND('',#161,.T.);
#29=FACE_BOUND('',#172,.T.);
#30=FACE_BOUND('',#181,.T.);
#31=FACE_BOUND('',#182,.T.);
#32=FACE_BOUND('',#183,.T.);
#33=FACE_BOUND('',#184,.T.);
#34=B_SPLINE_CURVE_WITH_KNOTS('',3,(#1200,#1201,#1202,#1203,#1204,#1205,
#1206,#1207,#1208,#1209,#1210,#1211),.UNSPECIFIED.,.F.,.F.,(4,2,2,2,2,4),
(-0.285941141746714,-0.237369756033207,-0.190086934768536,-0.122432386144849,
-0.0584122692944941,0.),.UNSPECIFIED.);
#35=B_SPLINE_CURVE_WITH_KNOTS('',3,(#1309,#1310,#1311,#1312,#1313,#1314,
#1315,#1316),.UNSPECIFIED.,.F.,.F.,(4,2,2,4),(1.54419827686058,1.61977339258938,
1.69534850831818,1.78237920245809),.UNSPECIFIED.);
#36=B_SPLINE_CURVE_WITH_KNOTS('',3,(#1318,#1319,#1320,#1321,#1322,#1323,
#1324,#1325,#1326,#1327,#1328,#1329),.UNSPECIFIED.,.F.,.F.,(4,2,2,2,2,4),
(-0.288551039017213,-0.241741909797847,-0.195196538725229,-0.12874152764239,
-0.0628704183084977,0.),.UNSPECIFIED.);
#37=B_SPLINE_CURVE_WITH_KNOTS('',3,(#1331,#1332,#1333,#1334,#1335,#1336,
#1337,#1338,#1339,#1340,#1341,#1342),.UNSPECIFIED.,.F.,.F.,(4,2,2,2,2,4),
(1.27796084619011,1.34920980117916,1.47472896022232,1.60024811926547,1.72576727830862,
1.87381720075781),.UNSPECIFIED.);
#38=B_SPLINE_CURVE_WITH_KNOTS('',3,(#1345,#1346,#1347,#1348,#1349,#1350,
#1351,#1352,#1353,#1354,#1355,#1356),.UNSPECIFIED.,.F.,.F.,(4,2,2,2,2,4),
(1.10324188490795,1.19583751483647,1.288433144765,1.39304804540298,1.46862316113178,
1.54419827686058),.UNSPECIFIED.);
#39=B_SPLINE_CURVE_WITH_KNOTS('',3,(#1365,#1366,#1367,#1368,#1369,#1370,
#1371,#1372,#1373,#1374,#1375,#1376,#1377),.UNSPECIFIED.,.F.,.F.,(4,2,2,
3,2,4),(-0.399088240535492,-0.25103831808631,-0.125519159043155,0.,0.125519159043155,
0.196768114032211),.UNSPECIFIED.);
#40=B_SPLINE_CURVE_WITH_KNOTS('',3,(#1379,#1380,#1381,#1382,#1383,#1384,
#1385,#1386,#1387,#1388,#1389,#1390),.UNSPECIFIED.,.F.,.F.,(4,2,2,2,2,4),
(-0.288276028870882,-0.240356961554112,-0.19252484937612,-0.126145835845666,
-0.0611927188036352,0.),.UNSPECIFIED.);
#41=B_SPLINE_CURVE_WITH_KNOTS('',3,(#1392,#1393,#1394,#1395,#1396,#1397,
#1398,#1399,#1400,#1401,#1402,#1403,#1404,#1405,#1406,#1407,#1408,#1409,
#1410),.UNSPECIFIED.,.F.,.F.,(4,2,2,3,2,2,2,2,4),(-0.238180925597503,-0.151150231457611,
-0.0755751157288054,0.,0.0755751157288056,0.151150231457611,0.25576513209558,
0.348360762024101,0.440956391952621),.UNSPECIFIED.);
#42=B_SPLINE_CURVE_WITH_KNOTS('',3,(#1432,#1433,#1434,#1435,#1436,#1437,
#1438,#1439,#1440,#1441),.UNSPECIFIED.,.F.,.F.,(4,2,2,2,4),(0.748877977849549,
0.774039914179158,0.814817308900893,0.952765230148267,1.01044555620466),
 .UNSPECIFIED.);
#43=B_SPLINE_CURVE_WITH_KNOTS('',3,(#1443,#1444,#1445,#1446,#1447,#1448,
#1449,#1450,#1451,#1452,#1453,#1454),.UNSPECIFIED.,.F.,.F.,(4,2,2,2,2,4),
(0.331473262455508,0.438954663099239,0.54643606374297,0.684383984990343,
0.725161379712078,0.750323316041687),.UNSPECIFIED.);
#44=B_SPLINE_CURVE_WITH_KNOTS('',3,(#1461,#1462,#1463,#1464,#1465,#1466,
#1467,#1468,#1469,#1470,#1471,#1472),.UNSPECIFIED.,.F.,.F.,(4,2,2,2,2,4),
(-0.286477755401995,-0.242220780721783,-0.200527828318272,-0.131329587102714,
-0.0637329330765466,0.),.UNSPECIFIED.);
#45=B_SPLINE_CURVE_WITH_KNOTS('',3,(#1478,#1479,#1480,#1481,#1482,#1483,
#1484,#1485,#1486,#1487,#1488,#1489),.UNSPECIFIED.,.F.,.F.,(4,2,2,2,2,4),
(1.22997189073001,1.32274316320057,1.44341804615148,1.5640929291024,1.68476781205331,
1.80903006878013),.UNSPECIFIED.);
#46=B_SPLINE_CURVE_WITH_KNOTS('',3,(#1504,#1505,#1506,#1507,#1508,#1509,
#1510,#1511,#1512,#1513),.UNSPECIFIED.,.F.,.F.,(4,2,2,2,4),(0.489326919578575,
0.579309456258392,0.694224081828401,0.727102247176887,0.748877977849552),
 .UNSPECIFIED.);
#47=B_SPLINE_CURVE_WITH_KNOTS('',3,(#1515,#1516,#1517,#1518,#1519,#1520,
#1521,#1522,#1523,#1524,#1525,#1526),.UNSPECIFIED.,.F.,.F.,(4,2,2,2,2,4),
(0.750323316041691,0.772099046714356,0.804977212062842,0.919891837632851,
1.05536371704018,1.16772803143573),.UNSPECIFIED.);
#48=B_SPLINE_CURVE_WITH_KNOTS('',3,(#1530,#1531,#1532,#1533,#1534,#1535,
#1536,#1537,#1538,#1539,#1540,#1541,#1542),.UNSPECIFIED.,.F.,.F.,(4,2,2,
3,2,4),(-0.365612022628654,-0.241349765901829,-0.120674882950914,0.,0.120674882950914,
0.213446155421474),.UNSPECIFIED.);
#49=PLANE('',#819);
#50=PLANE('',#820);
#51=PLANE('',#821);
#52=PLANE('',#824);
#53=PLANE('',#826);
#54=PLANE('',#828);
#55=PLANE('',#830);
#56=PLANE('',#832);
#57=PLANE('',#837);
#58=PLANE('',#838);
#59=PLANE('',#850);
#60=PLANE('',#874);
#61=PLANE('',#882);
#62=PLANE('',#885);
#63=PLANE('',#890);
#64=PLANE('',#894);
#65=PLANE('',#895);
#66=PLANE('',#896);
#67=CYLINDRICAL_SURFACE('',#805,1.2645);
#68=CYLINDRICAL_SURFACE('',#809,1.2645);
#69=CYLINDRICAL_SURFACE('',#813,1.2645);
#70=CYLINDRICAL_SURFACE('',#817,1.2645);
#71=CYLINDRICAL_SURFACE('',#822,1.80000042591001);
#72=CYLINDRICAL_SURFACE('',#834,2.25);
#73=CYLINDRICAL_SURFACE('',#839,2.25);
#74=CYLINDRICAL_SURFACE('',#842,5.);
#75=CYLINDRICAL_SURFACE('',#845,3.75000000000001);
#76=CYLINDRICAL_SURFACE('',#847,3.75000000000001);
#77=CYLINDRICAL_SURFACE('',#852,4.15);
#78=CYLINDRICAL_SURFACE('',#857,2.);
#79=CYLINDRICAL_SURFACE('',#860,2.);
#80=CYLINDRICAL_SURFACE('',#862,2.);
#81=CYLINDRICAL_SURFACE('',#864,2.);
#82=CYLINDRICAL_SURFACE('',#880,1.80000042591008);
#83=CYLINDRICAL_SURFACE('',#883,1.80000042591);
#84=CYLINDRICAL_SURFACE('',#886,1.80000042591002);
#85=CYLINDRICAL_SURFACE('',#892,4.15);
#86=FACE_OUTER_BOUND('',#134,.T.);
#87=FACE_OUTER_BOUND('',#135,.T.);
#88=FACE_OUTER_BOUND('',#136,.T.);
#89=FACE_OUTER_BOUND('',#137,.T.);
#90=FACE_OUTER_BOUND('',#138,.T.);
#91=FACE_OUTER_BOUND('',#139,.T.);
#92=FACE_OUTER_BOUND('',#140,.T.);
#93=FACE_OUTER_BOUND('',#141,.T.);
#94=FACE_OUTER_BOUND('',#142,.T.);
#95=FACE_OUTER_BOUND('',#143,.T.);
#96=FACE_OUTER_BOUND('',#144,.T.);
#97=FACE_OUTER_BOUND('',#145,.T.);
#98=FACE_OUTER_BOUND('',#146,.T.);
#99=FACE_OUTER_BOUND('',#147,.T.);
#100=FACE_OUTER_BOUND('',#148,.T.);
#101=FACE_OUTER_BOUND('',#149,.T.);
#102=FACE_OUTER_BOUND('',#151,.T.);
#103=FACE_OUTER_BOUND('',#153,.T.);
#104=FACE_OUTER_BOUND('',#154,.T.);
#105=FACE_OUTER_BOUND('',#155,.T.);
#106=FACE_OUTER_BOUND('',#156,.T.);
#107=FACE_OUTER_BOUND('',#157,.T.);
#108=FACE_OUTER_BOUND('',#158,.T.);
#109=FACE_OUTER_BOUND('',#159,.T.);
#110=FACE_OUTER_BOUND('',#160,.T.);
#111=FACE_OUTER_BOUND('',#162,.T.);
#112=FACE_OUTER_BOUND('',#163,.T.);
#113=FACE_OUTER_BOUND('',#164,.T.);
#114=FACE_OUTER_BOUND('',#165,.T.);
#115=FACE_OUTER_BOUND('',#166,.T.);
#116=FACE_OUTER_BOUND('',#167,.T.);
#117=FACE_OUTER_BOUND('',#168,.T.);
#118=FACE_OUTER_BOUND('',#169,.T.);
#119=FACE_OUTER_BOUND('',#170,.T.);
#120=FACE_OUTER_BOUND('',#171,.T.);
#121=FACE_OUTER_BOUND('',#173,.T.);
#122=FACE_OUTER_BOUND('',#174,.T.);
#123=FACE_OUTER_BOUND('',#175,.T.);
#124=FACE_OUTER_BOUND('',#176,.T.);
#125=FACE_OUTER_BOUND('',#177,.T.);
#126=FACE_OUTER_BOUND('',#178,.T.);
#127=FACE_OUTER_BOUND('',#179,.T.);
#128=FACE_OUTER_BOUND('',#180,.T.);
#129=FACE_OUTER_BOUND('',#185,.T.);
#130=FACE_OUTER_BOUND('',#186,.T.);
#131=FACE_OUTER_BOUND('',#187,.T.);
#132=FACE_OUTER_BOUND('',#188,.T.);
#133=FACE_OUTER_BOUND('',#189,.T.);
#134=EDGE_LOOP('',(#523,#524,#525));
#135=EDGE_LOOP('',(#526,#527,#528,#529));
#136=EDGE_LOOP('',(#530,#531,#532));
#137=EDGE_LOOP('',(#533,#534,#535,#536));
#138=EDGE_LOOP('',(#537,#538,#539));
#139=EDGE_LOOP('',(#540,#541,#542,#543));
#140=EDGE_LOOP('',(#544,#545,#546));
#141=EDGE_LOOP('',(#547,#548,#549,#550));
#142=EDGE_LOOP('',(#551,#552,#553,#554));
#143=EDGE_LOOP('',(#555,#556,#557,#558));
#144=EDGE_LOOP('',(#559,#560,#561,#562));
#145=EDGE_LOOP('',(#563,#564,#565,#566));
#146=EDGE_LOOP('',(#567));
#147=EDGE_LOOP('',(#568));
#148=EDGE_LOOP('',(#569));
#149=EDGE_LOOP('',(#570));
#150=EDGE_LOOP('',(#571));
#151=EDGE_LOOP('',(#572));
#152=EDGE_LOOP('',(#573));
#153=EDGE_LOOP('',(#574,#575,#576,#577,#578));
#154=EDGE_LOOP('',(#579,#580,#581,#582));
#155=EDGE_LOOP('',(#583,#584,#585,#586));
#156=EDGE_LOOP('',(#587,#588,#589,#590,#591));
#157=EDGE_LOOP('',(#592,#593,#594,#595,#596));
#158=EDGE_LOOP('',(#597,#598,#599,#600));
#159=EDGE_LOOP('',(#601,#602,#603,#604,#605));
#160=EDGE_LOOP('',(#606,#607));
#161=EDGE_LOOP('',(#608));
#162=EDGE_LOOP('',(#609,#610,#611,#612));
#163=EDGE_LOOP('',(#613,#614,#615,#616,#617));
#164=EDGE_LOOP('',(#618,#619,#620,#621));
#165=EDGE_LOOP('',(#622,#623,#624,#625));
#166=EDGE_LOOP('',(#626,#627,#628,#629));
#167=EDGE_LOOP('',(#630,#631,#632,#633));
#168=EDGE_LOOP('',(#634,#635,#636,#637,#638));
#169=EDGE_LOOP('',(#639,#640,#641,#642,#643));
#170=EDGE_LOOP('',(#644,#645,#646,#647,#648,#649,#650,#651));
#171=EDGE_LOOP('',(#652,#653));
#172=EDGE_LOOP('',(#654));
#173=EDGE_LOOP('',(#655,#656,#657,#658,#659,#660,#661,#662,#663));
#174=EDGE_LOOP('',(#664,#665,#666,#667));
#175=EDGE_LOOP('',(#668,#669,#670,#671,#672,#673,#674));
#176=EDGE_LOOP('',(#675,#676,#677,#678));
#177=EDGE_LOOP('',(#679,#680,#681,#682,#683,#684,#685,#686,#687,#688));
#178=EDGE_LOOP('',(#689,#690,#691,#692));
#179=EDGE_LOOP('',(#693,#694,#695,#696,#697,#698));
#180=EDGE_LOOP('',(#699,#700,#701,#702,#703,#704,#705,#706,#707));
#181=EDGE_LOOP('',(#708));
#182=EDGE_LOOP('',(#709));
#183=EDGE_LOOP('',(#710,#711,#712,#713));
#184=EDGE_LOOP('',(#714));
#185=EDGE_LOOP('',(#715,#716,#717,#718));
#186=EDGE_LOOP('',(#719,#720,#721,#722,#723,#724,#725,#726,#727,#728));
#187=EDGE_LOOP('',(#729,#730,#731,#732,#733,#734,#735,#736));
#188=EDGE_LOOP('',(#737,#738,#739,#740,#741,#742));
#189=EDGE_LOOP('',(#743,#744,#745,#746,#747,#748));
#190=LINE('',#1146,#241);
#191=LINE('',#1150,#242);
#192=LINE('',#1155,#243);
#193=LINE('',#1159,#244);
#194=LINE('',#1164,#245);
#195=LINE('',#1168,#246);
#196=LINE('',#1173,#247);
#197=LINE('',#1177,#248);
#198=LINE('',#1181,#249);
#199=LINE('',#1183,#250);
#200=LINE('',#1185,#251);
#201=LINE('',#1186,#252);
#202=LINE('',#1189,#253);
#203=LINE('',#1191,#254);
#204=LINE('',#1192,#255);
#205=LINE('',#1195,#256);
#206=LINE('',#1196,#257);
#207=LINE('',#1213,#258);
#208=LINE('',#1216,#259);
#209=LINE('',#1236,#260);
#210=LINE('',#1240,#261);
#211=LINE('',#1241,#262);
#212=LINE('',#1243,#263);
#213=LINE('',#1248,#264);
#214=LINE('',#1254,#265);
#215=LINE('',#1258,#266);
#216=LINE('',#1262,#267);
#217=LINE('',#1269,#268);
#218=LINE('',#1273,#269);
#219=LINE('',#1276,#270);
#220=LINE('',#1284,#271);
#221=LINE('',#1289,#272);
#222=LINE('',#1293,#273);
#223=LINE('',#1296,#274);
#224=LINE('',#1360,#275);
#225=LINE('',#1417,#276);
#226=LINE('',#1420,#277);
#227=LINE('',#1423,#278);
#228=LINE('',#1424,#279);
#229=LINE('',#1425,#280);
#230=LINE('',#1429,#281);
#231=LINE('',#1455,#282);
#232=LINE('',#1457,#283);
#233=LINE('',#1458,#284);
#234=LINE('',#1475,#285);
#235=LINE('',#1493,#286);
#236=LINE('',#1496,#287);
#237=LINE('',#1499,#288);
#238=LINE('',#1501,#289);
#239=LINE('',#1514,#290);
#240=LINE('',#1528,#291);
#241=VECTOR('',#904,0.63225);
#242=VECTOR('',#909,1.2645);
#243=VECTOR('',#914,0.63225);
#244=VECTOR('',#919,1.2645);
#245=VECTOR('',#924,0.63225);
#246=VECTOR('',#929,1.2645);
#247=VECTOR('',#934,0.63225);
#248=VECTOR('',#939,1.2645);
#249=VECTOR('',#942,10.);
#250=VECTOR('',#943,10.);
#251=VECTOR('',#944,10.);
#252=VECTOR('',#945,10.);
#253=VECTOR('',#948,10.);
#254=VECTOR('',#949,10.);
#255=VECTOR('',#950,10.);
#256=VECTOR('',#953,10.);
#257=VECTOR('',#954,10.);
#258=VECTOR('',#957,10.);
#259=VECTOR('',#960,10.);
#260=VECTOR('',#985,2.25);
#261=VECTOR('',#990,10.);
#262=VECTOR('',#991,10.);
#263=VECTOR('',#994,10.);
#264=VECTOR('',#999,2.25);
#265=VECTOR('',#1006,5.);
#266=VECTOR('',#1011,4.25000000000001);
#267=VECTOR('',#1016,4.25000000000001);
#268=VECTOR('',#1023,10.);
#269=VECTOR('',#1028,10.);
#270=VECTOR('',#1031,10.);
#271=VECTOR('',#1040,10.);
#272=VECTOR('',#1047,10.);
#273=VECTOR('',#1052,10.);
#274=VECTOR('',#1057,10.);
#275=VECTOR('',#1078,10.);
#276=VECTOR('',#1091,10.);
#277=VECTOR('',#1094,10.);
#278=VECTOR('',#1097,10.);
#279=VECTOR('',#1098,10.);
#280=VECTOR('',#1099,10.);
#281=VECTOR('',#1104,10.);
#282=VECTOR('',#1107,10.);
#283=VECTOR('',#1108,10.);
#284=VECTOR('',#1109,10.);
#285=VECTOR('',#1114,10.);
#286=VECTOR('',#1121,10.);
#287=VECTOR('',#1124,10.);
#288=VECTOR('',#1127,10.);
#289=VECTOR('',#1128,10.);
#290=VECTOR('',#1133,10.);
#291=VECTOR('',#1136,10.);
#292=CIRCLE('',#804,1.2645);
#293=CIRCLE('',#806,1.2645);
#294=CIRCLE('',#808,1.2645);
#295=CIRCLE('',#810,1.2645);
#296=CIRCLE('',#812,1.2645);
#297=CIRCLE('',#814,1.2645);
#298=CIRCLE('',#816,1.2645);
#299=CIRCLE('',#818,1.2645);
#300=CIRCLE('',#823,1.80000042591001);
#301=CIRCLE('',#825,2.25);
#302=CIRCLE('',#827,2.25);
#303=CIRCLE('',#829,5.);
#304=CIRCLE('',#831,3.75000000000001);
#305=CIRCLE('',#833,3.75000000000001);
#306=CIRCLE('',#835,2.25);
#307=CIRCLE('',#836,2.25);
#308=CIRCLE('',#840,2.25);
#309=CIRCLE('',#841,2.25);
#310=CIRCLE('',#843,5.);
#311=CIRCLE('',#844,5.);
#312=CIRCLE('',#846,3.75000000000001);
#313=CIRCLE('',#848,3.75000000000001);
#314=CIRCLE('',#849,3.75000000000001);
#315=CIRCLE('',#851,4.15);
#316=CIRCLE('',#853,4.15);
#317=CIRCLE('',#855,2.);
#318=CIRCLE('',#856,4.25);
#319=CIRCLE('',#866,2.);
#320=CIRCLE('',#867,4.25);
#321=CIRCLE('',#869,2.);
#322=CIRCLE('',#870,7.);
#323=CIRCLE('',#872,2.);
#324=CIRCLE('',#873,5.75000000000001);
#325=CIRCLE('',#875,4.15);
#326=CIRCLE('',#877,5.75000000000001);
#327=CIRCLE('',#878,2.);
#328=CIRCLE('',#879,5.75000000000001);
#329=CIRCLE('',#881,1.80000042591008);
#330=CIRCLE('',#884,1.80000042591);
#331=CIRCLE('',#887,1.80000042591002);
#332=CIRCLE('',#889,6.15);
#333=CIRCLE('',#891,6.15);
#334=CIRCLE('',#893,4.15);
#335=VERTEX_POINT('',#1143);
#336=VERTEX_POINT('',#1145);
#337=VERTEX_POINT('',#1148);
#338=VERTEX_POINT('',#1152);
#339=VERTEX_POINT('',#1154);
#340=VERTEX_POINT('',#1157);
#341=VERTEX_POINT('',#1161);
#342=VERTEX_POINT('',#1163);
#343=VERTEX_POINT('',#1166);
#344=VERTEX_POINT('',#1170);
#345=VERTEX_POINT('',#1172);
#346=VERTEX_POINT('',#1175);
#347=VERTEX_POINT('',#1179);
#348=VERTEX_POINT('',#1180);
#349=VERTEX_POINT('',#1182);
#350=VERTEX_POINT('',#1184);
#351=VERTEX_POINT('',#1188);
#352=VERTEX_POINT('',#1190);
#353=VERTEX_POINT('',#1194);
#354=VERTEX_POINT('',#1198);
#355=VERTEX_POINT('',#1199);
#356=VERTEX_POINT('',#1212);
#357=VERTEX_POINT('',#1214);
#358=VERTEX_POINT('',#1218);
#359=VERTEX_POINT('',#1221);
#360=VERTEX_POINT('',#1224);
#361=VERTEX_POINT('',#1227);
#362=VERTEX_POINT('',#1230);
#363=VERTEX_POINT('',#1233);
#364=VERTEX_POINT('',#1234);
#365=VERTEX_POINT('',#1239);
#366=VERTEX_POINT('',#1245);
#367=VERTEX_POINT('',#1246);
#368=VERTEX_POINT('',#1251);
#369=VERTEX_POINT('',#1252);
#370=VERTEX_POINT('',#1257);
#371=VERTEX_POINT('',#1261);
#372=VERTEX_POINT('',#1263);
#373=VERTEX_POINT('',#1267);
#374=VERTEX_POINT('',#1268);
#375=VERTEX_POINT('',#1272);
#376=VERTEX_POINT('',#1274);
#377=VERTEX_POINT('',#1278);
#378=VERTEX_POINT('',#1282);
#379=VERTEX_POINT('',#1283);
#380=VERTEX_POINT('',#1288);
#381=VERTEX_POINT('',#1292);
#382=VERTEX_POINT('',#1298);
#383=VERTEX_POINT('',#1302);
#384=VERTEX_POINT('',#1306);
#385=VERTEX_POINT('',#1308);
#386=VERTEX_POINT('',#1317);
#387=VERTEX_POINT('',#1330);
#388=VERTEX_POINT('',#1343);
#389=VERTEX_POINT('',#1358);
#390=VERTEX_POINT('',#1359);
#391=VERTEX_POINT('',#1363);
#392=VERTEX_POINT('',#1364);
#393=VERTEX_POINT('',#1378);
#394=VERTEX_POINT('',#1391);
#395=VERTEX_POINT('',#1411);
#396=VERTEX_POINT('',#1416);
#397=VERTEX_POINT('',#1418);
#398=VERTEX_POINT('',#1422);
#399=VERTEX_POINT('',#1427);
#400=VERTEX_POINT('',#1431);
#401=VERTEX_POINT('',#1442);
#402=VERTEX_POINT('',#1456);
#403=VERTEX_POINT('',#1460);
#404=VERTEX_POINT('',#1473);
#405=VERTEX_POINT('',#1477);
#406=VERTEX_POINT('',#1492);
#407=VERTEX_POINT('',#1494);
#408=VERTEX_POINT('',#1498);
#409=VERTEX_POINT('',#1500);
#410=EDGE_CURVE('',#335,#335,#292,.T.);
#411=EDGE_CURVE('',#335,#336,#190,.T.);
#412=EDGE_CURVE('',#337,#337,#293,.T.);
#413=EDGE_CURVE('',#337,#335,#191,.T.);
#414=EDGE_CURVE('',#338,#338,#294,.T.);
#415=EDGE_CURVE('',#338,#339,#192,.T.);
#416=EDGE_CURVE('',#340,#340,#295,.T.);
#417=EDGE_CURVE('',#340,#338,#193,.T.);
#418=EDGE_CURVE('',#341,#341,#296,.T.);
#419=EDGE_CURVE('',#341,#342,#194,.T.);
#420=EDGE_CURVE('',#343,#343,#297,.T.);
#421=EDGE_CURVE('',#343,#341,#195,.T.);
#422=EDGE_CURVE('',#344,#344,#298,.T.);
#423=EDGE_CURVE('',#344,#345,#196,.T.);
#424=EDGE_CURVE('',#346,#346,#299,.T.);
#425=EDGE_CURVE('',#346,#344,#197,.T.);
#426=EDGE_CURVE('',#347,#348,#198,.T.);
#427=EDGE_CURVE('',#349,#347,#199,.T.);
#428=EDGE_CURVE('',#350,#349,#200,.T.);
#429=EDGE_CURVE('',#348,#350,#201,.T.);
#430=EDGE_CURVE('',#350,#351,#202,.T.);
#431=EDGE_CURVE('',#352,#351,#203,.T.);
#432=EDGE_CURVE('',#348,#352,#204,.T.);
#433=EDGE_CURVE('',#349,#353,#205,.F.);
#434=EDGE_CURVE('',#351,#353,#206,.T.);
#435=EDGE_CURVE('',#354,#355,#34,.T.);
#436=EDGE_CURVE('',#356,#354,#207,.T.);
#437=EDGE_CURVE('',#357,#356,#300,.T.);
#438=EDGE_CURVE('',#357,#355,#208,.T.);
#439=EDGE_CURVE('',#358,#358,#301,.T.);
#440=EDGE_CURVE('',#359,#359,#302,.T.);
#441=EDGE_CURVE('',#360,#360,#303,.T.);
#442=EDGE_CURVE('',#361,#361,#304,.T.);
#443=EDGE_CURVE('',#362,#362,#305,.T.);
#444=EDGE_CURVE('',#363,#364,#306,.T.);
#445=EDGE_CURVE('',#363,#358,#209,.T.);
#446=EDGE_CURVE('',#364,#363,#307,.T.);
#447=EDGE_CURVE('',#365,#352,#210,.T.);
#448=EDGE_CURVE('',#347,#365,#211,.T.);
#449=EDGE_CURVE('',#353,#365,#212,.T.);
#450=EDGE_CURVE('',#366,#367,#308,.T.);
#451=EDGE_CURVE('',#366,#359,#213,.T.);
#452=EDGE_CURVE('',#367,#366,#309,.T.);
#453=EDGE_CURVE('',#368,#369,#310,.T.);
#454=EDGE_CURVE('',#368,#360,#214,.T.);
#455=EDGE_CURVE('',#369,#368,#311,.T.);
#456=EDGE_CURVE('',#361,#370,#215,.T.);
#457=EDGE_CURVE('',#370,#370,#312,.T.);
#458=EDGE_CURVE('',#362,#371,#216,.T.);
#459=EDGE_CURVE('',#372,#371,#313,.T.);
#460=EDGE_CURVE('',#371,#372,#314,.T.);
#461=EDGE_CURVE('',#373,#374,#217,.F.);
#462=EDGE_CURVE('',#374,#373,#315,.T.);
#463=EDGE_CURVE('',#374,#375,#218,.T.);
#464=EDGE_CURVE('',#376,#375,#316,.T.);
#465=EDGE_CURVE('',#376,#373,#219,.T.);
#466=EDGE_CURVE('',#364,#377,#317,.T.);
#467=EDGE_CURVE('',#377,#377,#318,.T.);
#468=EDGE_CURVE('',#378,#379,#220,.T.);
#469=EDGE_CURVE('',#379,#352,#15,.T.);
#470=EDGE_CURVE('',#378,#351,#16,.T.);
#471=EDGE_CURVE('',#379,#380,#221,.T.);
#472=EDGE_CURVE('',#365,#380,#17,.T.);
#473=EDGE_CURVE('',#380,#381,#222,.T.);
#474=EDGE_CURVE('',#381,#353,#18,.T.);
#475=EDGE_CURVE('',#381,#378,#223,.T.);
#476=EDGE_CURVE('',#367,#382,#319,.T.);
#477=EDGE_CURVE('',#382,#382,#320,.T.);
#478=EDGE_CURVE('',#369,#383,#321,.T.);
#479=EDGE_CURVE('',#383,#383,#322,.T.);
#480=EDGE_CURVE('',#370,#384,#323,.T.);
#481=EDGE_CURVE('',#384,#385,#35,.T.);
#482=EDGE_CURVE('',#385,#386,#36,.T.);
#483=EDGE_CURVE('',#386,#387,#37,.T.);
#484=EDGE_CURVE('',#387,#388,#324,.T.);
#485=EDGE_CURVE('',#388,#384,#38,.T.);
#486=EDGE_CURVE('',#389,#390,#224,.F.);
#487=EDGE_CURVE('',#390,#389,#325,.T.);
#488=EDGE_CURVE('',#391,#392,#39,.T.);
#489=EDGE_CURVE('',#392,#393,#40,.T.);
#490=EDGE_CURVE('',#393,#394,#41,.T.);
#491=EDGE_CURVE('',#394,#395,#326,.T.);
#492=EDGE_CURVE('',#395,#372,#327,.T.);
#493=EDGE_CURVE('',#395,#391,#328,.T.);
#494=EDGE_CURVE('',#396,#392,#225,.T.);
#495=EDGE_CURVE('',#397,#396,#329,.T.);
#496=EDGE_CURVE('',#397,#393,#226,.T.);
#497=EDGE_CURVE('',#398,#397,#227,.T.);
#498=EDGE_CURVE('',#398,#385,#228,.T.);
#499=EDGE_CURVE('',#394,#388,#229,.T.);
#500=EDGE_CURVE('',#399,#398,#330,.T.);
#501=EDGE_CURVE('',#399,#386,#230,.T.);
#502=EDGE_CURVE('',#375,#400,#42,.T.);
#503=EDGE_CURVE('',#401,#376,#43,.T.);
#504=EDGE_CURVE('',#387,#401,#231,.T.);
#505=EDGE_CURVE('',#402,#399,#232,.T.);
#506=EDGE_CURVE('',#402,#400,#233,.T.);
#507=EDGE_CURVE('',#400,#403,#44,.T.);
#508=EDGE_CURVE('',#404,#402,#331,.T.);
#509=EDGE_CURVE('',#404,#403,#234,.T.);
#510=EDGE_CURVE('',#403,#405,#45,.T.);
#511=EDGE_CURVE('',#405,#401,#332,.T.);
#512=EDGE_CURVE('',#405,#406,#235,.T.);
#513=EDGE_CURVE('',#407,#406,#333,.T.);
#514=EDGE_CURVE('',#407,#391,#236,.T.);
#515=EDGE_CURVE('',#408,#389,#237,.T.);
#516=EDGE_CURVE('',#390,#409,#238,.T.);
#517=EDGE_CURVE('',#408,#409,#334,.T.);
#518=EDGE_CURVE('',#355,#408,#46,.T.);
#519=EDGE_CURVE('',#396,#357,#239,.T.);
#520=EDGE_CURVE('',#409,#407,#47,.T.);
#521=EDGE_CURVE('',#356,#404,#240,.T.);
#522=EDGE_CURVE('',#406,#354,#48,.T.);
#523=ORIENTED_EDGE('',*,*,#410,.F.);
#524=ORIENTED_EDGE('',*,*,#411,.T.);
#525=ORIENTED_EDGE('',*,*,#411,.F.);
#526=ORIENTED_EDGE('',*,*,#412,.F.);
#527=ORIENTED_EDGE('',*,*,#413,.T.);
#528=ORIENTED_EDGE('',*,*,#410,.T.);
#529=ORIENTED_EDGE('',*,*,#413,.F.);
#530=ORIENTED_EDGE('',*,*,#414,.F.);
#531=ORIENTED_EDGE('',*,*,#415,.T.);
#532=ORIENTED_EDGE('',*,*,#415,.F.);
#533=ORIENTED_EDGE('',*,*,#416,.F.);
#534=ORIENTED_EDGE('',*,*,#417,.T.);
#535=ORIENTED_EDGE('',*,*,#414,.T.);
#536=ORIENTED_EDGE('',*,*,#417,.F.);
#537=ORIENTED_EDGE('',*,*,#418,.F.);
#538=ORIENTED_EDGE('',*,*,#419,.T.);
#539=ORIENTED_EDGE('',*,*,#419,.F.);
#540=ORIENTED_EDGE('',*,*,#420,.F.);
#541=ORIENTED_EDGE('',*,*,#421,.T.);
#542=ORIENTED_EDGE('',*,*,#418,.T.);
#543=ORIENTED_EDGE('',*,*,#421,.F.);
#544=ORIENTED_EDGE('',*,*,#422,.F.);
#545=ORIENTED_EDGE('',*,*,#423,.T.);
#546=ORIENTED_EDGE('',*,*,#423,.F.);
#547=ORIENTED_EDGE('',*,*,#424,.F.);
#548=ORIENTED_EDGE('',*,*,#425,.T.);
#549=ORIENTED_EDGE('',*,*,#422,.T.);
#550=ORIENTED_EDGE('',*,*,#425,.F.);
#551=ORIENTED_EDGE('',*,*,#426,.F.);
#552=ORIENTED_EDGE('',*,*,#427,.F.);
#553=ORIENTED_EDGE('',*,*,#428,.F.);
#554=ORIENTED_EDGE('',*,*,#429,.F.);
#555=ORIENTED_EDGE('',*,*,#429,.T.);
#556=ORIENTED_EDGE('',*,*,#430,.T.);
#557=ORIENTED_EDGE('',*,*,#431,.F.);
#558=ORIENTED_EDGE('',*,*,#432,.F.);
#559=ORIENTED_EDGE('',*,*,#428,.T.);
#560=ORIENTED_EDGE('',*,*,#433,.T.);
#561=ORIENTED_EDGE('',*,*,#434,.F.);
#562=ORIENTED_EDGE('',*,*,#430,.F.);
#563=ORIENTED_EDGE('',*,*,#435,.F.);
#564=ORIENTED_EDGE('',*,*,#436,.F.);
#565=ORIENTED_EDGE('',*,*,#437,.F.);
#566=ORIENTED_EDGE('',*,*,#438,.T.);
#567=ORIENTED_EDGE('',*,*,#439,.F.);
#568=ORIENTED_EDGE('',*,*,#440,.F.);
#569=ORIENTED_EDGE('',*,*,#441,.F.);
#570=ORIENTED_EDGE('',*,*,#442,.T.);
#571=ORIENTED_EDGE('',*,*,#412,.T.);
#572=ORIENTED_EDGE('',*,*,#443,.T.);
#573=ORIENTED_EDGE('',*,*,#424,.T.);
#574=ORIENTED_EDGE('',*,*,#444,.F.);
#575=ORIENTED_EDGE('',*,*,#445,.T.);
#576=ORIENTED_EDGE('',*,*,#439,.T.);
#577=ORIENTED_EDGE('',*,*,#445,.F.);
#578=ORIENTED_EDGE('',*,*,#446,.F.);
#579=ORIENTED_EDGE('',*,*,#426,.T.);
#580=ORIENTED_EDGE('',*,*,#432,.T.);
#581=ORIENTED_EDGE('',*,*,#447,.F.);
#582=ORIENTED_EDGE('',*,*,#448,.F.);
#583=ORIENTED_EDGE('',*,*,#427,.T.);
#584=ORIENTED_EDGE('',*,*,#448,.T.);
#585=ORIENTED_EDGE('',*,*,#449,.F.);
#586=ORIENTED_EDGE('',*,*,#433,.F.);
#587=ORIENTED_EDGE('',*,*,#450,.F.);
#588=ORIENTED_EDGE('',*,*,#451,.T.);
#589=ORIENTED_EDGE('',*,*,#440,.T.);
#590=ORIENTED_EDGE('',*,*,#451,.F.);
#591=ORIENTED_EDGE('',*,*,#452,.F.);
#592=ORIENTED_EDGE('',*,*,#453,.F.);
#593=ORIENTED_EDGE('',*,*,#454,.T.);
#594=ORIENTED_EDGE('',*,*,#441,.T.);
#595=ORIENTED_EDGE('',*,*,#454,.F.);
#596=ORIENTED_EDGE('',*,*,#455,.F.);
#597=ORIENTED_EDGE('',*,*,#442,.F.);
#598=ORIENTED_EDGE('',*,*,#456,.T.);
#599=ORIENTED_EDGE('',*,*,#457,.F.);
#600=ORIENTED_EDGE('',*,*,#456,.F.);
#601=ORIENTED_EDGE('',*,*,#443,.F.);
#602=ORIENTED_EDGE('',*,*,#458,.T.);
#603=ORIENTED_EDGE('',*,*,#459,.F.);
#604=ORIENTED_EDGE('',*,*,#460,.F.);
#605=ORIENTED_EDGE('',*,*,#458,.F.);
#606=ORIENTED_EDGE('',*,*,#461,.T.);
#607=ORIENTED_EDGE('',*,*,#462,.T.);
#608=ORIENTED_EDGE('',*,*,#416,.T.);
#609=ORIENTED_EDGE('',*,*,#463,.T.);
#610=ORIENTED_EDGE('',*,*,#464,.F.);
#611=ORIENTED_EDGE('',*,*,#465,.T.);
#612=ORIENTED_EDGE('',*,*,#462,.F.);
#613=ORIENTED_EDGE('',*,*,#444,.T.);
#614=ORIENTED_EDGE('',*,*,#466,.T.);
#615=ORIENTED_EDGE('',*,*,#467,.T.);
#616=ORIENTED_EDGE('',*,*,#466,.F.);
#617=ORIENTED_EDGE('',*,*,#446,.T.);
#618=ORIENTED_EDGE('',*,*,#468,.T.);
#619=ORIENTED_EDGE('',*,*,#469,.T.);
#620=ORIENTED_EDGE('',*,*,#431,.T.);
#621=ORIENTED_EDGE('',*,*,#470,.F.);
#622=ORIENTED_EDGE('',*,*,#471,.T.);
#623=ORIENTED_EDGE('',*,*,#472,.F.);
#624=ORIENTED_EDGE('',*,*,#447,.T.);
#625=ORIENTED_EDGE('',*,*,#469,.F.);
#626=ORIENTED_EDGE('',*,*,#449,.T.);
#627=ORIENTED_EDGE('',*,*,#472,.T.);
#628=ORIENTED_EDGE('',*,*,#473,.T.);
#629=ORIENTED_EDGE('',*,*,#474,.T.);
#630=ORIENTED_EDGE('',*,*,#475,.T.);
#631=ORIENTED_EDGE('',*,*,#470,.T.);
#632=ORIENTED_EDGE('',*,*,#434,.T.);
#633=ORIENTED_EDGE('',*,*,#474,.F.);
#634=ORIENTED_EDGE('',*,*,#450,.T.);
#635=ORIENTED_EDGE('',*,*,#476,.T.);
#636=ORIENTED_EDGE('',*,*,#477,.T.);
#637=ORIENTED_EDGE('',*,*,#476,.F.);
#638=ORIENTED_EDGE('',*,*,#452,.T.);
#639=ORIENTED_EDGE('',*,*,#453,.T.);
#640=ORIENTED_EDGE('',*,*,#478,.T.);
#641=ORIENTED_EDGE('',*,*,#479,.T.);
#642=ORIENTED_EDGE('',*,*,#478,.F.);
#643=ORIENTED_EDGE('',*,*,#455,.T.);
#644=ORIENTED_EDGE('',*,*,#457,.T.);
#645=ORIENTED_EDGE('',*,*,#480,.T.);
#646=ORIENTED_EDGE('',*,*,#481,.T.);
#647=ORIENTED_EDGE('',*,*,#482,.T.);
#648=ORIENTED_EDGE('',*,*,#483,.T.);
#649=ORIENTED_EDGE('',*,*,#484,.T.);
#650=ORIENTED_EDGE('',*,*,#485,.T.);
#651=ORIENTED_EDGE('',*,*,#480,.F.);
#652=ORIENTED_EDGE('',*,*,#486,.T.);
#653=ORIENTED_EDGE('',*,*,#487,.T.);
#654=ORIENTED_EDGE('',*,*,#420,.T.);
#655=ORIENTED_EDGE('',*,*,#488,.T.);
#656=ORIENTED_EDGE('',*,*,#489,.T.);
#657=ORIENTED_EDGE('',*,*,#490,.T.);
#658=ORIENTED_EDGE('',*,*,#491,.T.);
#659=ORIENTED_EDGE('',*,*,#492,.T.);
#660=ORIENTED_EDGE('',*,*,#459,.T.);
#661=ORIENTED_EDGE('',*,*,#460,.T.);
#662=ORIENTED_EDGE('',*,*,#492,.F.);
#663=ORIENTED_EDGE('',*,*,#493,.T.);
#664=ORIENTED_EDGE('',*,*,#489,.F.);
#665=ORIENTED_EDGE('',*,*,#494,.F.);
#666=ORIENTED_EDGE('',*,*,#495,.F.);
#667=ORIENTED_EDGE('',*,*,#496,.T.);
#668=ORIENTED_EDGE('',*,*,#490,.F.);
#669=ORIENTED_EDGE('',*,*,#496,.F.);
#670=ORIENTED_EDGE('',*,*,#497,.F.);
#671=ORIENTED_EDGE('',*,*,#498,.T.);
#672=ORIENTED_EDGE('',*,*,#481,.F.);
#673=ORIENTED_EDGE('',*,*,#485,.F.);
#674=ORIENTED_EDGE('',*,*,#499,.F.);
#675=ORIENTED_EDGE('',*,*,#482,.F.);
#676=ORIENTED_EDGE('',*,*,#498,.F.);
#677=ORIENTED_EDGE('',*,*,#500,.F.);
#678=ORIENTED_EDGE('',*,*,#501,.T.);
#679=ORIENTED_EDGE('',*,*,#502,.F.);
#680=ORIENTED_EDGE('',*,*,#463,.F.);
#681=ORIENTED_EDGE('',*,*,#461,.F.);
#682=ORIENTED_EDGE('',*,*,#465,.F.);
#683=ORIENTED_EDGE('',*,*,#503,.F.);
#684=ORIENTED_EDGE('',*,*,#504,.F.);
#685=ORIENTED_EDGE('',*,*,#483,.F.);
#686=ORIENTED_EDGE('',*,*,#501,.F.);
#687=ORIENTED_EDGE('',*,*,#505,.F.);
#688=ORIENTED_EDGE('',*,*,#506,.T.);
#689=ORIENTED_EDGE('',*,*,#507,.F.);
#690=ORIENTED_EDGE('',*,*,#506,.F.);
#691=ORIENTED_EDGE('',*,*,#508,.F.);
#692=ORIENTED_EDGE('',*,*,#509,.T.);
#693=ORIENTED_EDGE('',*,*,#510,.T.);
#694=ORIENTED_EDGE('',*,*,#511,.T.);
#695=ORIENTED_EDGE('',*,*,#503,.T.);
#696=ORIENTED_EDGE('',*,*,#464,.T.);
#697=ORIENTED_EDGE('',*,*,#502,.T.);
#698=ORIENTED_EDGE('',*,*,#507,.T.);
#699=ORIENTED_EDGE('',*,*,#512,.T.);
#700=ORIENTED_EDGE('',*,*,#513,.F.);
#701=ORIENTED_EDGE('',*,*,#514,.T.);
#702=ORIENTED_EDGE('',*,*,#493,.F.);
#703=ORIENTED_EDGE('',*,*,#491,.F.);
#704=ORIENTED_EDGE('',*,*,#499,.T.);
#705=ORIENTED_EDGE('',*,*,#484,.F.);
#706=ORIENTED_EDGE('',*,*,#504,.T.);
#707=ORIENTED_EDGE('',*,*,#511,.F.);
#708=ORIENTED_EDGE('',*,*,#479,.F.);
#709=ORIENTED_EDGE('',*,*,#477,.F.);
#710=ORIENTED_EDGE('',*,*,#475,.F.);
#711=ORIENTED_EDGE('',*,*,#473,.F.);
#712=ORIENTED_EDGE('',*,*,#471,.F.);
#713=ORIENTED_EDGE('',*,*,#468,.F.);
#714=ORIENTED_EDGE('',*,*,#467,.F.);
#715=ORIENTED_EDGE('',*,*,#515,.T.);
#716=ORIENTED_EDGE('',*,*,#487,.F.);
#717=ORIENTED_EDGE('',*,*,#516,.T.);
#718=ORIENTED_EDGE('',*,*,#517,.F.);
#719=ORIENTED_EDGE('',*,*,#518,.F.);
#720=ORIENTED_EDGE('',*,*,#438,.F.);
#721=ORIENTED_EDGE('',*,*,#519,.F.);
#722=ORIENTED_EDGE('',*,*,#494,.T.);
#723=ORIENTED_EDGE('',*,*,#488,.F.);
#724=ORIENTED_EDGE('',*,*,#514,.F.);
#725=ORIENTED_EDGE('',*,*,#520,.F.);
#726=ORIENTED_EDGE('',*,*,#516,.F.);
#727=ORIENTED_EDGE('',*,*,#486,.F.);
#728=ORIENTED_EDGE('',*,*,#515,.F.);
#729=ORIENTED_EDGE('',*,*,#505,.T.);
#730=ORIENTED_EDGE('',*,*,#500,.T.);
#731=ORIENTED_EDGE('',*,*,#497,.T.);
#732=ORIENTED_EDGE('',*,*,#495,.T.);
#733=ORIENTED_EDGE('',*,*,#519,.T.);
#734=ORIENTED_EDGE('',*,*,#437,.T.);
#735=ORIENTED_EDGE('',*,*,#521,.T.);
#736=ORIENTED_EDGE('',*,*,#508,.T.);
#737=ORIENTED_EDGE('',*,*,#522,.F.);
#738=ORIENTED_EDGE('',*,*,#512,.F.);
#739=ORIENTED_EDGE('',*,*,#510,.F.);
#740=ORIENTED_EDGE('',*,*,#509,.F.);
#741=ORIENTED_EDGE('',*,*,#521,.F.);
#742=ORIENTED_EDGE('',*,*,#436,.T.);
#743=ORIENTED_EDGE('',*,*,#522,.T.);
#744=ORIENTED_EDGE('',*,*,#435,.T.);
#745=ORIENTED_EDGE('',*,*,#518,.T.);
#746=ORIENTED_EDGE('',*,*,#517,.T.);
#747=ORIENTED_EDGE('',*,*,#520,.T.);
#748=ORIENTED_EDGE('',*,*,#513,.T.);
#749=CONICAL_SURFACE('',#803,0.63225,1.02974425867665);
#750=CONICAL_SURFACE('',#807,0.63225,1.02974425867665);
#751=CONICAL_SURFACE('',#811,0.63225,1.02974425867665);
#752=CONICAL_SURFACE('',#815,0.63225,1.02974425867665);
#753=ADVANCED_FACE('',(#86),#749,.F.);
#754=ADVANCED_FACE('',(#87),#67,.F.);
#755=ADVANCED_FACE('',(#88),#750,.F.);
#756=ADVANCED_FACE('',(#89),#68,.F.);
#757=ADVANCED_FACE('',(#90),#751,.F.);
#758=ADVANCED_FACE('',(#91),#69,.F.);
#759=ADVANCED_FACE('',(#92),#752,.F.);
#760=ADVANCED_FACE('',(#93),#70,.F.);
#761=ADVANCED_FACE('',(#94),#49,.F.);
#762=ADVANCED_FACE('',(#95),#50,.T.);
#763=ADVANCED_FACE('',(#96),#51,.T.);
#764=ADVANCED_FACE('',(#97),#71,.T.);
#765=ADVANCED_FACE('',(#98),#52,.F.);
#766=ADVANCED_FACE('',(#99),#53,.F.);
#767=ADVANCED_FACE('',(#100),#54,.F.);
#768=ADVANCED_FACE('',(#101,#26),#55,.T.);
#769=ADVANCED_FACE('',(#102,#27),#56,.T.);
#770=ADVANCED_FACE('',(#103),#72,.T.);
#771=ADVANCED_FACE('',(#104),#57,.T.);
#772=ADVANCED_FACE('',(#105),#58,.T.);
#773=ADVANCED_FACE('',(#106),#73,.T.);
#774=ADVANCED_FACE('',(#107),#74,.T.);
#775=ADVANCED_FACE('',(#108),#75,.T.);
#776=ADVANCED_FACE('',(#109),#76,.T.);
#777=ADVANCED_FACE('',(#110,#28),#59,.T.);
#778=ADVANCED_FACE('',(#111),#77,.T.);
#779=ADVANCED_FACE('',(#112),#19,.F.);
#780=ADVANCED_FACE('',(#113),#78,.F.);
#781=ADVANCED_FACE('',(#114),#79,.F.);
#782=ADVANCED_FACE('',(#115),#80,.F.);
#783=ADVANCED_FACE('',(#116),#81,.F.);
#784=ADVANCED_FACE('',(#117),#20,.F.);
#785=ADVANCED_FACE('',(#118),#21,.F.);
#786=ADVANCED_FACE('',(#119),#22,.F.);
#787=ADVANCED_FACE('',(#120,#29),#60,.T.);
#788=ADVANCED_FACE('',(#121),#23,.F.);
#789=ADVANCED_FACE('',(#122),#82,.T.);
#790=ADVANCED_FACE('',(#123),#61,.F.);
#791=ADVANCED_FACE('',(#124),#83,.T.);
#792=ADVANCED_FACE('',(#125),#62,.F.);
#793=ADVANCED_FACE('',(#126),#84,.T.);
#794=ADVANCED_FACE('',(#127),#24,.F.);
#795=ADVANCED_FACE('',(#128,#30,#31,#32,#33),#63,.F.);
#796=ADVANCED_FACE('',(#129),#85,.T.);
#797=ADVANCED_FACE('',(#130),#64,.F.);
#798=ADVANCED_FACE('',(#131),#65,.T.);
#799=ADVANCED_FACE('',(#132),#66,.F.);
#800=ADVANCED_FACE('',(#133),#25,.F.);
#801=CLOSED_SHELL('',(#753,#754,#755,#756,#757,#758,#759,#760,#761,#762,
#763,#764,#765,#766,#767,#768,#769,#770,#771,#772,#773,#774,#775,#776,#777,
#778,#779,#780,#781,#782,#783,#784,#785,#786,#787,#788,#789,#790,#791,#792,
#793,#794,#795,#796,#797,#798,#799,#800));
#802=AXIS2_PLACEMENT_3D('',#1141,#898,#899);
#803=AXIS2_PLACEMENT_3D('',#1142,#900,#901);
#804=AXIS2_PLACEMENT_3D('',#1144,#902,#903);
#805=AXIS2_PLACEMENT_3D('',#1147,#905,#906);
#806=AXIS2_PLACEMENT_3D('',#1149,#907,#908);
#807=AXIS2_PLACEMENT_3D('',#1151,#910,#911);
#808=AXIS2_PLACEMENT_3D('',#1153,#912,#913);
#809=AXIS2_PLACEMENT_3D('',#1156,#915,#916);
#810=AXIS2_PLACEMENT_3D('',#1158,#917,#918);
#811=AXIS2_PLACEMENT_3D('',#1160,#920,#921);
#812=AXIS2_PLACEMENT_3D('',#1162,#922,#923);
#813=AXIS2_PLACEMENT_3D('',#1165,#925,#926);
#814=AXIS2_PLACEMENT_3D('',#1167,#927,#928);
#815=AXIS2_PLACEMENT_3D('',#1169,#930,#931);
#816=AXIS2_PLACEMENT_3D('',#1171,#932,#933);
#817=AXIS2_PLACEMENT_3D('',#1174,#935,#936);
#818=AXIS2_PLACEMENT_3D('',#1176,#937,#938);
#819=AXIS2_PLACEMENT_3D('',#1178,#940,#941);
#820=AXIS2_PLACEMENT_3D('',#1187,#946,#947);
#821=AXIS2_PLACEMENT_3D('',#1193,#951,#952);
#822=AXIS2_PLACEMENT_3D('',#1197,#955,#956);
#823=AXIS2_PLACEMENT_3D('',#1215,#958,#959);
#824=AXIS2_PLACEMENT_3D('',#1217,#961,#962);
#825=AXIS2_PLACEMENT_3D('',#1219,#963,#964);
#826=AXIS2_PLACEMENT_3D('',#1220,#965,#966);
#827=AXIS2_PLACEMENT_3D('',#1222,#967,#968);
#828=AXIS2_PLACEMENT_3D('',#1223,#969,#970);
#829=AXIS2_PLACEMENT_3D('',#1225,#971,#972);
#830=AXIS2_PLACEMENT_3D('',#1226,#973,#974);
#831=AXIS2_PLACEMENT_3D('',#1228,#975,#976);
#832=AXIS2_PLACEMENT_3D('',#1229,#977,#978);
#833=AXIS2_PLACEMENT_3D('',#1231,#979,#980);
#834=AXIS2_PLACEMENT_3D('',#1232,#981,#982);
#835=AXIS2_PLACEMENT_3D('',#1235,#983,#984);
#836=AXIS2_PLACEMENT_3D('',#1237,#986,#987);
#837=AXIS2_PLACEMENT_3D('',#1238,#988,#989);
#838=AXIS2_PLACEMENT_3D('',#1242,#992,#993);
#839=AXIS2_PLACEMENT_3D('',#1244,#995,#996);
#840=AXIS2_PLACEMENT_3D('',#1247,#997,#998);
#841=AXIS2_PLACEMENT_3D('',#1249,#1000,#1001);
#842=AXIS2_PLACEMENT_3D('',#1250,#1002,#1003);
#843=AXIS2_PLACEMENT_3D('',#1253,#1004,#1005);
#844=AXIS2_PLACEMENT_3D('',#1255,#1007,#1008);
#845=AXIS2_PLACEMENT_3D('',#1256,#1009,#1010);
#846=AXIS2_PLACEMENT_3D('',#1259,#1012,#1013);
#847=AXIS2_PLACEMENT_3D('',#1260,#1014,#1015);
#848=AXIS2_PLACEMENT_3D('',#1264,#1017,#1018);
#849=AXIS2_PLACEMENT_3D('',#1265,#1019,#1020);
#850=AXIS2_PLACEMENT_3D('',#1266,#1021,#1022);
#851=AXIS2_PLACEMENT_3D('',#1270,#1024,#1025);
#852=AXIS2_PLACEMENT_3D('',#1271,#1026,#1027);
#853=AXIS2_PLACEMENT_3D('',#1275,#1029,#1030);
#854=AXIS2_PLACEMENT_3D('',#1277,#1032,#1033);
#855=AXIS2_PLACEMENT_3D('',#1279,#1034,#1035);
#856=AXIS2_PLACEMENT_3D('',#1280,#1036,#1037);
#857=AXIS2_PLACEMENT_3D('',#1281,#1038,#1039);
#858=AXIS2_PLACEMENT_3D('',#1285,#1041,#1042);
#859=AXIS2_PLACEMENT_3D('',#1286,#1043,#1044);
#860=AXIS2_PLACEMENT_3D('',#1287,#1045,#1046);
#861=AXIS2_PLACEMENT_3D('',#1290,#1048,#1049);
#862=AXIS2_PLACEMENT_3D('',#1291,#1050,#1051);
#863=AXIS2_PLACEMENT_3D('',#1294,#1053,#1054);
#864=AXIS2_PLACEMENT_3D('',#1295,#1055,#1056);
#865=AXIS2_PLACEMENT_3D('',#1297,#1058,#1059);
#866=AXIS2_PLACEMENT_3D('',#1299,#1060,#1061);
#867=AXIS2_PLACEMENT_3D('',#1300,#1062,#1063);
#868=AXIS2_PLACEMENT_3D('',#1301,#1064,#1065);
#869=AXIS2_PLACEMENT_3D('',#1303,#1066,#1067);
#870=AXIS2_PLACEMENT_3D('',#1304,#1068,#1069);
#871=AXIS2_PLACEMENT_3D('',#1305,#1070,#1071);
#872=AXIS2_PLACEMENT_3D('',#1307,#1072,#1073);
#873=AXIS2_PLACEMENT_3D('',#1344,#1074,#1075);
#874=AXIS2_PLACEMENT_3D('',#1357,#1076,#1077);
#875=AXIS2_PLACEMENT_3D('',#1361,#1079,#1080);
#876=AXIS2_PLACEMENT_3D('',#1362,#1081,#1082);
#877=AXIS2_PLACEMENT_3D('',#1412,#1083,#1084);
#878=AXIS2_PLACEMENT_3D('',#1413,#1085,#1086);
#879=AXIS2_PLACEMENT_3D('',#1414,#1087,#1088);
#880=AXIS2_PLACEMENT_3D('',#1415,#1089,#1090);
#881=AXIS2_PLACEMENT_3D('',#1419,#1092,#1093);
#882=AXIS2_PLACEMENT_3D('',#1421,#1095,#1096);
#883=AXIS2_PLACEMENT_3D('',#1426,#1100,#1101);
#884=AXIS2_PLACEMENT_3D('',#1428,#1102,#1103);
#885=AXIS2_PLACEMENT_3D('',#1430,#1105,#1106);
#886=AXIS2_PLACEMENT_3D('',#1459,#1110,#1111);
#887=AXIS2_PLACEMENT_3D('',#1474,#1112,#1113);
#888=AXIS2_PLACEMENT_3D('',#1476,#1115,#1116);
#889=AXIS2_PLACEMENT_3D('',#1490,#1117,#1118);
#890=AXIS2_PLACEMENT_3D('',#1491,#1119,#1120);
#891=AXIS2_PLACEMENT_3D('',#1495,#1122,#1123);
#892=AXIS2_PLACEMENT_3D('',#1497,#1125,#1126);
#893=AXIS2_PLACEMENT_3D('',#1502,#1129,#1130);
#894=AXIS2_PLACEMENT_3D('',#1503,#1131,#1132);
#895=AXIS2_PLACEMENT_3D('',#1527,#1134,#1135);
#896=AXIS2_PLACEMENT_3D('',#1529,#1137,#1138);
#897=AXIS2_PLACEMENT_3D('',#1543,#1139,#1140);
#898=DIRECTION('axis',(0.,0.,1.));
#899=DIRECTION('refdir',(1.,0.,0.));
#900=DIRECTION('center_axis',(0.,0.,1.));
#901=DIRECTION('ref_axis',(1.,0.,0.));
#902=DIRECTION('center_axis',(0.,0.,-1.));
#903=DIRECTION('ref_axis',(1.,0.,0.));
#904=DIRECTION('',(0.857167300702112,-1.04972719113862E-16,-0.515038074910054));
#905=DIRECTION('center_axis',(0.,0.,-1.));
#906=DIRECTION('ref_axis',(1.,0.,0.));
#907=DIRECTION('center_axis',(0.,0.,-1.));
#908=DIRECTION('ref_axis',(1.,0.,0.));
#909=DIRECTION('',(0.,0.,-1.));
#910=DIRECTION('center_axis',(0.,0.,1.));
#911=DIRECTION('ref_axis',(1.,0.,0.));
#912=DIRECTION('center_axis',(0.,0.,-1.));
#913=DIRECTION('ref_axis',(1.,0.,0.));
#914=DIRECTION('',(0.857167300702112,-1.04972719113862E-16,-0.515038074910054));
#915=DIRECTION('center_axis',(0.,0.,-1.));
#916=DIRECTION('ref_axis',(1.,0.,0.));
#917=DIRECTION('center_axis',(0.,0.,-1.));
#918=DIRECTION('ref_axis',(1.,0.,0.));
#919=DIRECTION('',(0.,0.,-1.));
#920=DIRECTION('center_axis',(0.,0.,1.));
#921=DIRECTION('ref_axis',(1.,0.,0.));
#922=DIRECTION('center_axis',(0.,0.,-1.));
#923=DIRECTION('ref_axis',(1.,0.,0.));
#924=DIRECTION('',(0.857167300702112,-1.04972719113862E-16,-0.515038074910054));
#925=DIRECTION('center_axis',(0.,0.,-1.));
#926=DIRECTION('ref_axis',(1.,0.,0.));
#927=DIRECTION('center_axis',(0.,0.,-1.));
#928=DIRECTION('ref_axis',(1.,0.,0.));
#929=DIRECTION('',(0.,0.,-1.));
#930=DIRECTION('center_axis',(0.,0.,1.));
#931=DIRECTION('ref_axis',(1.,0.,0.));
#932=DIRECTION('center_axis',(0.,0.,-1.));
#933=DIRECTION('ref_axis',(1.,0.,0.));
#934=DIRECTION('',(0.857167300702112,-1.04972719113862E-16,-0.515038074910054));
#935=DIRECTION('center_axis',(0.,0.,-1.));
#936=DIRECTION('ref_axis',(1.,0.,0.));
#937=DIRECTION('center_axis',(0.,0.,-1.));
#938=DIRECTION('ref_axis',(1.,0.,0.));
#939=DIRECTION('',(0.,0.,-1.));
#940=DIRECTION('center_axis',(0.,0.,-1.));
#941=DIRECTION('ref_axis',(-1.,0.,0.));
#942=DIRECTION('',(-1.,-2.04987443750404E-49,0.));
#943=DIRECTION('',(2.04987443750404E-49,-1.,0.));
#944=DIRECTION('',(1.,2.04987443750404E-49,0.));
#945=DIRECTION('',(-2.04987443750404E-49,1.,0.));
#946=DIRECTION('center_axis',(-1.,-2.04987443750404E-49,0.));
#947=DIRECTION('ref_axis',(-2.04987443750404E-49,1.,0.));
#948=DIRECTION('',(0.,0.,-1.));
#949=DIRECTION('',(-2.04987443750404E-49,1.,-1.224646799147E-16));
#950=DIRECTION('',(0.,0.,-1.));
#951=DIRECTION('center_axis',(-2.04987443750404E-49,1.,0.));
#952=DIRECTION('ref_axis',(1.,2.04987443750404E-49,0.));
#953=DIRECTION('',(0.,0.,1.));
#954=DIRECTION('',(1.,2.04987443750404E-49,-1.67384950414425E-33));
#955=DIRECTION('center_axis',(0.,0.,1.));
#956=DIRECTION('ref_axis',(1.3260994100806E-14,-1.,0.));
#957=DIRECTION('',(0.,0.,1.));
#958=DIRECTION('center_axis',(-1.67384950414425E-33,-1.224646799147E-16,
-1.));
#959=DIRECTION('ref_axis',(1.3260994100806E-14,-1.,0.));
#960=DIRECTION('',(0.,0.,1.));
#961=DIRECTION('center_axis',(0.,0.,-1.));
#962=DIRECTION('ref_axis',(1.,2.04987443750404E-49,0.));
#963=DIRECTION('center_axis',(0.,0.,-1.));
#964=DIRECTION('ref_axis',(1.,2.04987443750404E-49,0.));
#965=DIRECTION('center_axis',(0.,0.,-1.));
#966=DIRECTION('ref_axis',(1.,2.04987443750404E-49,0.));
#967=DIRECTION('center_axis',(0.,0.,-1.));
#968=DIRECTION('ref_axis',(1.,2.04987443750404E-49,0.));
#969=DIRECTION('center_axis',(0.,0.,-1.));
#970=DIRECTION('ref_axis',(1.,2.04987443750404E-49,0.));
#971=DIRECTION('center_axis',(0.,0.,-1.));
#972=DIRECTION('ref_axis',(1.,2.04987443750404E-49,0.));
#973=DIRECTION('center_axis',(0.,0.,1.));
#974=DIRECTION('ref_axis',(-1.,-2.04987443750404E-49,0.));
#975=DIRECTION('center_axis',(0.,0.,1.));
#976=DIRECTION('ref_axis',(-1.,-2.04987443750404E-49,0.));
#977=DIRECTION('center_axis',(0.,0.,1.));
#978=DIRECTION('ref_axis',(-1.,-2.04987443750404E-49,0.));
#979=DIRECTION('center_axis',(0.,0.,1.));
#980=DIRECTION('ref_axis',(-1.,-2.04987443750404E-49,0.));
#981=DIRECTION('center_axis',(0.,0.,-1.));
#982=DIRECTION('ref_axis',(1.,2.04987443750404E-49,0.));
#983=DIRECTION('center_axis',(-1.67384950414425E-33,-1.224646799147E-16,
-1.));
#984=DIRECTION('ref_axis',(1.,1.08857493257511E-16,0.));
#985=DIRECTION('',(0.,0.,1.));
#986=DIRECTION('center_axis',(-1.67384950414425E-33,-1.224646799147E-16,
-1.));
#987=DIRECTION('ref_axis',(1.,1.08857493257511E-16,0.));
#988=DIRECTION('center_axis',(2.04987443750404E-49,-1.,0.));
#989=DIRECTION('ref_axis',(-1.,-2.04987443750404E-49,0.));
#990=DIRECTION('',(-1.,-2.04987443750404E-49,1.67384950414425E-33));
#991=DIRECTION('',(0.,0.,-1.));
#992=DIRECTION('center_axis',(1.,2.04987443750404E-49,0.));
#993=DIRECTION('ref_axis',(2.04987443750404E-49,-1.,0.));
#994=DIRECTION('',(2.04987443750404E-49,-1.,1.224646799147E-16));
#995=DIRECTION('center_axis',(0.,0.,-1.));
#996=DIRECTION('ref_axis',(1.,2.04987443750404E-49,0.));
#997=DIRECTION('center_axis',(-1.67384950414425E-33,-1.224646799147E-16,
-1.));
#998=DIRECTION('ref_axis',(1.,1.08857493257511E-16,0.));
#999=DIRECTION('',(0.,0.,1.));
#1000=DIRECTION('center_axis',(-1.67384950414425E-33,-1.224646799147E-16,
-1.));
#1001=DIRECTION('ref_axis',(1.,1.08857493257511E-16,0.));
#1002=DIRECTION('center_axis',(0.,0.,-1.));
#1003=DIRECTION('ref_axis',(1.,2.04987443750404E-49,0.));
#1004=DIRECTION('center_axis',(-1.67384950414425E-33,-1.224646799147E-16,
-1.));
#1005=DIRECTION('ref_axis',(1.,4.898587196588E-17,0.));
#1006=DIRECTION('',(0.,0.,1.));
#1007=DIRECTION('center_axis',(-1.67384950414425E-33,-1.224646799147E-16,
-1.));
#1008=DIRECTION('ref_axis',(1.,4.898587196588E-17,0.));
#1009=DIRECTION('center_axis',(0.,0.,1.));
#1010=DIRECTION('ref_axis',(-1.,-2.04987443750404E-49,0.));
#1011=DIRECTION('',(0.,0.,-1.));
#1012=DIRECTION('center_axis',(-1.67384950414425E-33,-1.224646799147E-16,
-1.));
#1013=DIRECTION('ref_axis',(-1.,6.53144959545067E-17,0.));
#1014=DIRECTION('center_axis',(0.,0.,1.));
#1015=DIRECTION('ref_axis',(-1.,-2.04987443750404E-49,0.));
#1016=DIRECTION('',(0.,0.,-1.));
#1017=DIRECTION('center_axis',(-1.67384950414425E-33,-1.224646799147E-16,
-1.));
#1018=DIRECTION('ref_axis',(-1.,6.53144959545067E-17,0.));
#1019=DIRECTION('center_axis',(-1.67384950414425E-33,-1.224646799147E-16,
-1.));
#1020=DIRECTION('ref_axis',(-1.,6.53144959545067E-17,0.));
#1021=DIRECTION('center_axis',(0.,0.,1.));
#1022=DIRECTION('ref_axis',(-1.,-2.04987443750404E-49,0.));
#1023=DIRECTION('',(1.,3.35797878827797E-17,0.));
#1024=DIRECTION('center_axis',(0.,0.,1.));
#1025=DIRECTION('ref_axis',(-1.,-2.04987443750404E-49,0.));
#1026=DIRECTION('center_axis',(0.,0.,1.));
#1027=DIRECTION('ref_axis',(-6.12323399573677E-17,-1.,0.));
#1028=DIRECTION('',(0.,0.,-1.));
#1029=DIRECTION('center_axis',(-1.67384950414425E-33,-1.224646799147E-16,
-1.));
#1030=DIRECTION('ref_axis',(-1.,5.90191228504579E-17,0.));
#1031=DIRECTION('',(0.,0.,1.));
#1032=DIRECTION('center_axis',(-1.67384950414425E-33,-1.224646799147E-16,
-1.));
#1033=DIRECTION('ref_axis',(-1.,0.,0.));
#1034=DIRECTION('center_axis',(0.,-1.,1.224646799147E-16));
#1035=DIRECTION('ref_axis',(1.,0.,0.));
#1036=DIRECTION('center_axis',(1.67384950414425E-33,1.224646799147E-16,
1.));
#1037=DIRECTION('ref_axis',(1.,1.08857493257511E-16,-1.5005047572242E-32));
#1038=DIRECTION('center_axis',(-2.04987443750404E-49,1.,-1.224646799147E-16));
#1039=DIRECTION('ref_axis',(0.707106781186548,1.44948011534007E-49,-0.707106781186548));
#1040=DIRECTION('',(2.04987443750404E-49,-1.,1.224646799147E-16));
#1041=DIRECTION('center_axis',(0.707106781186547,-0.707106781186548,0.));
#1042=DIRECTION('ref_axis',(-0.707106781186548,-0.707106781186547,1.73191211247049E-16));
#1043=DIRECTION('center_axis',(-0.707106781186547,-0.707106781186548,0.));
#1044=DIRECTION('ref_axis',(-0.707106781186548,0.707106781186547,2.36718067013227E-33));
#1045=DIRECTION('center_axis',(-1.,-2.04987443750404E-49,1.67384950414425E-33));
#1046=DIRECTION('ref_axis',(-1.44948011534007E-49,0.707106781186547,-0.707106781186548));
#1047=DIRECTION('',(1.,2.04987443750404E-49,-1.67384950414425E-33));
#1048=DIRECTION('center_axis',(-0.707106781186547,-0.707106781186548,0.));
#1049=DIRECTION('ref_axis',(-0.707106781186548,0.707106781186547,-1.73191211247049E-16));
#1050=DIRECTION('center_axis',(2.04987443750404E-49,-1.,1.224646799147E-16));
#1051=DIRECTION('ref_axis',(-0.707106781186548,-1.44948011534007E-49,-0.707106781186548));
#1052=DIRECTION('',(-2.04987443750404E-49,1.,-1.224646799147E-16));
#1053=DIRECTION('center_axis',(-0.707106781186547,0.707106781186548,0.));
#1054=DIRECTION('ref_axis',(0.707106781186548,0.707106781186547,-1.73191211247049E-16));
#1055=DIRECTION('center_axis',(1.,2.04987443750404E-49,-1.67384950414425E-33));
#1056=DIRECTION('ref_axis',(1.44948011534007E-49,-0.707106781186547,-0.707106781186548));
#1057=DIRECTION('',(-1.,-2.04987443750404E-49,1.67384950414425E-33));
#1058=DIRECTION('center_axis',(-1.67384950414425E-33,-1.224646799147E-16,
-1.));
#1059=DIRECTION('ref_axis',(-1.,0.,0.));
#1060=DIRECTION('center_axis',(-1.77635683940025E-16,-1.,1.224646799147E-16));
#1061=DIRECTION('ref_axis',(1.,-1.77635683940025E-16,0.));
#1062=DIRECTION('center_axis',(1.67384950414425E-33,1.224646799147E-16,
1.));
#1063=DIRECTION('ref_axis',(1.,1.08857493257511E-16,-1.5005047572242E-32));
#1064=DIRECTION('center_axis',(-1.67384950414425E-33,-1.224646799147E-16,
-1.));
#1065=DIRECTION('ref_axis',(-1.,0.,0.));
#1066=DIRECTION('center_axis',(0.,-1.,1.224646799147E-16));
#1067=DIRECTION('ref_axis',(1.,0.,0.));
#1068=DIRECTION('center_axis',(1.67384950414425E-33,1.224646799147E-16,
1.));
#1069=DIRECTION('ref_axis',(1.,4.898587196588E-17,-7.67288863478822E-33));
#1070=DIRECTION('center_axis',(-1.67384950414425E-33,-1.224646799147E-16,
-1.));
#1071=DIRECTION('ref_axis',(-1.,0.,0.));
#1072=DIRECTION('center_axis',(-1.432545838226E-16,-1.,1.224646799147E-16));
#1073=DIRECTION('ref_axis',(1.,-1.432545838226E-16,0.));
#1074=DIRECTION('center_axis',(1.67384950414425E-33,1.224646799147E-16,
1.));
#1075=DIRECTION('ref_axis',(-1.,6.53144959545067E-17,-6.32486933671439E-33));
#1076=DIRECTION('center_axis',(0.,0.,1.));
#1077=DIRECTION('ref_axis',(-1.,-2.04987443750404E-49,0.));
#1078=DIRECTION('',(-1.,-1.78349080871195E-17,0.));
#1079=DIRECTION('center_axis',(0.,0.,1.));
#1080=DIRECTION('ref_axis',(-1.,-2.04987443750404E-49,0.));
#1081=DIRECTION('center_axis',(1.67384950414425E-33,1.224646799147E-16,
1.));
#1082=DIRECTION('ref_axis',(1.,0.,0.));
#1083=DIRECTION('center_axis',(1.67384950414425E-33,1.224646799147E-16,
1.));
#1084=DIRECTION('ref_axis',(-1.,6.53144959545067E-17,-6.32486933671439E-33));
#1085=DIRECTION('center_axis',(0.,-1.,1.224646799147E-16));
#1086=DIRECTION('ref_axis',(-1.,0.,0.));
#1087=DIRECTION('center_axis',(1.67384950414425E-33,1.224646799147E-16,
1.));
#1088=DIRECTION('ref_axis',(-1.,6.53144959545067E-17,-6.32486933671439E-33));
#1089=DIRECTION('center_axis',(0.,0.,1.));
#1090=DIRECTION('ref_axis',(1.,-9.86864677269244E-15,0.));
#1091=DIRECTION('',(0.,0.,1.));
#1092=DIRECTION('center_axis',(-1.67384950414425E-33,-1.224646799147E-16,
-1.));
#1093=DIRECTION('ref_axis',(1.,-9.86864677269244E-15,0.));
#1094=DIRECTION('',(0.,0.,1.));
#1095=DIRECTION('center_axis',(-1.,-1.45008726625382E-15,0.));
#1096=DIRECTION('ref_axis',(1.45008726625382E-15,-1.,-2.5738142043967E-47));
#1097=DIRECTION('',(1.45008726625382E-15,-1.,1.224646799147E-16));
#1098=DIRECTION('',(0.,0.,1.));
#1099=DIRECTION('',(-1.45008726625382E-15,1.,-1.224646799147E-16));
#1100=DIRECTION('center_axis',(0.,0.,1.));
#1101=DIRECTION('ref_axis',(-1.97372935453857E-14,1.,0.));
#1102=DIRECTION('center_axis',(-1.67384950414425E-33,-1.224646799147E-16,
-1.));
#1103=DIRECTION('ref_axis',(-1.97372935453857E-14,1.,0.));
#1104=DIRECTION('',(0.,0.,1.));
#1105=DIRECTION('center_axis',(3.35797878827797E-17,-1.,0.));
#1106=DIRECTION('ref_axis',(1.,3.35797878827797E-17,1.78206572570179E-34));
#1107=DIRECTION('',(-1.,-3.35797878827797E-17,5.78618747881238E-33));
#1108=DIRECTION('',(1.,3.35797878827797E-17,-5.78618747881238E-33));
#1109=DIRECTION('',(0.,0.,1.));
#1110=DIRECTION('center_axis',(0.,0.,1.));
#1111=DIRECTION('ref_axis',(-1.,-7.70988029116622E-16,0.));
#1112=DIRECTION('center_axis',(-1.67384950414425E-33,-1.224646799147E-16,
-1.));
#1113=DIRECTION('ref_axis',(-1.,-7.70988029116622E-16,0.));
#1114=DIRECTION('',(0.,0.,1.));
#1115=DIRECTION('center_axis',(-1.67384950414425E-33,-1.224646799147E-16,
-1.));
#1116=DIRECTION('ref_axis',(-5.44894736012347E-17,-1.,1.63468420803704E-16));
#1117=DIRECTION('center_axis',(1.67384950414425E-33,1.224646799147E-16,
1.));
#1118=DIRECTION('ref_axis',(-1.,5.90191228504579E-17,-5.55390848458343E-33));
#1119=DIRECTION('center_axis',(-1.67384950414425E-33,-1.224646799147E-16,
-1.));
#1120=DIRECTION('ref_axis',(-1.,1.79945674220458E-55,1.67384950414425E-33));
#1121=DIRECTION('',(1.04791462600373E-15,-1.,1.224646799147E-16));
#1122=DIRECTION('center_axis',(1.67384950414425E-33,1.224646799147E-16,
1.));
#1123=DIRECTION('ref_axis',(-1.,5.90191228504579E-17,-5.55390848458343E-33));
#1124=DIRECTION('',(1.,1.78349080871195E-17,-3.85799581434143E-33));
#1125=DIRECTION('center_axis',(0.,0.,1.));
#1126=DIRECTION('ref_axis',(-6.12323399573677E-17,1.,0.));
#1127=DIRECTION('',(0.,0.,1.));
#1128=DIRECTION('',(0.,0.,-1.));
#1129=DIRECTION('center_axis',(-1.67384950414425E-33,-1.224646799147E-16,
-1.));
#1130=DIRECTION('ref_axis',(-1.,5.90191228504579E-17,0.));
#1131=DIRECTION('center_axis',(-1.78349080871195E-17,1.,0.));
#1132=DIRECTION('ref_axis',(-1.,-1.78349080871195E-17,0.));
#1133=DIRECTION('',(-1.,-1.78349080871195E-17,3.85799581434143E-33));
#1134=DIRECTION('center_axis',(-1.67384950414425E-33,-1.224646799147E-16,
-1.));
#1135=DIRECTION('ref_axis',(-1.,1.79945674220458E-55,1.67384950414425E-33));
#1136=DIRECTION('',(-1.04791462600373E-15,1.,-1.224646799147E-16));
#1137=DIRECTION('center_axis',(1.,1.04791462600373E-15,0.));
#1138=DIRECTION('ref_axis',(-1.04791462600373E-15,1.,0.));
#1139=DIRECTION('center_axis',(1.67384950414425E-33,1.224646799147E-16,
1.));
#1140=DIRECTION('ref_axis',(-1.63468420803704E-16,1.,-1.63468420803704E-16));
#1141=CARTESIAN_POINT('',(0.,0.,0.));
#1142=CARTESIAN_POINT('Origin',(248.,-4.,-6.07989412638018));
#1143=CARTESIAN_POINT('',(246.7355,-4.,-5.7));
#1144=CARTESIAN_POINT('Origin',(248.,-4.,-5.7));
#1145=CARTESIAN_POINT('',(248.,-4.,-6.45978825276035));
#1146=CARTESIAN_POINT('',(247.36775,-4.,-6.07989412638018));
#1147=CARTESIAN_POINT('Origin',(248.,-4.,-2.85));
#1148=CARTESIAN_POINT('',(246.7355,-4.,-1.11022302462516E-15));
#1149=CARTESIAN_POINT('Origin',(248.,-4.,-1.11022302462516E-15));
#1150=CARTESIAN_POINT('',(246.7355,-4.,-2.85));
#1151=CARTESIAN_POINT('Origin',(4.,-4.,-6.07989412638018));
#1152=CARTESIAN_POINT('',(2.7355,-4.,-5.7));
#1153=CARTESIAN_POINT('Origin',(4.,-4.,-5.7));
#1154=CARTESIAN_POINT('',(4.,-4.,-6.45978825276035));
#1155=CARTESIAN_POINT('',(3.36775,-4.,-6.07989412638018));
#1156=CARTESIAN_POINT('Origin',(4.,-4.,-2.85));
#1157=CARTESIAN_POINT('',(2.7355,-4.,-1.11022302462516E-15));
#1158=CARTESIAN_POINT('Origin',(4.,-4.,-1.11022302462516E-15));
#1159=CARTESIAN_POINT('',(2.7355,-4.,-2.85));
#1160=CARTESIAN_POINT('Origin',(4.,-24.,-6.07989412638018));
#1161=CARTESIAN_POINT('',(2.7355,-24.,-5.7));
#1162=CARTESIAN_POINT('Origin',(4.,-24.,-5.7));
#1163=CARTESIAN_POINT('',(4.,-24.,-6.45978825276035));
#1164=CARTESIAN_POINT('',(3.36775,-24.,-6.07989412638018));
#1165=CARTESIAN_POINT('Origin',(4.,-24.,-2.85));
#1166=CARTESIAN_POINT('',(2.7355,-24.,-1.11022302462516E-15));
#1167=CARTESIAN_POINT('Origin',(4.,-24.,-1.11022302462516E-15));
#1168=CARTESIAN_POINT('',(2.7355,-24.,-2.85));
#1169=CARTESIAN_POINT('Origin',(248.,-24.,-6.07989412638018));
#1170=CARTESIAN_POINT('',(246.7355,-24.,-5.7));
#1171=CARTESIAN_POINT('Origin',(248.,-24.,-5.7));
#1172=CARTESIAN_POINT('',(248.,-24.,-6.45978825276035));
#1173=CARTESIAN_POINT('',(247.36775,-24.,-6.07989412638018));
#1174=CARTESIAN_POINT('Origin',(248.,-24.,-2.85));
#1175=CARTESIAN_POINT('',(246.7355,-24.,0.));
#1176=CARTESIAN_POINT('Origin',(248.,-24.,0.));
#1177=CARTESIAN_POINT('',(246.7355,-24.,-2.85));
#1178=CARTESIAN_POINT('Origin',(18.5,-11.75,0.));
#1179=CARTESIAN_POINT('',(24.5,-15.75,0.));
#1180=CARTESIAN_POINT('',(14.5,-15.75,0.));
#1181=CARTESIAN_POINT('',(20.5,-15.75,0.));
#1182=CARTESIAN_POINT('',(24.5,-7.75,0.));
#1183=CARTESIAN_POINT('',(24.5,-9.75,0.));
#1184=CARTESIAN_POINT('',(14.5,-7.75,0.));
#1185=CARTESIAN_POINT('',(16.5,-7.75,0.));
#1186=CARTESIAN_POINT('',(14.5,-13.75,0.));
#1187=CARTESIAN_POINT('Origin',(14.5,-15.75,3.));
#1188=CARTESIAN_POINT('',(14.5,-7.75,-3.485));
#1189=CARTESIAN_POINT('',(14.5,-7.75,3.));
#1190=CARTESIAN_POINT('',(14.5,-15.75,-3.485));
#1191=CARTESIAN_POINT('',(14.5,-14.875,-3.485));
#1192=CARTESIAN_POINT('',(14.5,-15.75,3.));
#1193=CARTESIAN_POINT('Origin',(14.5,-7.75,3.));
#1194=CARTESIAN_POINT('',(24.5,-7.75,-3.485));
#1195=CARTESIAN_POINT('',(24.5,-7.75,3.));
#1196=CARTESIAN_POINT('',(70.,-7.75,-3.485));
#1197=CARTESIAN_POINT('Origin',(1.00000042591004,-26.24999957409,-7.485));
#1198=CARTESIAN_POINT('',(-0.799999999999976,-26.24999957409,-5.29593975515833));
#1199=CARTESIAN_POINT('',(1.00000042591006,-28.05,-5.14876009142054));
#1200=CARTESIAN_POINT('Ctrl Pts',(-0.799999999999976,-26.24999957409,-5.29593975515833));
#1201=CARTESIAN_POINT('Ctrl Pts',(-0.799999999999977,-26.4093058121974,
-5.32763213858454));
#1202=CARTESIAN_POINT('Ctrl Pts',(-0.778778134128689,-26.5696382821237,
-5.3489202607625));
#1203=CARTESIAN_POINT('Ctrl Pts',(-0.694306811028163,-26.877830989202,-5.37830554065703));
#1204=CARTESIAN_POINT('Ctrl Pts',(-0.632651247580683,-27.0242856545387,
-5.38657246301415));
#1205=CARTESIAN_POINT('Ctrl Pts',(-0.437891331642792,-27.3562513726423,
-5.39593265789365));
#1206=CARTESIAN_POINT('Ctrl Pts',(-0.287025846260305,-27.5285486053534,
-5.39270202551894));
#1207=CARTESIAN_POINT('Ctrl Pts',(0.0596057934428691,-27.7996566493503,
-5.36623998969393));
#1208=CARTESIAN_POINT('Ctrl Pts',(0.249475182335228,-27.899524448262,-5.34425891166324));
#1209=CARTESIAN_POINT('Ctrl Pts',(0.632366099373398,-28.0224718647564,-5.26965365667097));
#1210=CARTESIAN_POINT('Ctrl Pts',(0.819037490626521,-28.05,-5.2206172528941));
#1211=CARTESIAN_POINT('Ctrl Pts',(1.00000042591006,-28.05,-5.14876009142054));
#1212=CARTESIAN_POINT('',(-0.799999999999976,-26.24999957409,-7.485));
#1213=CARTESIAN_POINT('',(-0.799999999999976,-26.24999957409,-7.485));
#1214=CARTESIAN_POINT('',(1.00000042591006,-28.05,-7.485));
#1215=CARTESIAN_POINT('Origin',(1.00000042591004,-26.24999957409,-7.485));
#1216=CARTESIAN_POINT('',(1.00000042591006,-28.05,-7.485));
#1217=CARTESIAN_POINT('Origin',(126.,-23.,0.));
#1218=CARTESIAN_POINT('',(123.75,-23.,0.));
#1219=CARTESIAN_POINT('Origin',(126.,-23.,0.));
#1220=CARTESIAN_POINT('Origin',(126.,-5.,0.));
#1221=CARTESIAN_POINT('',(123.75,-5.,0.));
#1222=CARTESIAN_POINT('Origin',(126.,-5.,0.));
#1223=CARTESIAN_POINT('Origin',(218.675328080141,-14.0000000000001,0.));
#1224=CARTESIAN_POINT('',(213.675328080141,-14.0000000000001,0.));
#1225=CARTESIAN_POINT('Origin',(218.675328080141,-14.0000000000001,0.));
#1226=CARTESIAN_POINT('Origin',(248.,-4.,-1.11022302462516E-15));
#1227=CARTESIAN_POINT('',(251.75,-4.,-1.11022302462516E-15));
#1228=CARTESIAN_POINT('Origin',(248.,-4.,-1.11022302462516E-15));
#1229=CARTESIAN_POINT('Origin',(248.,-24.,0.));
#1230=CARTESIAN_POINT('',(251.75,-24.,0.));
#1231=CARTESIAN_POINT('Origin',(248.,-24.,0.));
#1232=CARTESIAN_POINT('Origin',(126.,-23.,3.));
#1233=CARTESIAN_POINT('',(123.75,-23.,-3.485));
#1234=CARTESIAN_POINT('',(128.25,-23.,-3.485));
#1235=CARTESIAN_POINT('Origin',(126.,-23.,-3.485));
#1236=CARTESIAN_POINT('',(123.75,-23.,3.));
#1237=CARTESIAN_POINT('Origin',(126.,-23.,-3.485));
#1238=CARTESIAN_POINT('Origin',(22.5,-15.75,3.));
#1239=CARTESIAN_POINT('',(24.5,-15.75,-3.485));
#1240=CARTESIAN_POINT('',(74.,-15.75,-3.485));
#1241=CARTESIAN_POINT('',(24.5,-15.75,3.));
#1242=CARTESIAN_POINT('Origin',(24.5,-7.75,3.));
#1243=CARTESIAN_POINT('',(24.5,-10.875,-3.485));
#1244=CARTESIAN_POINT('Origin',(126.,-5.,3.));
#1245=CARTESIAN_POINT('',(123.75,-5.,-3.485));
#1246=CARTESIAN_POINT('',(128.25,-5.00000000000001,-3.485));
#1247=CARTESIAN_POINT('Origin',(126.,-5.,-3.485));
#1248=CARTESIAN_POINT('',(123.75,-5.,3.));
#1249=CARTESIAN_POINT('Origin',(126.,-5.,-3.485));
#1250=CARTESIAN_POINT('Origin',(218.675328080141,-14.0000000000001,3.));
#1251=CARTESIAN_POINT('',(213.675328080141,-14.0000000000001,-3.485));
#1252=CARTESIAN_POINT('',(223.675328080141,-14.0000000000001,-3.485));
#1253=CARTESIAN_POINT('Origin',(218.675328080141,-14.0000000000001,-3.485));
#1254=CARTESIAN_POINT('',(213.675328080141,-14.0000000000001,3.));
#1255=CARTESIAN_POINT('Origin',(218.675328080141,-14.0000000000001,-3.485));
#1256=CARTESIAN_POINT('Origin',(248.,-4.,-5.485));
#1257=CARTESIAN_POINT('',(251.75,-4.,-3.485));
#1258=CARTESIAN_POINT('',(251.75,-4.,-5.485));
#1259=CARTESIAN_POINT('Origin',(248.,-4.,-3.485));
#1260=CARTESIAN_POINT('Origin',(248.,-24.,-5.485));
#1261=CARTESIAN_POINT('',(251.75,-24.,-3.485));
#1262=CARTESIAN_POINT('',(251.75,-24.,-5.485));
#1263=CARTESIAN_POINT('',(244.25,-24.,-3.485));
#1264=CARTESIAN_POINT('Origin',(248.,-24.,-3.485));
#1265=CARTESIAN_POINT('Origin',(248.,-24.,-3.485));
#1266=CARTESIAN_POINT('Origin',(4.,-4.,-1.11022302462516E-15));
#1267=CARTESIAN_POINT('',(4.90553851381383,0.0499999999999779,-1.11022302462516E-15));
#1268=CARTESIAN_POINT('',(3.09446148618617,0.0499999999999778,-1.11022302462516E-15));
#1269=CARTESIAN_POINT('',(2.50000021295501,0.0499999999999776,-1.11022302462516E-15));
#1270=CARTESIAN_POINT('Origin',(4.,-4.,-1.11022302462516E-15));
#1271=CARTESIAN_POINT('Origin',(4.,-4.,-5.485));
#1272=CARTESIAN_POINT('',(3.09446148618617,0.0499999999999778,-3.485));
#1273=CARTESIAN_POINT('',(3.09446148618617,0.0499999999999778,-5.485));
#1274=CARTESIAN_POINT('',(4.90553851381383,0.0499999999999779,-3.485));
#1275=CARTESIAN_POINT('Origin',(4.,-4.,-3.485));
#1276=CARTESIAN_POINT('',(4.90553851381383,0.0499999999999779,-5.485));
#1277=CARTESIAN_POINT('Origin',(126.,-23.,-3.485));
#1278=CARTESIAN_POINT('',(130.25,-23.,-5.485));
#1279=CARTESIAN_POINT('Origin',(130.25,-23.,-3.485));
#1280=CARTESIAN_POINT('Origin',(126.,-23.,-5.485));
#1281=CARTESIAN_POINT('Origin',(12.5,-14.875,-3.485));
#1282=CARTESIAN_POINT('',(12.5,-5.75,-5.485));
#1283=CARTESIAN_POINT('',(12.5,-17.75,-5.485));
#1284=CARTESIAN_POINT('',(12.5,-14.875,-5.485));
#1285=CARTESIAN_POINT('Origin',(12.5,-17.75,-3.485));
#1286=CARTESIAN_POINT('Origin',(12.5,-5.75,-3.485));
#1287=CARTESIAN_POINT('Origin',(74.,-17.75,-3.485));
#1288=CARTESIAN_POINT('',(26.5,-17.75,-5.485));
#1289=CARTESIAN_POINT('',(74.,-17.75,-5.485));
#1290=CARTESIAN_POINT('Origin',(26.5,-17.75,-3.485));
#1291=CARTESIAN_POINT('Origin',(26.5,-10.875,-3.485));
#1292=CARTESIAN_POINT('',(26.5,-5.75,-5.485));
#1293=CARTESIAN_POINT('',(26.5,-10.875,-5.485));
#1294=CARTESIAN_POINT('Origin',(26.5,-5.75,-3.485));
#1295=CARTESIAN_POINT('Origin',(70.,-5.75,-3.485));
#1296=CARTESIAN_POINT('',(70.,-5.75,-5.485));
#1297=CARTESIAN_POINT('Origin',(126.,-5.,-3.485));
#1298=CARTESIAN_POINT('',(130.25,-5.00000000000001,-5.485));
#1299=CARTESIAN_POINT('Origin',(130.25,-5.00000000000001,-3.485));
#1300=CARTESIAN_POINT('Origin',(126.,-5.,-5.485));
#1301=CARTESIAN_POINT('Origin',(218.675328080141,-14.0000000000001,-3.485));
#1302=CARTESIAN_POINT('',(225.675328080141,-14.0000000000001,-5.485));
#1303=CARTESIAN_POINT('Origin',(225.675328080141,-14.0000000000001,-3.485));
#1304=CARTESIAN_POINT('Origin',(218.675328080141,-14.0000000000001,-5.485));
#1305=CARTESIAN_POINT('Origin',(248.,-4.,-3.485));
#1306=CARTESIAN_POINT('',(251.8,-4.,-3.9294097208657));
#1307=CARTESIAN_POINT('Origin',(253.75,-4.,-3.485));
#1308=CARTESIAN_POINT('',(251.8,-1.75000042591005,-4.9752615859806));
#1309=CARTESIAN_POINT('Ctrl Pts',(251.8,-4.,-3.9294097208657));
#1310=CARTESIAN_POINT('Ctrl Pts',(251.8,-3.74808294757066,-3.9294097208657));
#1311=CARTESIAN_POINT('Ctrl Pts',(251.8,-3.51250075697201,-4.03990825346215));
#1312=CARTESIAN_POINT('Ctrl Pts',(251.8,-3.0380685340652,-4.28643815454687));
#1313=CARTESIAN_POINT('Ctrl Pts',(251.8,-2.80109342930151,-4.42606106470053));
#1314=CARTESIAN_POINT('Ctrl Pts',(251.8,-2.32758197362278,-4.68982591207094));
#1315=CARTESIAN_POINT('Ctrl Pts',(251.8,-2.0285278347174,-4.8482493925014));
#1316=CARTESIAN_POINT('Ctrl Pts',(251.8,-1.75000042591005,-4.9752615859806));
#1317=CARTESIAN_POINT('',(249.99999957409,0.0499999999999862,-5.05964127750938));
#1318=CARTESIAN_POINT('Ctrl Pts',(251.8,-1.75000042591004,-4.9752615859806));
#1319=CARTESIAN_POINT('Ctrl Pts',(251.8,-1.60794299399262,-5.04004165952924));
#1320=CARTESIAN_POINT('Ctrl Pts',(251.783051353468,-1.46073762837277,-5.08947822232437));
#1321=CARTESIAN_POINT('Ctrl Pts',(251.709838719121,-1.16764412549541,-5.16669731784373));
#1322=CARTESIAN_POINT('Ctrl Pts',(251.654453802946,-1.02430915837774,-5.19395237430121));
#1323=CARTESIAN_POINT('Ctrl Pts',(251.475072554924,-0.695121995273899,-5.24084205692258));
#1324=CARTESIAN_POINT('Ctrl Pts',(251.333694039903,-0.520887781014035,-5.25211380532199));
#1325=CARTESIAN_POINT('Ctrl Pts',(250.995932796458,-0.234510224178526,-5.24866338139469));
#1326=CARTESIAN_POINT('Ctrl Pts',(250.803079257109,-0.124404083094736,-5.23419064725808));
#1327=CARTESIAN_POINT('Ctrl Pts',(250.401274228576,0.0169885774251691,-5.1729428469378));
#1328=CARTESIAN_POINT('Ctrl Pts',(250.19800273866,0.0499999999999919,-5.12829635032641));
#1329=CARTESIAN_POINT('Ctrl Pts',(249.99999957409,0.0499999999999878,-5.05964127750938));
#1330=CARTESIAN_POINT('',(243.918333673608,0.0499999999999855,-5.485));
#1331=CARTESIAN_POINT('Ctrl Pts',(249.99999957409,0.0499999999999859,-5.05964127750939));
#1332=CARTESIAN_POINT('Ctrl Pts',(249.762010572032,0.0499999999999859,-4.97712162535417));
#1333=CARTESIAN_POINT('Ctrl Pts',(249.519755602511,0.0499999999999859,-4.88717065349293));
#1334=CARTESIAN_POINT('Ctrl Pts',(248.849523917726,0.0499999999999859,-4.6574291109514));
#1335=CARTESIAN_POINT('Ctrl Pts',(248.418397196811,0.0499999999999862,-4.53856537528524));
#1336=CARTESIAN_POINT('Ctrl Pts',(247.581602803189,0.0499999999999862,-4.53856537528524));
#1337=CARTESIAN_POINT('Ctrl Pts',(247.150476082274,0.0499999999999858,-4.6574291109514));
#1338=CARTESIAN_POINT('Ctrl Pts',(246.295389191269,0.0499999999999858,-4.95053519024605));
#1339=CARTESIAN_POINT('Ctrl Pts',(245.86776192222,0.0499999999999855,-5.11396827262915));
#1340=CARTESIAN_POINT('Ctrl Pts',(244.993188898716,0.0499999999999855,-5.37218921030475));
#1341=CARTESIAN_POINT('Ctrl Pts',(244.411833415106,0.0499999999999857,-5.485));
#1342=CARTESIAN_POINT('Ctrl Pts',(243.918333673608,0.0499999999999857,-5.485));
#1343=CARTESIAN_POINT('',(251.8,-8.31537947346466,-5.485));
#1344=CARTESIAN_POINT('Origin',(248.,-4.,-5.485));
#1345=CARTESIAN_POINT('Ctrl Pts',(251.8,-8.31537947346466,-5.485));
#1346=CARTESIAN_POINT('Ctrl Pts',(251.8,-8.00672737370291,-5.485));
#1347=CARTESIAN_POINT('Ctrl Pts',(251.8,-7.67227919505549,-5.44224850511768));
#1348=CARTESIAN_POINT('Ctrl Pts',(251.8,-7.01868396833634,-5.28423778410671));
#1349=CARTESIAN_POINT('Ctrl Pts',(251.8,-6.69931520538582,-5.16989707155555));
#1350=CARTESIAN_POINT('Ctrl Pts',(251.8,-6.09496349875182,-4.91126166347237));
#1351=CARTESIAN_POINT('Ctrl Pts',(251.8,-5.72362359659993,-4.71834946573017));
#1352=CARTESIAN_POINT('Ctrl Pts',(251.8,-5.19890657069848,-4.42606106470053));
#1353=CARTESIAN_POINT('Ctrl Pts',(251.8,-4.96193146593478,-4.2864381545469));
#1354=CARTESIAN_POINT('Ctrl Pts',(251.8,-4.48749924302798,-4.03990825346214));
#1355=CARTESIAN_POINT('Ctrl Pts',(251.8,-4.25191705242933,-3.9294097208657));
#1356=CARTESIAN_POINT('Ctrl Pts',(251.8,-4.,-3.9294097208657));
#1357=CARTESIAN_POINT('Origin',(4.,-4.,-1.11022302462516E-15));
#1358=CARTESIAN_POINT('',(3.09446148618622,-28.05,-1.11022302462516E-15));
#1359=CARTESIAN_POINT('',(4.90553851381378,-28.05,-1.11022302462516E-15));
#1360=CARTESIAN_POINT('',(126.999999787045,-28.05,-1.11022302462516E-15));
#1361=CARTESIAN_POINT('Origin',(4.,-24.,-1.11022302462516E-15));
#1362=CARTESIAN_POINT('Origin',(248.,-24.,-3.485));
#1363=CARTESIAN_POINT('',(243.918333673608,-28.05,-5.485));
#1364=CARTESIAN_POINT('',(249.99999957409,-28.05,-5.05964127750941));
#1365=CARTESIAN_POINT('Ctrl Pts',(243.918333673608,-28.05,-5.485));
#1366=CARTESIAN_POINT('Ctrl Pts',(244.411833415106,-28.05,-5.485));
#1367=CARTESIAN_POINT('Ctrl Pts',(244.993188898716,-28.05,-5.37218921030474));
#1368=CARTESIAN_POINT('Ctrl Pts',(245.86776192222,-28.05,-5.11396827262915));
#1369=CARTESIAN_POINT('Ctrl Pts',(246.295389191269,-28.05,-4.95053519024604));
#1370=CARTESIAN_POINT('Ctrl Pts',(247.150476082274,-28.05,-4.6574291109514));
#1371=CARTESIAN_POINT('Ctrl Pts',(247.581602803189,-28.05,-4.53856537528524));
#1372=CARTESIAN_POINT('Ctrl Pts',(248.,-28.05,-4.53856537528524));
#1373=CARTESIAN_POINT('Ctrl Pts',(248.418397196811,-28.05,-4.53856537528524));
#1374=CARTESIAN_POINT('Ctrl Pts',(248.849523917726,-28.05,-4.6574291109514));
#1375=CARTESIAN_POINT('Ctrl Pts',(249.519755602511,-28.05,-4.88717065349294));
#1376=CARTESIAN_POINT('Ctrl Pts',(249.762010572032,-28.05,-4.97712162535418));
#1377=CARTESIAN_POINT('Ctrl Pts',(249.99999957409,-28.05,-5.05964127750941));
#1378=CARTESIAN_POINT('',(251.8,-26.2499995740899,-4.97526158598062));
#1379=CARTESIAN_POINT('Ctrl Pts',(249.99999957409,-28.05,-5.05964127750942));
#1380=CARTESIAN_POINT('Ctrl Pts',(250.151308880679,-28.05,-5.11210585040813));
#1381=CARTESIAN_POINT('Ctrl Pts',(250.306030608106,-28.0307964908345,-5.15049102431926));
#1382=CARTESIAN_POINT('Ctrl Pts',(250.610879557072,-27.9504783433566,-5.20790537016315));
#1383=CARTESIAN_POINT('Ctrl Pts',(250.758809216749,-27.8900441565473,-5.22655964796783));
#1384=CARTESIAN_POINT('Ctrl Pts',(251.089581835956,-27.6998243991941,-5.25337089446521));
#1385=CARTESIAN_POINT('Ctrl Pts',(251.26063008164,-27.5538755500766,-5.25475248394961));
#1386=CARTESIAN_POINT('Ctrl Pts',(251.536651722538,-27.2122300860823,-5.23020235936076));
#1387=CARTESIAN_POINT('Ctrl Pts',(251.640425062664,-27.0208183237298,-5.20507504889479));
#1388=CARTESIAN_POINT('Ctrl Pts',(251.770934268011,-26.6293022041123,-5.1183087983381));
#1389=CARTESIAN_POINT('Ctrl Pts',(251.8,-26.4355894824497,-5.05989304630731));
#1390=CARTESIAN_POINT('Ctrl Pts',(251.8,-26.2499995740899,-4.97526158598062));
#1391=CARTESIAN_POINT('',(251.8,-19.6846205265354,-5.485));
#1392=CARTESIAN_POINT('Ctrl Pts',(251.8,-26.2499995740899,-4.97526158598062));
#1393=CARTESIAN_POINT('Ctrl Pts',(251.8,-25.9714721652826,-4.84824939250144));
#1394=CARTESIAN_POINT('Ctrl Pts',(251.8,-25.6724180263773,-4.68982591207102));
#1395=CARTESIAN_POINT('Ctrl Pts',(251.8,-25.1989065706986,-4.42606106470063));
#1396=CARTESIAN_POINT('Ctrl Pts',(251.8,-24.9619314659349,-4.28643815454699));
#1397=CARTESIAN_POINT('Ctrl Pts',(251.8,-24.487499243028,-4.03990825346227));
#1398=CARTESIAN_POINT('Ctrl Pts',(251.8,-24.2519170524294,-3.92940972086586));
#1399=CARTESIAN_POINT('Ctrl Pts',(251.8,-24.,-3.92940972086586));
#1400=CARTESIAN_POINT('Ctrl Pts',(251.8,-23.7480829475707,-3.92940972086586));
#1401=CARTESIAN_POINT('Ctrl Pts',(251.8,-23.512500756972,-4.03990825346235));
#1402=CARTESIAN_POINT('Ctrl Pts',(251.8,-23.0380685340652,-4.28643815454707));
#1403=CARTESIAN_POINT('Ctrl Pts',(251.8,-22.8010934293014,-4.42606106470063));
#1404=CARTESIAN_POINT('Ctrl Pts',(251.8,-22.2763764033999,-4.71834946573026));
#1405=CARTESIAN_POINT('Ctrl Pts',(251.8,-21.9050365012481,-4.91126166347243));
#1406=CARTESIAN_POINT('Ctrl Pts',(251.8,-21.3006847946141,-5.16989707155559));
#1407=CARTESIAN_POINT('Ctrl Pts',(251.8,-20.9813160316636,-5.28423778410675));
#1408=CARTESIAN_POINT('Ctrl Pts',(251.8,-20.3277208049445,-5.44224850511769));
#1409=CARTESIAN_POINT('Ctrl Pts',(251.8,-19.9932726262971,-5.485));
#1410=CARTESIAN_POINT('Ctrl Pts',(251.8,-19.6846205265354,-5.485));
#1411=CARTESIAN_POINT('',(242.25,-24.,-5.485));
#1412=CARTESIAN_POINT('Origin',(248.,-24.,-5.485));
#1413=CARTESIAN_POINT('Origin',(242.25,-24.,-3.485));
#1414=CARTESIAN_POINT('Origin',(248.,-24.,-5.485));
#1415=CARTESIAN_POINT('Origin',(249.99999957409,-26.2499995740899,-7.485));
#1416=CARTESIAN_POINT('',(249.99999957409,-28.05,-7.485));
#1417=CARTESIAN_POINT('',(249.99999957409,-28.05,-7.485));
#1418=CARTESIAN_POINT('',(251.8,-26.2499995740899,-7.485));
#1419=CARTESIAN_POINT('Origin',(249.99999957409,-26.2499995740899,-7.485));
#1420=CARTESIAN_POINT('',(251.8,-26.2499995740899,-7.485));
#1421=CARTESIAN_POINT('Origin',(251.8,-1.75000042591005,-7.485));
#1422=CARTESIAN_POINT('',(251.8,-1.75000042591005,-7.485));
#1423=CARTESIAN_POINT('',(251.8,-7.87500021295494,-7.485));
#1424=CARTESIAN_POINT('',(251.8,-1.75000042591005,-7.485));
#1425=CARTESIAN_POINT('',(251.8,-7.87500021295494,-5.485));
#1426=CARTESIAN_POINT('Origin',(249.99999957409,-1.75000042591002,-7.485));
#1427=CARTESIAN_POINT('',(249.99999957409,0.0499999999999859,-7.485));
#1428=CARTESIAN_POINT('Origin',(249.99999957409,-1.75000042591002,-7.485));
#1429=CARTESIAN_POINT('',(249.99999957409,0.0499999999999859,-7.485));
#1430=CARTESIAN_POINT('Origin',(1.00000042591002,0.0499999999999776,-7.485));
#1431=CARTESIAN_POINT('',(1.00000042591002,0.0499999999999784,-5.14876009142055));
#1432=CARTESIAN_POINT('Ctrl Pts',(3.09446148618617,0.0499999999999778,-3.485));
#1433=CARTESIAN_POINT('Ctrl Pts',(3.09446148618617,0.0499999999999778,-3.56887312109869));
#1434=CARTESIAN_POINT('Ctrl Pts',(3.06343089869992,0.0499999999999778,-3.66461794486449));
#1435=CARTESIAN_POINT('Ctrl Pts',(2.95831190766252,0.0499999999999778,-3.85764917937198));
#1436=CARTESIAN_POINT('Ctrl Pts',(2.84887752835994,0.0499999999999778,-3.97859896792631));
#1437=CARTESIAN_POINT('Ctrl Pts',(2.41885886036643,0.0499999999999778,-4.39091348695538));
#1438=CARTESIAN_POINT('Ctrl Pts',(1.953624325663,0.0499999999999778,-4.68761348921831));
#1439=CARTESIAN_POINT('Ctrl Pts',(1.3746763239435,0.0499999999999778,-4.98769014906437));
#1440=CARTESIAN_POINT('Ctrl Pts',(1.19126019543847,0.0499999999999776,-5.07281424029436));
#1441=CARTESIAN_POINT('Ctrl Pts',(1.00000042591002,0.0499999999999776,-5.14876009142055));
#1442=CARTESIAN_POINT('',(8.62817458616247,0.049999999999978,-5.485));
#1443=CARTESIAN_POINT('Ctrl Pts',(8.62817458616247,0.0499999999999778,-5.485));
#1444=CARTESIAN_POINT('Ctrl Pts',(8.26990325068337,0.0499999999999778,-5.485));
#1445=CARTESIAN_POINT('Ctrl Pts',(7.88372616171667,0.0499999999999778,-5.42746678970163));
#1446=CARTESIAN_POINT('Ctrl Pts',(7.13529323681431,0.0499999999999778,-5.21641939994962));
#1447=CARTESIAN_POINT('Ctrl Pts',(6.77270644420579,0.0499999999999779,-5.06408065158576));
#1448=CARTESIAN_POINT('Ctrl Pts',(6.046375674337,0.0499999999999779,-4.68761348921831));
#1449=CARTESIAN_POINT('Ctrl Pts',(5.58114113963357,0.0499999999999779,-4.39091348695538));
#1450=CARTESIAN_POINT('Ctrl Pts',(5.15112247164006,0.0499999999999779,-3.97859896792631));
#1451=CARTESIAN_POINT('Ctrl Pts',(5.04168809233748,0.0499999999999779,-3.85764917937198));
#1452=CARTESIAN_POINT('Ctrl Pts',(4.93656910130008,0.0499999999999779,-3.66461794486449));
#1453=CARTESIAN_POINT('Ctrl Pts',(4.90553851381383,0.0499999999999779,-3.56887312109869));
#1454=CARTESIAN_POINT('Ctrl Pts',(4.90553851381383,0.0499999999999779,-3.485));
#1455=CARTESIAN_POINT('',(63.250000212955,0.049999999999979,-5.485));
#1456=CARTESIAN_POINT('',(1.00000042591002,0.0499999999999776,-7.485));
#1457=CARTESIAN_POINT('',(63.250000212955,0.049999999999979,-7.485));
#1458=CARTESIAN_POINT('',(1.00000042591002,0.0499999999999776,-7.485));
#1459=CARTESIAN_POINT('Origin',(1.00000042591002,-1.75000042591004,-7.485));
#1460=CARTESIAN_POINT('',(-0.800000000000002,-1.75000042591004,-5.29593975515834));
#1461=CARTESIAN_POINT('Ctrl Pts',(1.00000042591002,0.0499999999999774,-5.14876009142055));
#1462=CARTESIAN_POINT('Ctrl Pts',(0.862970664203377,0.0499999999999779,
-5.20317217143135));
#1463=CARTESIAN_POINT('Ctrl Pts',(0.722315362697851,0.0342689083677598,
-5.24452129229739));
#1464=CARTESIAN_POINT('Ctrl Pts',(0.450367801737423,-0.0306115094378698,
-5.30761132729747));
#1465=CARTESIAN_POINT('Ctrl Pts',(0.320922430651631,-0.0772986354953263,
-5.32991295128713));
#1466=CARTESIAN_POINT('Ctrl Pts',(-0.00788216875152507,-0.241118865773595,
-5.37465807119692));
#1467=CARTESIAN_POINT('Ctrl Pts',(-0.193184967395728,-0.38259049069128,
-5.38752628397944));
#1468=CARTESIAN_POINT('Ctrl Pts',(-0.496584481327942,-0.724677504633572,
-5.3955533797376));
#1469=CARTESIAN_POINT('Ctrl Pts',(-0.613436782774981,-0.920790121837915,
-5.3910035156641));
#1470=CARTESIAN_POINT('Ctrl Pts',(-0.763628158360808,-1.33197433450705,
-5.36122662953989));
#1471=CARTESIAN_POINT('Ctrl Pts',(-0.800000000000002,-1.54164045228279,
-5.3373908888573));
#1472=CARTESIAN_POINT('Ctrl Pts',(-0.800000000000001,-1.75000042591005,
-5.29593975515834));
#1473=CARTESIAN_POINT('',(-0.800000000000002,-1.75000042591004,-7.485));
#1474=CARTESIAN_POINT('Origin',(1.00000042591002,-1.75000042591004,-7.485));
#1475=CARTESIAN_POINT('',(-0.800000000000002,-1.75000042591004,-7.485));
#1476=CARTESIAN_POINT('Origin',(4.,-4.,-3.485));
#1477=CARTESIAN_POINT('',(-0.799999999999995,-7.84480168539289,-5.485));
#1478=CARTESIAN_POINT('Ctrl Pts',(-0.800000000000001,-1.75000042591004,
-5.29593975515834));
#1479=CARTESIAN_POINT('Ctrl Pts',(-0.800000000000001,-2.06545803731368,
-5.23318261711972));
#1480=CARTESIAN_POINT('Ctrl Pts',(-0.800000000000001,-2.39681972885674,
-5.15894821254608));
#1481=CARTESIAN_POINT('Ctrl Pts',(-0.8,-3.16189780400574,-5.01500931116465));
#1482=CARTESIAN_POINT('Ctrl Pts',(-0.799999999999999,-3.59775039016363,
-4.96063545633737));
#1483=CARTESIAN_POINT('Ctrl Pts',(-0.799999999999999,-4.40224960983639,
-4.96063545633737));
#1484=CARTESIAN_POINT('Ctrl Pts',(-0.799999999999998,-4.83810219599428,
-5.01500931116464));
#1485=CARTESIAN_POINT('Ctrl Pts',(-0.799999999999997,-5.70319819160599,
-5.17776520659868));
#1486=CARTESIAN_POINT('Ctrl Pts',(-0.799999999999997,-6.13402349030178,
-5.27762359401076));
#1487=CARTESIAN_POINT('Ctrl Pts',(-0.799999999999996,-6.93741222311819,
-5.42311858636594));
#1488=CARTESIAN_POINT('Ctrl Pts',(-0.799999999999995,-7.43059416297015,
-5.485));
#1489=CARTESIAN_POINT('Ctrl Pts',(-0.799999999999995,-7.84480168539289,
-5.485));
#1490=CARTESIAN_POINT('Origin',(4.,-4.,-5.485));
#1491=CARTESIAN_POINT('Origin',(125.5,-14.,-5.485));
#1492=CARTESIAN_POINT('',(-0.799999999999982,-20.1551983146071,-5.485));
#1493=CARTESIAN_POINT('',(-0.799999999999992,-20.1249997870451,-5.485));
#1494=CARTESIAN_POINT('',(8.62817458616246,-28.05,-5.485));
#1495=CARTESIAN_POINT('Origin',(4.,-24.,-5.485));
#1496=CARTESIAN_POINT('',(187.749999787045,-28.05,-5.485));
#1497=CARTESIAN_POINT('Origin',(4.,-24.,-5.485));
#1498=CARTESIAN_POINT('',(3.09446148618622,-28.05,-3.485));
#1499=CARTESIAN_POINT('',(3.09446148618622,-28.05,-5.485));
#1500=CARTESIAN_POINT('',(4.90553851381378,-28.05,-3.485));
#1501=CARTESIAN_POINT('',(4.90553851381378,-28.05,-5.485));
#1502=CARTESIAN_POINT('Origin',(4.,-24.,-3.485));
#1503=CARTESIAN_POINT('Origin',(249.99999957409,-28.05,-7.485));
#1504=CARTESIAN_POINT('Ctrl Pts',(1.00000042591006,-28.05,-5.14876009142054));
#1505=CARTESIAN_POINT('Ctrl Pts',(1.30257011018609,-28.05,-5.02861505384165));
#1506=CARTESIAN_POINT('Ctrl Pts',(1.60568321041153,-28.05,-4.87541242572963));
#1507=CARTESIAN_POINT('Ctrl Pts',(2.19333029292194,-28.05,-4.5273506707435));
#1508=CARTESIAN_POINT('Ctrl Pts',(2.57231133831912,-28.05,-4.26723664584674));
#1509=CARTESIAN_POINT('Ctrl Pts',(2.90972840873227,-28.05,-3.9082847162127));
#1510=CARTESIAN_POINT('Ctrl Pts',(2.99177013362916,-28.05,-3.80549981711336));
#1511=CARTESIAN_POINT('Ctrl Pts',(3.07109111939156,-28.05,-3.64149491678406));
#1512=CARTESIAN_POINT('Ctrl Pts',(3.09446148618622,-28.05,-3.55758576890888));
#1513=CARTESIAN_POINT('Ctrl Pts',(3.09446148618622,-28.05,-3.485));
#1514=CARTESIAN_POINT('',(187.749999787045,-28.05,-7.48499999999999));
#1515=CARTESIAN_POINT('Ctrl Pts',(4.90553851381378,-28.05,-3.485));
#1516=CARTESIAN_POINT('Ctrl Pts',(4.90553851381378,-28.05,-3.55758576890888));
#1517=CARTESIAN_POINT('Ctrl Pts',(4.92890888060844,-28.05,-3.64149491678406));
#1518=CARTESIAN_POINT('Ctrl Pts',(5.00822986637084,-28.05,-3.80549981711336));
#1519=CARTESIAN_POINT('Ctrl Pts',(5.09027159126773,-28.05,-3.9082847162127));
#1520=CARTESIAN_POINT('Ctrl Pts',(5.42768866168088,-28.05,-4.26723664584674));
#1521=CARTESIAN_POINT('Ctrl Pts',(5.80666970707806,-28.05,-4.5273506707435));
#1522=CARTESIAN_POINT('Ctrl Pts',(6.52478067325391,-28.05,-4.95268582614695));
#1523=CARTESIAN_POINT('Ctrl Pts',(7.01800303666184,-28.05,-5.17712686962335));
#1524=CARTESIAN_POINT('Ctrl Pts',(7.81027132366593,-28.05,-5.41119156830931));
#1525=CARTESIAN_POINT('Ctrl Pts',(8.25362687151063,-28.05,-5.485));
#1526=CARTESIAN_POINT('Ctrl Pts',(8.62817458616246,-28.05,-5.485));
#1527=CARTESIAN_POINT('Origin',(125.5,-14.,-7.485));
#1528=CARTESIAN_POINT('',(-0.799999999999992,-20.1249997870451,-7.485));
#1529=CARTESIAN_POINT('Origin',(-0.799999999999976,-26.24999957409,-7.485));
#1530=CARTESIAN_POINT('Ctrl Pts',(-0.799999999999982,-20.1551983146071,
-5.485));
#1531=CARTESIAN_POINT('Ctrl Pts',(-0.799999999999982,-20.5694058370298,
-5.485));
#1532=CARTESIAN_POINT('Ctrl Pts',(-0.799999999999981,-21.0625877768818,
-5.42311858636594));
#1533=CARTESIAN_POINT('Ctrl Pts',(-0.79999999999998,-21.8659765096982,-5.27762359401075));
#1534=CARTESIAN_POINT('Ctrl Pts',(-0.79999999999998,-22.296801808394,-5.17776520659867));
#1535=CARTESIAN_POINT('Ctrl Pts',(-0.799999999999979,-23.1618978040057,
-5.01500931116463));
#1536=CARTESIAN_POINT('Ctrl Pts',(-0.799999999999978,-23.5977503901636,
-4.96063545633735));
#1537=CARTESIAN_POINT('Ctrl Pts',(-0.799999999999978,-24.,-4.96063545633735));
#1538=CARTESIAN_POINT('Ctrl Pts',(-0.799999999999978,-24.4022496098364,
-4.96063545633735));
#1539=CARTESIAN_POINT('Ctrl Pts',(-0.799999999999977,-24.8381021959943,
-5.01500931116463));
#1540=CARTESIAN_POINT('Ctrl Pts',(-0.799999999999976,-25.6031802711433,
-5.15894821254606));
#1541=CARTESIAN_POINT('Ctrl Pts',(-0.799999999999976,-25.9345419626863,
-5.23318261711971));
#1542=CARTESIAN_POINT('Ctrl Pts',(-0.799999999999976,-26.24999957409,-5.29593975515833));
#1543=CARTESIAN_POINT('Origin',(4.,-24.,-3.485));
#1544=UNCERTAINTY_MEASURE_WITH_UNIT(LENGTH_MEASURE(0.01),#1548,
'DISTANCE_ACCURACY_VALUE',
'Maximum model space distance between geometric entities at asserted c
onnectivities');
#1545=UNCERTAINTY_MEASURE_WITH_UNIT(LENGTH_MEASURE(0.01),#1548,
'DISTANCE_ACCURACY_VALUE',
'Maximum model space distance between geometric entities at asserted c
onnectivities');
#1546=(
GEOMETRIC_REPRESENTATION_CONTEXT(3)
GLOBAL_UNCERTAINTY_ASSIGNED_CONTEXT((#1544))
GLOBAL_UNIT_ASSIGNED_CONTEXT((#1548,#1549,#1550))
REPRESENTATION_CONTEXT('','3D')
);
#1547=(
GEOMETRIC_REPRESENTATION_CONTEXT(3)
GLOBAL_UNCERTAINTY_ASSIGNED_CONTEXT((#1545))
GLOBAL_UNIT_ASSIGNED_CONTEXT((#1548,#1549,#1550))
REPRESENTATION_CONTEXT('','3D')
);
#1548=(
LENGTH_UNIT()
NAMED_UNIT(*)
SI_UNIT(.MILLI.,.METRE.)
);
#1549=(
NAMED_UNIT(*)
PLANE_ANGLE_UNIT()
SI_UNIT($,.RADIAN.)
);
#1550=(
NAMED_UNIT(*)
SI_UNIT($,.STERADIAN.)
SOLID_ANGLE_UNIT()
);
#1551=SHAPE_DEFINITION_REPRESENTATION(#1552,#1553);
#1552=PRODUCT_DEFINITION_SHAPE('',$,#1555);
#1553=SHAPE_REPRESENTATION('',(#802),#1546);
#1554=PRODUCT_DEFINITION_CONTEXT('part definition',#1559,'design');
#1555=PRODUCT_DEFINITION('board 1',
'glowbug v4 - for machining - smaller slit',#1556,#1554);
#1556=PRODUCT_DEFINITION_FORMATION('',$,#1561);
#1557=PRODUCT_RELATED_PRODUCT_CATEGORY(
'glowbug v4 - for machining - smaller slit',
'glowbug v4 - for machining - smaller slit',(#1561));
#1558=APPLICATION_PROTOCOL_DEFINITION('international standard',
'automotive_design',2009,#1559);
#1559=APPLICATION_CONTEXT(
'Core Data for Automotive Mechanical Design Process');
#1560=PRODUCT_CONTEXT('part definition',#1559,'mechanical');
#1561=PRODUCT('board 1','glowbug v4 - for machining - smaller slit',
'KiCad electronic assembly',(#1560));
#1562=PRESENTATION_STYLE_ASSIGNMENT((#1565));
#1563=PRESENTATION_STYLE_ASSIGNMENT((#1566));
#1564=PRESENTATION_STYLE_ASSIGNMENT((#1567));
#1565=SURFACE_STYLE_USAGE(.BOTH.,#1568);
#1566=SURFACE_STYLE_USAGE(.BOTH.,#1569);
#1567=SURFACE_STYLE_USAGE(.BOTH.,#1570);
#1568=SURFACE_SIDE_STYLE('',(#1571));
#1569=SURFACE_SIDE_STYLE('',(#1572));
#1570=SURFACE_SIDE_STYLE('',(#1573));
#1571=SURFACE_STYLE_FILL_AREA(#1574);
#1572=SURFACE_STYLE_FILL_AREA(#1575);
#1573=SURFACE_STYLE_FILL_AREA(#1576);
#1574=FILL_AREA_STYLE('Steel - Satin',(#1577));
#1575=FILL_AREA_STYLE('Aluminum - Bead Blasted',(#1578));
#1576=FILL_AREA_STYLE('Acrylic (Clear)',(#1579));
#1577=FILL_AREA_STYLE_COLOUR('Steel - Satin',#1580);
#1578=FILL_AREA_STYLE_COLOUR('Aluminum - Bead Blasted',#1581);
#1579=FILL_AREA_STYLE_COLOUR('Acrylic (Clear)',#1582);
#1580=COLOUR_RGB('Steel - Satin',0.627450980392157,0.627450980392157,0.627450980392157);
#1581=COLOUR_RGB('Aluminum - Bead Blasted',0.96078431372549,0.96078431372549,
0.964705882352941);
#1582=COLOUR_RGB('Acrylic (Clear)',0.964705882352941,0.964705882352941,
0.952941176470588);
ENDSEC;
END-ISO-10303-21;
